<svg width="68" height="32" viewBox="0 0 68 32" fill="none" xmlns="http://www.w3.org/2000/svg">
<path fill-rule="evenodd" clip-rule="evenodd" d="M16.0638 28.4243C16.1783 28.3441 16.3104 28.3175 16.4337 28.3401C16.5578 28.3627 16.6726 28.4344 16.7529 28.5497C16.8336 28.6654 16.8614 28.8016 16.8397 28.9286C16.8188 29.0551 16.7489 29.1728 16.6345 29.253C16.3526 29.4506 16.053 29.5864 15.739 29.6727C15.4245 29.7589 15.0964 29.7956 14.7567 29.7956C13.9901 29.7956 13.3243 29.5122 12.85 29.0362C12.3762 28.5606 12.0938 27.8923 12.0938 27.1228C12.0938 26.3525 12.3633 25.679 12.8287 25.201C13.2857 24.7314 13.9311 24.45 14.6945 24.45C15.4305 24.45 16.0385 24.7298 16.4682 25.1868C16.9172 25.6645 17.1706 26.336 17.1706 27.0837C17.1706 27.2252 17.1135 27.353 17.0216 27.4457L17.0208 27.4461C16.9284 27.5384 16.8015 27.5952 16.6614 27.5952H13.1797C13.2665 27.9773 13.446 28.2837 13.7138 28.4933C13.9772 28.6988 14.3258 28.8121 14.7567 28.8121C15.0077 28.8121 15.2382 28.7827 15.4542 28.7194C15.6699 28.6561 15.8715 28.5594 16.0638 28.4243ZM16.1321 26.6839H13.1323C13.264 25.8737 13.8022 25.4005 14.6318 25.4005C15.4611 25.4005 16 25.8725 16.1321 26.6839Z" fill="black"/>
<path d="M46.3523 29.796C45.5857 29.796 44.9198 29.5126 44.4456 29.0366C43.9713 28.5606 43.689 27.8923 43.689 27.1228C43.689 26.3533 43.9713 25.685 44.4456 25.209C44.9198 24.7334 45.5857 24.4496 46.3523 24.4496C47.1189 24.4496 47.7847 24.7334 48.2589 25.209C48.7328 25.685 49.0155 26.3533 49.0155 27.1228C49.0155 27.8923 48.7328 28.5606 48.2585 29.0366C47.7847 29.5126 47.1189 29.796 46.3523 29.796ZM46.3523 28.8121C46.8486 28.8121 47.2546 28.6388 47.5389 28.3469C47.8325 28.0454 47.9963 27.6174 47.9963 27.1228V27.095C47.9903 26.619 47.8317 26.2034 47.5514 25.9071C47.2715 25.6109 46.8703 25.4335 46.3784 25.4335L46.3768 25.4331L46.3523 25.4335C45.8543 25.4396 45.4471 25.6145 45.1628 25.9067C44.8709 26.2062 44.7078 26.6299 44.7078 27.1228C44.7078 27.6174 44.8721 28.0454 45.1652 28.3469C45.4495 28.6388 45.8559 28.8121 46.3523 28.8121Z" fill="black"/>
<path d="M34.6106 29.3232C34.6106 29.4618 34.5556 29.5783 34.466 29.661C34.3737 29.7464 34.244 29.7956 34.101 29.7956C33.958 29.7956 33.8283 29.7464 33.736 29.661C33.6464 29.5783 33.5914 29.4618 33.5914 29.3232V26.8685C33.5914 26.4444 33.442 26.0825 33.1874 25.8265C32.9324 25.571 32.5718 25.421 32.1493 25.421C31.7277 25.421 31.3747 25.569 31.1265 25.8225C30.8763 26.078 30.7326 26.4416 30.7326 26.8685V29.3232C30.7326 29.4618 30.6776 29.5783 30.588 29.661C30.4956 29.7464 30.3659 29.7956 30.223 29.7956C30.08 29.7956 29.9503 29.7464 29.8579 29.661C29.7684 29.5783 29.7134 29.4618 29.7134 29.3232V26.8685C29.7134 26.1639 29.9712 25.5609 30.4037 25.1336C30.8402 24.7028 31.4542 24.45 32.1622 24.45C32.8698 24.45 33.4842 24.7028 33.9203 25.1336C34.3528 25.5609 34.6106 26.1635 34.6106 26.8685V29.3232Z" fill="black"/>
<path d="M12.1356 22.3412C12.2738 22.3412 12.3894 22.3964 12.4717 22.4863C12.5573 22.579 12.6063 22.7092 12.6063 22.8527C12.6063 22.9961 12.5573 23.1263 12.4717 23.219C12.3894 23.3089 12.2738 23.3642 12.1356 23.3642H10.3631V29.3232C10.3631 29.4618 10.308 29.5783 10.2185 29.661C10.1261 29.7464 9.99642 29.7956 9.85346 29.7956C9.7105 29.7956 9.58079 29.7464 9.48843 29.661C9.39888 29.5783 9.34386 29.4618 9.34386 29.3232V23.3642H7.57171C7.43357 23.3642 7.31751 23.3089 7.23519 23.219C7.15005 23.1263 7.10106 22.9961 7.10106 22.8527C7.10106 22.7092 7.15005 22.579 7.23519 22.4863C7.31751 22.3964 7.43357 22.3412 7.57171 22.3412H12.1356Z" fill="black"/>
<path d="M21.8835 28.3852C22.0067 28.305 22.136 28.2784 22.2541 28.3002C22.375 28.3224 22.4842 28.3945 22.5649 28.5106C22.644 28.6239 22.6697 28.7508 22.6497 28.8717C22.6292 28.9963 22.5597 29.1148 22.4509 29.2051C22.2156 29.401 21.9357 29.5457 21.6325 29.6428C21.3088 29.7464 20.9586 29.7956 20.6077 29.7956C19.8439 29.7956 19.1985 29.5142 18.7419 29.0447C18.2765 28.5666 18.0066 27.8931 18.0066 27.1228L18.007 27.1212V27.1099C18.007 26.3396 18.2765 25.6661 18.7419 25.1881C19.1985 24.7185 19.8439 24.4371 20.6077 24.4371C20.9586 24.4371 21.3104 24.4867 21.6357 24.5907C21.9397 24.6878 22.2208 24.8325 22.4561 25.028C22.5645 25.1183 22.6324 25.236 22.6517 25.3602C22.6709 25.4811 22.6444 25.6085 22.5649 25.7221C22.4842 25.8382 22.3758 25.9108 22.2565 25.9329C22.1393 25.9547 22.012 25.9285 21.8887 25.8483C21.6915 25.7197 21.4959 25.6125 21.2875 25.5379C21.0795 25.4634 20.8578 25.421 20.6077 25.421C20.1133 25.421 19.7262 25.5911 19.4591 25.8761C19.1752 26.1792 19.0258 26.6125 19.0258 27.1099V27.1228C19.0258 27.6202 19.1752 28.0535 19.4591 28.3566C19.7262 28.6416 20.1133 28.8121 20.6077 28.8121C20.8578 28.8121 21.0779 28.7694 21.2851 28.6952C21.4923 28.6206 21.6863 28.5138 21.8835 28.3852Z" fill="black"/>
<path d="M38.1621 29.796C37.3955 29.796 36.7297 29.5126 36.2554 29.0366C35.7816 28.5606 35.4989 27.8923 35.4989 27.1228C35.4989 26.3533 35.7816 25.685 36.2554 25.209C36.7297 24.733 37.3955 24.4496 38.1621 24.4496C38.9287 24.4496 39.5945 24.7334 40.0688 25.209C40.5431 25.685 40.8254 26.3533 40.8254 27.1228C40.8254 27.8923 40.5431 28.5606 40.0688 29.0366C39.5945 29.5126 38.9287 29.796 38.1621 29.796ZM38.1621 28.8121C38.6585 28.8121 39.0649 28.6388 39.3492 28.3469C39.6423 28.0454 39.8066 27.6174 39.8066 27.1228V27.1216L39.8062 27.095C39.8006 26.619 39.6415 26.2034 39.3616 25.9071C39.0817 25.6109 38.6802 25.4335 38.1886 25.4335L38.187 25.4331L38.1625 25.4335C37.6646 25.4396 37.257 25.6145 36.9727 25.9067C36.6811 26.2062 36.5181 26.6299 36.5181 27.1228C36.5181 27.6174 36.6819 28.0454 36.9755 28.3469C37.2598 28.6388 37.6658 28.8121 38.1621 28.8121Z" fill="black"/>
<path d="M41.7358 22.8136C41.7358 22.6749 41.7908 22.5584 41.8803 22.4758C41.9727 22.3903 42.1024 22.3412 42.2454 22.3412C42.3883 22.3412 42.518 22.3903 42.6104 22.4758C42.6999 22.5584 42.755 22.6749 42.755 22.8136V29.3232C42.755 29.4618 42.6999 29.5783 42.6104 29.661C42.518 29.7464 42.3883 29.7956 42.2454 29.7956C42.1024 29.7956 41.9727 29.7464 41.8803 29.661C41.7908 29.5783 41.7358 29.4618 41.7358 29.3232V22.8136Z" fill="black"/>
<path d="M23.7146 22.8136C23.7146 22.6749 23.7697 22.5584 23.8588 22.4758C23.9516 22.3903 24.0809 22.3412 24.2242 22.3412C24.3672 22.3412 24.4965 22.3903 24.5893 22.4758C24.6784 22.5584 24.7334 22.6749 24.7334 22.8136V25.0107C25.1856 24.6592 25.739 24.45 26.2875 24.45C26.9895 24.45 27.5629 24.6987 27.9649 25.1171C28.3801 25.5492 28.6115 26.1619 28.6115 26.8685V29.3232C28.6115 29.4618 28.5564 29.5783 28.4673 29.661C28.3745 29.7464 28.2452 29.7956 28.1023 29.7956C27.9589 29.7956 27.8296 29.7464 27.7368 29.661C27.6477 29.5783 27.5927 29.4618 27.5927 29.3232V26.8685C27.5927 26.4412 27.4605 26.074 27.2075 25.8185C26.9682 25.5766 26.62 25.4339 26.1731 25.4339C25.7105 25.4339 25.3567 25.573 25.1157 25.8152C24.8627 26.0704 24.7338 26.4404 24.7338 26.8842V29.2845C24.7338 29.4256 24.6768 29.5533 24.5845 29.646C24.521 29.7097 24.4411 29.7565 24.3515 29.7795L24.3395 29.7827L24.3331 29.7839L24.327 29.7855L24.3206 29.7867L24.3146 29.7879L24.3082 29.7887L24.3018 29.7899L24.2953 29.7908L24.2893 29.7916L24.2765 29.7932L24.27 29.7936L24.2636 29.7944L24.2572 29.7948L24.2503 29.7952H24.2439L24.2375 29.7956H24.211L24.2046 29.7952H24.1981L24.1853 29.7944L24.1785 29.7936L24.172 29.7932L24.1656 29.7924L24.1596 29.7916L24.1467 29.7899L24.1403 29.7887L24.1343 29.7879L24.1279 29.7867L24.1218 29.7855L24.1154 29.7839L24.1094 29.7827L24.103 29.7811L24.0969 29.7795C24.0074 29.7565 23.9271 29.7093 23.864 29.646C23.7721 29.5533 23.7146 29.4252 23.7146 29.2845V22.8136Z" fill="black"/>
<path d="M50.3267 31.4297C50.0937 31.266 50.0648 30.9613 50.223 30.7343C50.3837 30.5038 50.6604 30.453 50.8933 30.609C51.3282 30.9 51.7394 31.0161 52.2582 31.0161C53.3385 31.0161 53.9276 30.1612 53.9276 29.1406C53.6059 29.5683 52.9738 29.796 52.3474 29.796C50.8061 29.796 49.805 28.6198 49.805 27.1228C49.805 25.5956 50.8186 24.4496 52.406 24.4496C53.9934 24.4496 54.9211 25.5299 54.9211 27.1228V29.1019C54.9211 30.9008 53.9079 32 52.2582 32C51.5575 32 50.9085 31.8376 50.3267 31.4297ZM52.3474 28.8121C53.4846 28.8121 53.922 28.2035 53.922 27.1228C53.922 26.1756 53.4023 25.4335 52.406 25.4335C51.394 25.4335 50.8238 26.1401 50.8238 27.1228C50.8238 28.0749 51.3161 28.8121 52.3474 28.8121Z" fill="black"/>
<path d="M55.5937 25.1772C55.5343 25.0498 55.5323 24.9099 55.5765 24.7874C55.6206 24.6653 55.7118 24.5597 55.8387 24.5C55.9656 24.4404 56.1045 24.4379 56.2266 24.4823C56.3487 24.527 56.4539 24.6181 56.5133 24.7455L58.2244 28.5243L59.9315 24.7459L59.9319 24.7447C59.9914 24.6177 60.0966 24.527 60.2183 24.4823C60.3403 24.4379 60.4793 24.4404 60.6062 24.5C60.7331 24.5593 60.8242 24.6653 60.8684 24.7874C60.9126 24.9099 60.9102 25.0498 60.8512 25.1772L58.4031 30.4288C58.3031 30.6445 58.1883 30.8484 58.0562 31.0354C57.9237 31.2229 57.7731 31.393 57.6016 31.5397C57.4329 31.684 57.2402 31.8029 57.0237 31.8803C56.8278 31.9508 56.6117 31.9875 56.3752 31.9794C56.235 31.9746 56.1126 31.9174 56.0254 31.8267C55.9379 31.7356 55.8857 31.6102 55.8857 31.4692V31.4671L55.8861 31.4563C55.8889 31.32 55.9407 31.1951 56.0254 31.1044C56.1105 31.0133 56.229 30.9564 56.3647 30.9564L56.376 30.9568C57.0446 30.9718 57.4137 30.193 57.6727 29.6465L57.6984 29.592L55.5937 25.1772Z" fill="black"/>
<path d="M24.8411 4.58133C26.5723 4.58133 28.14 5.28631 29.2745 6.42459C30.4089 7.56367 31.1105 9.13647 31.1105 10.8741V15.5647C31.1105 16.4809 30.4459 17.1552 29.5355 17.1669C27.9962 17.1669 26.3807 17.1669 24.8411 17.1673C23.1103 17.1673 21.5429 16.4627 20.4081 15.324C19.274 14.1854 18.5717 12.6118 18.5717 10.8741C18.5717 9.13687 19.274 7.56367 20.4081 6.42459C21.5429 5.28631 23.1103 4.58133 24.8411 4.58133ZM24.7656 14.4977H24.827C25.8052 14.4848 26.6899 14.0818 27.3328 13.4365C27.9862 12.7811 28.3902 11.8749 28.3902 10.8741C28.3902 9.87369 27.9862 8.96758 27.3328 8.31218C26.6799 7.65638 25.7771 7.25089 24.7804 7.25089C23.7833 7.25089 22.8806 7.65638 22.2276 8.31218C21.5742 8.96758 21.1703 9.87369 21.1703 10.8741C21.1703 11.8749 21.5742 12.7811 22.2276 13.4365C22.8774 14.089 23.7745 14.4937 24.7656 14.4977Z" fill="#13B2A4"/>
<path d="M46.033 5.95904C46.033 5.26172 46.596 4.77279 47.2907 4.77279C47.9855 4.77279 48.5485 5.26172 48.5485 5.95904V15.9428C48.5485 16.6397 47.9855 17.1286 47.2907 17.1286C46.596 17.1286 46.033 16.6397 46.033 15.9428V5.95904Z" fill="black"/>
<path d="M47.2907 3.18106C48.1659 3.18106 48.8754 2.46895 48.8754 1.59053C48.8754 0.712104 48.1659 0 47.2907 0C46.4156 0 45.7061 0.712104 45.7061 1.59053C45.7061 2.46895 46.4156 3.18106 47.2907 3.18106Z" fill="black"/>
<path d="M58.3662 9.09052C58.1666 7.85953 57.2474 7.14488 56.1053 7.14488C54.9709 7.14488 54.087 7.87646 53.9003 8.98894C53.8525 9.27311 53.8123 10.2227 53.8123 10.5101V15.9428C53.8123 16.6397 53.2493 17.1286 52.5546 17.1286C51.8599 17.1286 51.2969 16.6397 51.2969 15.9428V9.47626C51.2969 6.18073 53.4373 4.61963 56.1053 4.61963C57.4695 4.61963 58.9144 5.194 59.6484 6.50843C60.3825 5.194 61.8274 4.61963 63.1915 4.61963C65.8596 4.61963 68 6.18073 68 9.47626V15.9428C68 16.6397 67.437 17.1286 66.7423 17.1286C66.0475 17.1286 65.4845 16.6397 65.4845 15.9428V10.5101C65.4845 10.2227 65.4444 9.2727 65.3966 8.98894C65.2103 7.87686 64.326 7.14488 63.1915 7.14488C62.0495 7.14488 61.1306 7.85913 60.9303 9.09052C60.8785 9.41055 60.8989 9.83539 60.8989 10.1655C60.8989 12.0656 60.8989 14.0423 60.8989 15.9428C60.8989 16.6373 60.3395 17.1246 59.6484 17.1286C58.9573 17.1246 58.3979 16.6373 58.3979 15.9428C58.3979 14.0423 58.3979 12.0656 58.3979 10.1655C58.3979 9.83539 58.418 9.41015 58.3662 9.09052Z" fill="black"/>
<path d="M7.06934 9.09052C6.86975 7.85953 5.95055 7.14488 4.80806 7.14488C3.67361 7.14488 2.78934 7.87686 2.60301 8.98894C2.55563 9.2727 2.51547 10.2227 2.51547 10.5101V15.9428C2.51547 16.6397 1.95206 17.1286 1.25773 17.1286C0.563009 17.1286 0 16.6397 0 15.9428V9.47626C0 6.18073 2.1404 4.61963 4.80806 4.61963C6.17262 4.61963 7.61709 5.194 8.35157 6.50843C9.08565 5.194 10.5301 4.61963 11.8947 4.61963C14.5623 4.61963 16.7031 6.18073 16.7031 9.47626V15.9428C16.7031 16.6397 16.1397 17.1286 15.445 17.1286C14.7507 17.1286 14.1873 16.6397 14.1873 15.9428V10.5101C14.1873 10.2227 14.1475 9.27311 14.0997 8.98894C13.913 7.87646 13.0291 7.14488 11.8947 7.14488C10.7522 7.14488 9.83378 7.85913 9.6334 9.09052C9.58159 9.41055 9.60167 9.83539 9.60167 10.1655C9.60167 12.0656 9.60167 14.0423 9.60167 15.9428C9.60167 16.6373 9.04268 17.1246 8.35157 17.1286C7.66005 17.1246 7.10106 16.6373 7.10106 15.9428C7.10106 14.0423 7.10106 12.0656 7.10106 10.1655C7.10106 9.83539 7.12114 9.40975 7.06934 9.09052Z" fill="black"/>
<path d="M33.2754 6.8196C32.8441 6.27505 32.934 5.4822 33.4769 5.0493C34.0195 4.616 34.8094 4.70669 35.2407 5.25124L38.1609 8.94984L41.0201 5.25124C41.4518 4.70669 42.2417 4.616 42.7843 5.0493C43.3268 5.4822 43.4167 6.27505 42.9855 6.8196L39.7809 10.8515L43.0465 15.0818C43.4778 15.6268 43.3878 16.4196 42.8453 16.8525C42.3024 17.2854 41.5125 17.1947 41.0812 16.6502L38.0999 12.7524L35.1796 16.6502C34.7483 17.1947 33.9584 17.2854 33.4159 16.8525C32.8734 16.4196 32.783 15.6268 33.2143 15.0818L36.4799 10.8515L33.2754 6.8196Z" fill="black"/>
</svg>
