<svg width="249" height="249" viewBox="0 0 249 249" fill="none" xmlns="http://www.w3.org/2000/svg">
<path fill-rule="evenodd" clip-rule="evenodd" d="M225.841 120.595L225.951 127.678C225.973 127.891 225.976 128.106 225.959 128.32L225.332 135.817C228.387 137.492 231.447 139.305 234.512 141.255C238.162 143.579 241.77 146.071 245.336 148.729C245.96 149.13 246.444 149.71 246.721 150.39C246.999 151.071 247.057 151.819 246.887 152.533C245.955 156.54 244.702 160.562 243.466 164.538L242.957 166.205L242.949 166.198C242.738 166.902 242.307 167.524 241.716 167.973C241.126 168.423 240.406 168.677 239.66 168.701C235.265 168.826 230.932 168.8 226.658 168.622C223.141 168.474 219.698 168.234 216.327 167.902C215.716 169.154 215.058 170.375 214.4 171.596C213.868 172.582 213.335 173.576 212.983 174.265C212.936 174.367 212.895 174.46 212.841 174.554C211.761 176.55 210.547 178.382 209.333 180.205L208.722 181.144C210.681 184.095 212.55 187.139 214.329 190.278C216.491 194.081 218.512 197.994 220.439 202.041C220.755 202.664 220.88 203.364 220.8 204.056C220.719 204.748 220.436 205.402 219.985 205.938C217.298 209.1 214.384 212.02 211.463 214.939C211.408 215.001 211.345 215.064 211.29 215.126L210.155 216.253C209.632 216.775 208.956 217.121 208.222 217.242C207.487 217.363 206.733 217.252 206.066 216.926C202.103 214.97 198.247 212.906 194.498 210.736C191.561 209.029 188.663 207.237 185.804 205.359C184.652 206.222 183.509 206.995 182.365 207.769C181.425 208.411 180.485 209.053 179.812 209.53C179.737 209.59 179.659 209.645 179.577 209.695C177.618 210.963 175.717 212.011 173.82 213.061L172.919 213.562C173.287 217.045 173.532 220.616 173.655 224.276C173.812 228.627 173.787 233.034 173.608 237.511C173.609 238.215 173.397 238.903 173 239.488C172.602 240.073 172.037 240.529 171.376 240.798C167.467 242.363 163.543 243.584 159.635 244.797L157.873 245.345C157.164 245.565 156.402 245.559 155.697 245.328C154.992 245.097 154.379 244.652 153.946 244.057C151.377 240.543 148.944 236.964 146.646 233.319C144.798 230.392 143.041 227.421 141.375 224.405C139.981 224.632 138.612 224.772 137.24 224.923C136.221 225.032 135.211 225.142 134.177 225.283C134.099 225.298 134.013 225.314 133.934 225.322C131.666 225.559 129.385 225.658 127.105 225.619C126.783 225.627 126.462 225.627 126.133 225.627C124.802 229.016 123.361 232.28 121.81 235.488C119.883 239.464 117.807 243.33 115.575 247.212C115.255 247.777 114.781 248.243 114.207 248.558C113.633 248.873 112.981 249.025 112.325 248.997C108.691 248.824 105.315 248.159 101.939 247.494C100.623 247.235 99.3152 246.976 98.1086 246.766C97.3749 246.636 96.7005 246.285 96.1796 245.76C95.6588 245.235 95.3173 244.564 95.2029 243.839C94.5293 239.691 94.0358 235.488 93.7069 231.348C93.4249 227.809 93.2604 224.21 93.1806 220.61C90.856 219.859 88.6223 218.935 86.3977 218.021L86.3271 217.99L86.2394 217.958C83.7643 217.031 81.3611 215.927 79.0491 214.656C76.3079 217.019 73.5114 219.242 70.6448 221.363C67.0812 224.001 63.4233 226.474 59.64 228.838V228.822C59.0853 229.167 58.4433 229.352 57.787 229.356C57.1307 229.361 56.4864 229.184 55.9273 228.845C52.3089 226.645 49.1366 224.087 45.98 221.528C45.6291 221.246 45.2905 220.972 44.3664 220.228C43.8011 219.768 43.3897 219.15 43.1858 218.457C42.9819 217.763 42.9948 217.025 43.223 216.338C44.5388 212.411 46.0506 208.496 47.6966 204.677C49.13 201.335 50.6729 198.041 52.2629 194.847C50.5962 193.133 49.0515 191.294 47.5006 189.462L47.4129 189.361L47.3423 189.282C45.6008 187.311 43.9993 185.225 42.5489 183.037C39.0713 183.851 35.5546 184.524 31.9674 185.088C27.5419 185.778 23.1714 186.278 18.7617 186.63C18.1002 186.68 17.4376 186.547 16.8491 186.245C16.2606 185.944 15.77 185.486 15.4328 184.923C13.3416 181.449 11.7925 177.856 10.2477 174.264C9.6995 172.997 9.2688 171.987 9.22187 171.878H9.22977C8.9385 171.214 8.85895 170.48 9.00166 169.771C9.14438 169.062 9.50262 168.413 10.0289 167.909C13.06 165.006 16.2324 162.236 19.4433 159.621C22.2709 157.32 25.145 155.129 27.9884 153.07C27.2599 150.654 26.7433 148.242 26.2341 145.831L26.2104 145.721C25.5871 143.206 25.1448 140.651 24.8867 138.075C21.3779 137.167 17.9423 136.136 14.5797 134.983C10.5488 133.604 6.48783 132.027 2.39692 130.253C1.73559 130.007 1.16287 129.574 0.750462 129.009C0.338059 128.443 0.104316 127.771 0.0785083 127.076C0.0236841 125.972 0 124.875 0 123.773V123.546C0 122.295 0.0311402 121.05 0.0877188 119.805C0.189473 117.432 0.377629 115.101 0.620172 112.793C0.663383 112.063 0.934997 111.364 1.39775 110.792C1.8605 110.221 2.49172 109.804 3.20481 109.599C7.30127 108.433 11.489 107.416 15.7679 106.547C19.1515 105.858 22.569 105.271 26.0205 104.786C26.4468 102.249 27.0486 99.744 27.8218 97.2881C28.5187 94.8619 29.2161 92.4358 30.1244 90.0174C27.438 87.552 24.767 84.9382 22.1665 82.2065C19.2841 79.1857 16.4881 76.0001 13.8486 72.666C13.3699 72.131 13.0641 71.4678 12.9704 70.761C12.8766 70.0542 12.9991 69.3359 13.3223 68.698C14.3797 66.5834 15.492 64.4797 16.6824 62.3897C17.8337 60.3783 19.0635 58.3824 20.4341 56.4103C20.8055 55.774 21.3729 55.2703 22.0543 54.9721C22.7357 54.6738 23.4958 54.5964 24.2249 54.751C28.431 55.6512 32.6134 56.6929 36.8037 57.9129C40.148 58.8834 43.43 59.9476 46.6721 61.1141C48.223 59.0619 49.9302 57.1288 51.7791 55.3314L52.4212 54.666V54.6582C53.9642 53.0693 55.4992 51.4807 57.1913 49.9859C55.9304 46.5266 54.7791 43.0126 53.7606 39.467C52.6014 35.4131 51.5988 31.257 50.7922 27.0309C50.6247 26.3482 50.6653 25.6321 50.9091 24.972C51.1529 24.3119 51.589 23.7372 52.1628 23.3196C54.0115 21.9736 55.9694 20.6272 58.0997 19.2657C60.1203 17.9745 62.1645 16.7692 64.2246 15.6813C64.8529 15.3088 65.5837 15.1386 66.315 15.1947C67.0463 15.2508 67.7416 15.5303 68.3035 15.9942C71.6167 18.7414 74.8434 21.6042 77.9921 24.625C80.4985 27.0356 82.9162 29.5062 85.2451 32.0368C87.5885 30.9477 90.0067 30.0219 92.4819 29.2663C94.8472 28.4601 97.2187 27.6618 99.7187 27.0434C100.22 23.4745 100.854 19.8366 101.622 16.1646C102.499 11.9934 103.564 7.79834 104.817 3.68142C104.999 3.0108 105.379 2.40825 105.909 1.94992C106.438 1.49159 107.094 1.19806 107.794 1.10641C110.313 0.788799 112.795 0.473773 114.871 0.295546C117.219 0.078008 119.577 -0.0186454 121.936 0.00598162C122.683 -0.0371633 123.426 0.153938 124.056 0.551843C124.687 0.949748 125.173 1.53399 125.444 2.22066C127.073 6.20422 128.577 10.1956 129.962 14.3202C131.066 17.5999 132.061 20.9021 132.954 24.2677L133.737 24.3225C136 24.4399 138.252 24.6993 140.481 25.0993C140.536 25.1071 140.583 25.1148 140.63 25.1226C141.46 25.2952 142.627 25.4985 143.794 25.694C145.22 25.9365 146.638 26.1872 148.086 26.5139C150.17 23.6024 152.386 20.7145 154.736 17.8502C157.517 14.4691 160.438 11.1821 163.493 8.05165C163.986 7.54291 164.625 7.19457 165.325 7.05327C166.025 6.91198 166.752 6.98448 167.409 7.26107C168.467 7.70728 169.909 8.27087 171.349 8.83404C174.451 10.0549 177.56 11.2679 180.607 12.9743C181.21 13.313 181.702 13.8157 182.023 14.4222C182.344 15.0287 182.48 15.7134 182.416 16.3942C182.001 20.8162 181.451 25.1114 180.771 29.3155C180.216 32.712 179.558 36.0878 178.798 39.4429L179.409 39.8343C181.241 41.0081 183.059 42.1745 184.907 43.5283C185.016 43.6064 185.126 43.6849 185.236 43.7786C186.309 44.6628 187.03 45.2264 187.742 45.7822C188.878 46.6742 190.014 47.5589 191.119 48.5057C194.315 46.9168 197.644 45.3831 201.076 43.943C205.125 42.2367 209.237 40.687 213.349 39.341H213.357C214.039 39.1213 214.773 39.1122 215.461 39.3151C216.148 39.518 216.756 39.9231 217.203 40.476C217.948 41.3822 219.02 42.6203 220.093 43.8494C222.299 46.2682 224.33 48.8363 226.171 51.5347C226.565 52.1159 226.78 52.7973 226.788 53.4961C226.796 54.1949 226.598 54.8811 226.218 55.4712C223.829 59.1419 221.362 62.687 218.769 66.1463C216.693 68.9168 214.542 71.6143 212.315 74.239C212.48 74.5285 212.644 74.8103 212.801 75.0844C213.89 76.9784 214.986 78.8819 215.895 80.8053C215.942 80.8849 215.981 80.9687 216.012 81.0556C216.427 82.0572 216.905 83.0903 217.375 84.1312C217.945 85.3991 218.526 86.667 219.051 87.9663C222.717 88.0367 226.376 88.2253 229.985 88.5299C234.27 88.8898 238.617 89.4301 242.972 90.1655C243.685 90.2901 244.342 90.6234 244.86 91.1218C245.377 91.6203 245.729 92.2607 245.87 92.9593C246.089 94.0381 246.449 95.542 246.802 97.0524C247.631 100.252 248.243 103.502 248.635 106.781C248.758 107.499 248.654 108.238 248.338 108.897C248.021 109.556 247.507 110.104 246.865 110.467C243.05 112.604 239.189 114.597 235.281 116.446C232.139 117.934 228.993 119.317 225.841 120.595Z" fill="#1BD9C4"/>
</svg>
