<svg width="201" height="200" viewBox="0 0 201 200" fill="none" xmlns="http://www.w3.org/2000/svg">
<path fill-rule="evenodd" clip-rule="evenodd" d="M182.399 96.8636L182.487 102.553C182.505 102.724 182.507 102.896 182.493 103.068L181.99 109.09C184.443 110.436 186.901 111.891 189.363 113.458C192.295 115.325 195.193 117.326 198.057 119.461C198.558 119.783 198.947 120.249 199.17 120.795C199.393 121.342 199.439 121.943 199.303 122.516C198.554 125.735 197.548 128.966 196.555 132.159L196.146 133.498L196.14 133.492C195.971 134.058 195.624 134.557 195.15 134.918C194.675 135.279 194.097 135.484 193.498 135.502C189.968 135.603 186.487 135.582 183.055 135.44C180.23 135.32 177.464 135.127 174.756 134.861C174.266 135.866 173.737 136.848 173.209 137.828C172.781 138.62 172.353 139.419 172.07 139.972C172.033 140.054 172 140.129 171.957 140.204C171.089 141.807 170.114 143.278 169.139 144.743L168.648 145.497C170.221 147.867 171.723 150.313 173.152 152.833C174.889 155.889 176.512 159.032 178.059 162.282C178.313 162.782 178.414 163.344 178.349 163.9C178.284 164.456 178.057 164.981 177.695 165.412C175.537 167.952 173.196 170.297 170.85 172.641C170.806 172.692 170.755 172.742 170.711 172.792L169.799 173.697C169.38 174.116 168.836 174.394 168.246 174.491C167.656 174.589 167.051 174.5 166.515 174.238C163.332 172.667 160.235 171.009 157.223 169.266C154.864 167.895 152.536 166.455 150.24 164.947C149.315 165.64 148.397 166.261 147.478 166.883C146.723 167.398 145.968 167.914 145.427 168.298C145.367 168.346 145.304 168.39 145.238 168.43C143.665 169.448 142.138 170.29 140.614 171.133L139.891 171.536C140.186 174.333 140.383 177.202 140.482 180.142C140.608 183.637 140.588 187.176 140.444 190.772C140.445 191.337 140.275 191.89 139.955 192.36C139.636 192.83 139.182 193.196 138.651 193.412C135.512 194.669 132.36 195.65 129.221 196.624L127.805 197.064C127.236 197.241 126.624 197.236 126.058 197.051C125.491 196.865 124.999 196.507 124.652 196.03C122.588 193.207 120.634 190.332 118.788 187.405C117.304 185.054 115.892 182.667 114.554 180.245C113.434 180.427 112.335 180.54 111.233 180.661C110.415 180.749 109.603 180.837 108.773 180.95C108.71 180.962 108.641 180.975 108.578 180.981C106.756 181.172 104.924 181.252 103.092 181.22C102.834 181.226 102.576 181.226 102.312 181.226C101.242 183.948 100.085 186.57 98.8392 189.147C97.2916 192.34 95.6243 195.446 93.8315 198.564C93.5742 199.018 93.1937 199.392 92.7327 199.645C92.2717 199.898 91.7481 200.02 91.2207 199.997C88.3017 199.859 85.5901 199.325 82.8786 198.79C81.8218 198.582 80.7712 198.374 79.8021 198.206C79.2128 198.102 78.6711 197.819 78.2527 197.398C77.8344 196.976 77.5601 196.437 77.4682 195.855C76.9271 192.523 76.5308 189.147 76.2666 185.822C76.0401 182.979 75.908 180.089 75.8438 177.197C73.9767 176.594 72.1826 175.852 70.3958 175.117L70.3391 175.092L70.2686 175.067C68.2805 174.322 66.3503 173.435 64.4932 172.414C62.2915 174.313 60.0453 176.098 57.7428 177.802C54.8805 179.92 51.9424 181.907 48.9036 183.805V183.793C48.4581 184.07 47.9424 184.219 47.4153 184.222C46.8881 184.225 46.3706 184.083 45.9215 183.812C43.0152 182.044 40.4671 179.99 37.9317 177.934C37.6499 177.708 37.3779 177.487 36.6357 176.89C36.1816 176.52 35.8512 176.024 35.6874 175.467C35.5236 174.91 35.534 174.317 35.7173 173.766C36.7741 170.612 37.9884 167.467 39.3106 164.399C40.4618 161.715 41.7012 159.069 42.9782 156.504C41.6395 155.127 40.3988 153.65 39.1531 152.179L39.0826 152.097L39.0259 152.034C37.6272 150.451 36.3408 148.775 35.1758 147.018C32.3825 147.672 29.5579 148.212 26.6766 148.665C23.122 149.22 19.6115 149.621 16.0697 149.903C15.5383 149.944 15.0061 149.837 14.5334 149.595C14.0608 149.352 13.6666 148.985 13.3958 148.533C11.7161 145.742 10.4719 142.856 9.23112 139.971C8.79077 138.953 8.44482 138.142 8.40713 138.054H8.41347C8.17952 137.522 8.11562 136.932 8.23025 136.362C8.34488 135.793 8.63262 135.272 9.05533 134.867C11.49 132.535 14.038 130.31 16.6171 128.21C18.8883 126.362 21.1968 124.602 23.4807 122.948C22.8955 121.007 22.4805 119.069 22.0715 117.133L22.0525 117.045C21.5519 115.025 21.1966 112.973 20.9893 110.903C18.171 110.174 15.4115 109.346 12.7106 108.42C9.47291 107.312 6.21111 106.046 2.92523 104.621C2.39405 104.423 1.93403 104.075 1.60278 103.621C1.27153 103.167 1.08379 102.627 1.06306 102.069C1.01902 101.183 1 100.301 1 99.4161V99.2338C1 98.2286 1.02501 97.2286 1.07046 96.229C1.15219 94.3225 1.30332 92.4508 1.49813 90.5964C1.53284 90.0103 1.751 89.4492 2.12269 88.9899C2.49438 88.5307 3.00138 88.1959 3.57414 88.0314C6.86448 87.0948 10.2281 86.2776 13.665 85.5798C16.3827 85.0266 19.1277 84.555 21.9 84.1652C22.2424 82.1277 22.7258 80.1157 23.3468 78.143C23.9066 76.1943 24.4667 74.2456 25.1963 72.3032C23.0385 70.3229 20.8931 68.2234 18.8044 66.0293C16.4892 63.603 14.2434 61.0443 12.1234 58.3663C11.7389 57.9366 11.4933 57.4038 11.418 56.8361C11.3427 56.2684 11.4411 55.6915 11.7006 55.1791C12.55 53.4807 13.4434 51.7909 14.3995 50.1122C15.3242 48.4966 16.312 46.8935 17.4129 45.3094C17.7113 44.7984 18.167 44.3938 18.7143 44.1543C19.2616 43.9147 19.8721 43.8525 20.4577 43.9767C23.8361 44.6997 27.1955 45.5365 30.5612 46.5164C33.2474 47.2959 35.8835 48.1507 38.4876 49.0876C39.7333 47.4393 41.1046 45.8866 42.5896 44.4429L43.1054 43.9084V43.9022C44.3447 42.6259 45.5777 41.35 46.9368 40.1493C45.924 37.3708 44.9992 34.5483 44.1812 31.7004C43.2502 28.4443 42.4448 25.106 41.797 21.7115C41.6624 21.1632 41.695 20.588 41.8908 20.0578C42.0866 19.5277 42.4369 19.066 42.8979 18.7306C44.3827 17.6495 45.9553 16.568 47.6664 15.4745C49.2894 14.4374 50.9314 13.4693 52.586 12.5954C53.0907 12.2962 53.6777 12.1596 54.2651 12.2046C54.8525 12.2497 55.4109 12.4742 55.8623 12.8467C58.5234 15.0533 61.1152 17.3528 63.6442 19.7791C65.6574 21.7154 67.5993 23.6998 69.47 25.7323C71.3522 24.8576 73.2945 24.114 75.2827 23.507C77.1825 22.8595 79.0873 22.2183 81.0953 21.7216C81.498 18.855 82.0074 15.933 82.6239 12.9836C83.3285 9.63322 84.1842 6.26372 85.1907 2.95697C85.3367 2.41831 85.6417 1.93433 86.0672 1.5662C86.4927 1.19807 87.0196 0.962297 87.5813 0.888686C89.6044 0.633573 91.5987 0.380541 93.2657 0.237387C95.1518 0.062657 97.046 -0.0149762 98.9403 0.00480452C99.5409 -0.02985 100.137 0.123645 100.643 0.443248C101.15 0.76285 101.54 1.23212 101.759 1.78366C103.067 4.98331 104.275 8.1892 105.387 11.5022C106.274 14.1365 107.073 16.7888 107.79 19.4921L108.42 19.5362C110.237 19.6304 112.046 19.8388 113.836 20.1601C113.88 20.1663 113.918 20.1725 113.956 20.1788C114.623 20.3174 115.56 20.4807 116.497 20.6377C117.642 20.8325 118.781 21.0339 119.945 21.2963C121.618 18.9578 123.399 16.6382 125.286 14.3375C127.52 11.6218 129.866 8.98157 132.32 6.46719C132.716 6.05856 133.229 5.77877 133.791 5.66528C134.354 5.55179 134.938 5.61002 135.465 5.83218C136.314 6.19059 137.473 6.64327 138.63 7.09561C141.121 8.0762 143.618 9.05055 146.066 10.4211C146.551 10.6932 146.946 11.097 147.203 11.5841C147.461 12.0713 147.571 12.6212 147.519 13.168C147.185 16.7199 146.744 20.1698 146.198 23.5465C145.752 26.2747 145.223 28.9862 144.613 31.681L145.103 31.9954C146.575 32.9382 148.035 33.8751 149.52 34.9625C149.608 35.0252 149.696 35.0883 149.784 35.1635C150.646 35.8737 151.225 36.3264 151.797 36.7729C152.709 37.4893 153.622 38.1999 154.51 38.9604C157.076 37.6841 159.75 36.4523 162.506 35.2956C165.759 33.925 169.062 32.6803 172.365 31.5992H172.371C172.919 31.4227 173.509 31.4154 174.061 31.5784C174.613 31.7414 175.101 32.0668 175.46 32.5108C176.059 33.2387 176.919 34.2332 177.782 35.2204C179.553 37.1632 181.185 39.2259 182.663 41.3933C182.98 41.8602 183.152 42.4075 183.159 42.9688C183.166 43.53 183.007 44.0812 182.701 44.5552C180.782 47.5035 178.801 50.351 176.718 53.1295C175.051 55.3548 173.323 57.5216 171.534 59.6297C171.667 59.8623 171.799 60.0886 171.924 60.3087C172.799 61.83 173.68 63.359 174.409 64.9039C174.447 64.9678 174.479 65.0351 174.504 65.1049C174.837 65.9094 175.221 66.7392 175.598 67.5753C176.056 68.5936 176.523 69.612 176.945 70.6557C179.889 70.7122 182.828 70.8637 185.727 71.1084C189.168 71.3974 192.66 71.8314 196.158 72.4221C196.731 72.5221 197.259 72.7899 197.674 73.1902C198.09 73.5906 198.373 74.105 198.486 74.6661C198.662 75.5326 198.951 76.7406 199.235 77.9538C199.901 80.5235 200.392 83.1338 200.707 85.7676C200.805 86.345 200.722 86.9382 200.468 87.4675C200.214 87.9968 199.801 88.4369 199.285 88.7285C196.221 90.4447 193.12 92.0456 189.98 93.5312C187.457 94.7261 184.93 95.8369 182.399 96.8636Z" fill="#1BD9C4"/>
<path fill-rule="evenodd" clip-rule="evenodd" d="M133.82 164.444H165.783V118.479H133.82V164.444Z" fill="black"/>
<path fill-rule="evenodd" clip-rule="evenodd" d="M165.783 164.444H185.998V118.479H165.783V164.444Z" fill="black"/>
<path d="M166.173 118.479V164.443H165.395V118.479H166.173Z" fill="#1BD9C4"/>
<path d="M165.783 128.512H186.008V129.277H165.783V128.512Z" fill="#1BD9C4"/>
<path d="M165.783 138.173H186.008V138.935H165.783V138.173Z" fill="#1BD9C4"/>
<path fill-rule="evenodd" clip-rule="evenodd" d="M155.047 118.506H159.634V92.5658H155.047V118.506Z" fill="black"/>
<path fill-rule="evenodd" clip-rule="evenodd" d="M26.9594 164.443H29.8985V92.5387H26.9594V164.443Z" fill="black"/>
<path d="M27.3483 164.062H29.5096V92.921H27.3483V164.062ZM29.8985 164.826H26.958C26.8555 164.826 26.7572 164.785 26.6847 164.714C26.6122 164.643 26.5711 164.546 26.5705 164.445V92.5375C26.5723 92.437 26.6137 92.3412 26.686 92.2701C26.7583 92.199 26.8558 92.1582 26.958 92.1564H29.8972C29.9994 92.1582 30.0968 92.199 30.1691 92.2701C30.2414 92.3412 30.2828 92.437 30.2846 92.5375V164.443C30.2847 164.544 30.2442 164.641 30.1719 164.713C30.0995 164.785 30.0013 164.826 29.8985 164.826Z" fill="black"/>
<path d="M80.4687 84.1993H77.6859C76.1081 84.1957 74.596 83.5778 73.4798 82.4806C72.3637 81.3834 71.7342 79.8959 71.7291 78.3435V69.7186H72.5069V78.3432C72.5139 79.6921 73.0619 80.9839 74.0316 81.9373C75.0014 82.8908 76.3146 83.4288 77.6856 83.4347H80.4684L80.4687 84.1993Z" fill="black"/>
<path fill-rule="evenodd" clip-rule="evenodd" d="M51.4425 87.6515H76.5484V83.8136H51.4425V87.6515Z" fill="black"/>
<path fill-rule="evenodd" clip-rule="evenodd" d="M118.095 90.5579H131.134V75.0527H118.095V90.5579Z" fill="black"/>
<path fill-rule="evenodd" clip-rule="evenodd" d="M95.9858 40.4631H153.232C153.813 40.4648 154.369 40.6924 154.78 41.0962C155.191 41.5001 155.423 42.0474 155.425 42.6188V74.6683C155.423 75.2397 155.191 75.7873 154.78 76.1912C154.37 76.5952 153.813 76.8229 153.232 76.8246H95.9858C95.405 76.8229 94.8487 76.5951 94.438 76.1912C94.0273 75.7872 93.7956 75.2397 93.7936 74.6683V42.6191C93.7957 42.0477 94.0273 41.5004 94.438 41.0965C94.8487 40.6925 95.4051 40.4649 95.9858 40.4631Z" fill="black"/>
<path fill-rule="evenodd" clip-rule="evenodd" d="M96.8723 73.7887H152.34V43.4899H96.8723V73.7887Z" fill="#1BD9C4"/>
<path fill-rule="evenodd" clip-rule="evenodd" d="M54.6381 87.6526H67.6769V75.0531H54.6381V87.6526Z" fill="black"/>
<path fill-rule="evenodd" clip-rule="evenodd" d="M111.308 155.94H101.536L90.4332 160.879V164.441H111.308V155.94Z" fill="white"/>
<path d="M110.921 156.324H101.615L90.8225 161.125V164.061H110.921V156.324ZM101.537 155.559H111.31C111.361 155.559 111.411 155.569 111.459 155.588C111.506 155.607 111.549 155.635 111.585 155.67C111.621 155.706 111.65 155.748 111.669 155.794C111.688 155.841 111.698 155.89 111.697 155.94V164.443C111.698 164.493 111.688 164.542 111.669 164.589C111.65 164.635 111.621 164.678 111.585 164.713C111.549 164.749 111.506 164.777 111.459 164.796C111.411 164.815 111.361 164.824 111.31 164.824H90.4341C90.3315 164.823 90.2332 164.783 90.1606 164.711C90.0881 164.64 90.0469 164.544 90.0464 164.443V160.879C90.0462 160.805 90.0682 160.733 90.1097 160.672C90.1512 160.61 90.2104 160.563 90.2796 160.534L101.352 155.602C101.408 155.572 101.472 155.557 101.537 155.558V155.559Z" fill="black"/>
<path fill-rule="evenodd" clip-rule="evenodd" d="M64.1123 87.6512H76.5448V82.2996L66.1489 83.9054L64.1123 87.6512Z" fill="white"/>
<path d="M146.989 48.7124C147.092 48.7124 147.191 48.7526 147.263 48.8243C147.336 48.8959 147.377 48.9932 147.377 49.0946C147.377 49.1959 147.336 49.2932 147.263 49.3649C147.191 49.4365 147.092 49.4767 146.989 49.4767H134.184C134.081 49.4767 133.982 49.4365 133.909 49.3649C133.836 49.2932 133.795 49.1959 133.795 49.0946C133.795 48.9932 133.836 48.8959 133.909 48.8243C133.982 48.7526 134.081 48.7124 134.184 48.7124H146.989Z" fill="white"/>
<path d="M125.994 48.7124C126.097 48.7124 126.196 48.7526 126.268 48.8243C126.341 48.8959 126.382 48.9932 126.382 49.0946C126.382 49.1959 126.341 49.2932 126.268 49.3649C126.196 49.4365 126.097 49.4767 125.994 49.4767H122.247C122.144 49.4767 122.045 49.4365 121.972 49.3649C121.899 49.2932 121.858 49.1959 121.858 49.0946C121.858 48.9932 121.899 48.8959 121.972 48.8243C122.045 48.7526 122.144 48.7124 122.247 48.7124H125.994Z" fill="white"/>
<path d="M109.644 48.7124C109.747 48.7124 109.846 48.7526 109.919 48.8243C109.991 48.8959 110.032 48.9932 110.032 49.0946C110.032 49.1959 109.991 49.2932 109.919 49.3649C109.846 49.4365 109.747 49.4767 109.644 49.4767H101.287C101.184 49.4767 101.085 49.4365 101.012 49.3649C100.939 49.2932 100.898 49.1959 100.898 49.0946C100.898 48.9932 100.939 48.8959 101.012 48.8243C101.085 48.7526 101.184 48.7124 101.287 48.7124H109.644Z" fill="white"/>
<path d="M146.99 51.9225C147.093 51.9225 147.191 51.9628 147.264 52.0345C147.337 52.1062 147.378 52.2034 147.378 52.3048C147.378 52.4062 147.337 52.5034 147.264 52.5751C147.191 52.6468 147.093 52.6871 146.99 52.6871H141.156C141.053 52.6871 140.954 52.6468 140.881 52.5751C140.808 52.5034 140.767 52.4062 140.767 52.3048C140.767 52.2034 140.808 52.1062 140.881 52.0345C140.954 51.9628 141.053 51.9225 141.156 51.9225H146.99Z" fill="white"/>
<path d="M103.505 51.9225C103.608 51.9225 103.707 51.9628 103.779 52.0345C103.852 52.1062 103.893 52.2034 103.893 52.3048C103.893 52.4062 103.852 52.5034 103.779 52.5751C103.707 52.6468 103.608 52.6871 103.505 52.6871H101.289C101.186 52.6871 101.087 52.6468 101.015 52.5751C100.942 52.5034 100.901 52.4062 100.901 52.3048C100.901 52.2034 100.942 52.1062 101.015 52.0345C101.087 51.9628 101.186 51.9225 101.289 51.9225H103.505Z" fill="white"/>
<path d="M132.338 51.9225C132.441 51.9225 132.54 51.9628 132.613 52.0345C132.686 52.1062 132.727 52.2034 132.727 52.3048C132.727 52.4062 132.686 52.5034 132.613 52.5751C132.54 52.6468 132.441 52.6871 132.338 52.6871H128.591C128.488 52.6871 128.389 52.6468 128.316 52.5751C128.244 52.5034 128.202 52.4062 128.202 52.3048C128.202 52.2034 128.244 52.1062 128.316 52.0345C128.389 51.9628 128.488 51.9225 128.591 51.9225H132.338Z" fill="white"/>
<path d="M125.614 51.9225C125.717 51.9225 125.816 51.9628 125.889 52.0345C125.962 52.1062 126.003 52.2034 126.003 52.3048C126.003 52.4062 125.962 52.5034 125.889 52.5751C125.816 52.6468 125.717 52.6871 125.614 52.6871H119.192C119.089 52.6871 118.99 52.6468 118.917 52.5751C118.844 52.5034 118.803 52.4062 118.803 52.3048C118.803 52.2034 118.844 52.1062 118.917 52.0345C118.99 51.9628 119.089 51.9225 119.192 51.9225H125.614Z" fill="white"/>
<path d="M146.989 55.1779C147.092 55.1779 147.19 55.2181 147.263 55.2896C147.335 55.3611 147.376 55.4581 147.376 55.5592C147.376 55.6603 147.335 55.7573 147.263 55.8288C147.19 55.9003 147.092 55.9405 146.989 55.9405H134.184C134.133 55.9405 134.082 55.9305 134.035 55.9114C133.988 55.8922 133.946 55.8642 133.91 55.8288C133.874 55.7934 133.845 55.7513 133.825 55.7051C133.806 55.6588 133.796 55.6092 133.796 55.5592C133.796 55.5091 133.806 55.4595 133.825 55.4133C133.845 55.367 133.874 55.325 133.91 55.2896C133.946 55.2542 133.988 55.226 134.035 55.2068C134.082 55.1876 134.133 55.1779 134.184 55.1779H146.989Z" fill="white"/>
<path d="M146.893 61.6666C146.996 61.6669 147.094 61.7071 147.167 61.7785C147.24 61.8499 147.282 61.9467 147.282 62.0479C147.283 62.0982 147.273 62.1482 147.253 62.1947C147.234 62.2412 147.205 62.2834 147.169 62.3189C147.133 62.3544 147.09 62.3824 147.042 62.4013C146.995 62.4203 146.944 62.4298 146.893 62.4293H137.743C137.64 62.429 137.541 62.3888 137.469 62.3174C137.396 62.246 137.354 62.1491 137.354 62.0479C137.356 61.9472 137.397 61.8511 137.47 61.78C137.543 61.7089 137.641 61.6683 137.743 61.6666H146.893Z" fill="white"/>
<path d="M146.891 65.1283C146.995 65.1283 147.093 65.1686 147.166 65.2403C147.239 65.3121 147.28 65.4094 147.28 65.5108C147.28 65.6122 147.239 65.7095 147.166 65.7813C147.093 65.853 146.995 65.8933 146.891 65.8933H144.07C143.967 65.8933 143.868 65.853 143.795 65.7813C143.722 65.7095 143.682 65.6122 143.682 65.5108C143.682 65.4094 143.722 65.3121 143.795 65.2403C143.868 65.1686 143.967 65.1283 144.07 65.1283H146.891Z" fill="white"/>
<path d="M140.576 65.1283C140.679 65.1283 140.778 65.1686 140.851 65.2403C140.924 65.3121 140.965 65.4094 140.965 65.5108C140.965 65.6122 140.924 65.7095 140.851 65.7813C140.778 65.853 140.679 65.8933 140.576 65.8933H137.745C137.642 65.8933 137.544 65.853 137.471 65.7813C137.398 65.7095 137.356 65.6122 137.356 65.5108C137.356 65.4094 137.398 65.3121 137.471 65.2403C137.544 65.1686 137.642 65.1283 137.745 65.1283H140.576Z" fill="white"/>
<path d="M134.396 65.1283C134.499 65.1283 134.598 65.1686 134.67 65.2403C134.743 65.3121 134.784 65.4094 134.784 65.5108C134.784 65.6122 134.743 65.7095 134.67 65.7813C134.598 65.853 134.499 65.8933 134.396 65.8933H124.117C124.014 65.8933 123.915 65.853 123.842 65.7813C123.769 65.7095 123.728 65.6122 123.728 65.5108C123.728 65.4094 123.769 65.3121 123.842 65.2403C123.915 65.1686 124.014 65.1283 124.117 65.1283H134.396Z" fill="white"/>
<path fill-rule="evenodd" clip-rule="evenodd" d="M47.5937 92.5742H171.218V87.6504H47.5937V92.5742Z" fill="white"/>
<path d="M47.983 92.1915H170.83V88.032H47.983V92.1915ZM171.219 92.9561H47.2052V87.2677H171.607V92.9558L171.219 92.9561Z" fill="black"/>
<path fill-rule="evenodd" clip-rule="evenodd" d="M14.5502 92.5742H47.6723V87.6504H14.5502V92.5742Z" fill="white"/>
<path d="M14.9391 92.1915H47.2833V88.032H14.9391V92.1915ZM47.6722 92.9561H14.1616V87.2677H48.0612V92.9558L47.6722 92.9561Z" fill="black"/>
<path fill-rule="evenodd" clip-rule="evenodd" d="M32.5396 40.4631H89.7858C90.3665 40.4648 90.923 40.6924 91.3338 41.0962C91.7447 41.5001 91.9765 42.0474 91.9787 42.6188V74.6683C91.9766 75.2397 91.7448 75.7873 91.334 76.1912C90.9231 76.5952 90.3666 76.8229 89.7858 76.8246H32.5396C31.9588 76.8228 31.4023 76.595 30.9915 76.1911C30.5808 75.7871 30.3491 75.2397 30.3469 74.6683V42.6191C30.3491 42.0477 30.5808 41.5004 30.9915 41.0965C31.4023 40.6926 31.9589 40.4649 32.5396 40.4631Z" fill="black"/>
<path fill-rule="evenodd" clip-rule="evenodd" d="M33.4249 73.7887H88.9002V43.4899H33.4249V73.7887Z" fill="white"/>
<path fill-rule="evenodd" clip-rule="evenodd" d="M125.542 164.443H128.473V92.5387H125.542V164.443Z" fill="black"/>
<path d="M125.932 164.062H128.085V92.921H125.932V164.062ZM128.475 164.826H125.543C125.492 164.827 125.441 164.817 125.394 164.798C125.347 164.779 125.304 164.751 125.268 164.715C125.232 164.68 125.203 164.638 125.184 164.592C125.164 164.545 125.155 164.495 125.155 164.445V92.5375C125.155 92.4364 125.196 92.3396 125.269 92.2681C125.341 92.1966 125.44 92.1564 125.543 92.1564H128.475C128.578 92.157 128.676 92.1974 128.748 92.2688C128.821 92.3401 128.862 92.4366 128.863 92.5375V164.443C128.863 164.493 128.854 164.543 128.834 164.589C128.815 164.636 128.787 164.679 128.751 164.714C128.714 164.75 128.672 164.778 128.624 164.798C128.577 164.817 128.526 164.827 128.475 164.826Z" fill="black"/>
<path fill-rule="evenodd" clip-rule="evenodd" d="M102.584 155.942L96.954 122.332H109.433L111.306 155.941L102.584 155.942Z" fill="black"/>
<path d="M102.196 155.98L96.574 122.393C96.5577 122.293 96.5822 122.191 96.6421 122.109C96.7021 122.027 96.7928 121.972 96.894 121.956C96.9141 121.95 96.935 121.948 96.9559 121.949H109.435C109.538 121.949 109.636 121.989 109.709 122.061C109.782 122.132 109.823 122.229 109.823 122.33L111.696 155.918C111.701 156.019 111.665 156.117 111.597 156.193C111.529 156.269 111.433 156.316 111.33 156.323H102.584C102.488 156.324 102.395 156.289 102.323 156.226C102.251 156.162 102.206 156.075 102.196 155.98ZM97.4141 122.715L102.91 155.559H110.896L109.068 122.715H97.4141Z" fill="black"/>
<path fill-rule="evenodd" clip-rule="evenodd" d="M101.851 99.4185C101.851 99.4185 82.5611 104.227 77.1257 105.511C71.6832 106.795 69.3661 111.619 70.3225 116.98C71.279 122.331 80.0021 155.94 80.0021 155.94H90.4365L85.6775 118.339L115.145 116.017L116.04 102.782L101.851 99.4185Z" fill="black"/>
<path d="M101.858 99.8097C100.449 100.162 82.5289 104.628 77.2111 105.881C76.0828 106.116 75.0166 106.58 74.0798 107.242C73.1429 107.904 72.3561 108.75 71.769 109.727C70.5877 111.713 70.2293 114.244 70.7045 116.913C71.6057 121.973 79.4591 152.302 80.3063 155.561H90.0017L85.2899 118.389C85.2781 118.287 85.3075 118.185 85.3718 118.105C85.4361 118.025 85.5298 117.973 85.6329 117.96L114.782 115.659L115.637 103.083L101.858 99.8097ZM77.0319 105.139C82.3901 103.877 101.703 99.0603 101.756 99.045C101.819 99.0372 101.882 99.0372 101.944 99.045L116.11 102.409C116.204 102.426 116.289 102.477 116.348 102.552C116.407 102.627 116.435 102.72 116.427 102.815L115.533 116.025C115.529 116.119 115.49 116.207 115.424 116.275C115.359 116.343 115.27 116.385 115.176 116.393L86.1121 118.686L90.8236 155.881V155.943C90.8239 155.993 90.8141 156.043 90.7947 156.089C90.7753 156.135 90.7468 156.178 90.7108 156.213C90.6747 156.249 90.6317 156.277 90.5845 156.296C90.5373 156.315 90.4869 156.324 90.4359 156.324H80.0012C79.9147 156.324 79.8308 156.296 79.7631 156.243C79.6954 156.19 79.648 156.116 79.6289 156.033C79.5972 155.942 70.8969 122.417 69.9411 117.042C69.4286 114.2 69.8247 111.484 71.0922 109.335C71.7349 108.271 72.5943 107.349 73.6164 106.627C74.6385 105.905 75.8014 105.398 77.0319 105.139Z" fill="black"/>
<path fill-rule="evenodd" clip-rule="evenodd" d="M122.104 104.172C122.104 104.172 112.324 104.332 107.347 103.292C102.379 102.244 99.5257 100.325 99.5257 100.325L104.673 83.7498C102.147 86.6555 98.3439 87.6569 94.6361 87.6569H76.5261V80.9994L92.0837 78.1397C92.9257 78.0118 93.7229 77.683 94.4059 77.182C95.0889 76.6809 95.6369 76.023 96.0019 75.2656C98.2107 70.6853 101.352 63.025 103.008 59.8978C105.807 54.6074 112.735 51.5096 118.504 51.5096L128.006 51.502C138.509 51.502 139.271 60.4316 138.835 65.4319C138.236 72.4122 134.769 79.3851 134.769 79.3851L122.104 104.172Z" fill="#1BD9C4"/>
<path d="M122.111 104.554C122.088 104.554 112.282 104.714 107.269 103.667C102.222 102.605 99.3138 100.647 99.3068 100.64C99.2339 100.592 99.1797 100.522 99.153 100.44C99.1262 100.358 99.1284 100.27 99.1595 100.189L103.848 85.1057C102.882 85.9183 101.783 86.5646 100.598 87.0171C98.692 87.7209 96.6694 88.0684 94.6338 88.0417H76.5263C76.4241 88.0399 76.3268 87.9991 76.2545 87.928C76.1822 87.8568 76.1407 87.7609 76.1389 87.6604V81.0015C76.1412 80.908 76.1779 80.8184 76.2421 80.7495C76.3064 80.6805 76.394 80.637 76.4884 80.6268L92.0151 77.7671C92.8097 77.6298 93.5621 77.3161 94.2152 76.85C94.8355 76.3934 95.33 75.7917 95.6539 75.0993C96.6642 73.0047 97.8541 70.3131 99.0051 67.691C100.412 64.5021 101.765 61.4291 102.669 59.7245C104.037 57.1324 106.361 55.061 109.059 53.6C111.955 52.0267 115.199 51.1786 118.506 51.1304H128.007C128.521 51.1304 129.002 51.1461 129.453 51.1845C133.575 51.5284 136.046 53.3634 137.485 55.7332C138.915 58.0806 139.311 60.9395 139.32 63.3863C139.32 64.1357 139.281 64.8386 139.226 65.466C138.619 72.5149 135.128 79.5332 135.121 79.5485L122.455 104.342C122.424 104.406 122.375 104.46 122.314 104.498C122.253 104.535 122.183 104.555 122.111 104.554ZM107.431 102.918C111.918 103.858 120.36 103.813 121.87 103.797L134.418 79.2174C134.426 79.1942 137.855 72.3062 138.453 65.4022C138.501 64.7676 138.539 64.0871 138.539 63.3834C138.539 61.0441 138.158 58.33 136.821 56.12C135.499 53.9491 133.213 52.267 129.388 51.9456C128.937 51.9075 128.478 51.8847 128.003 51.8847L118.502 51.892C115.326 51.9386 112.211 52.7526 109.429 54.2625C106.863 55.6538 104.647 57.6247 103.348 60.0805C102.447 61.7929 101.102 64.8354 99.7172 67.9931C98.5508 70.6385 97.3462 73.3679 96.3595 75.4247C95.9786 76.2287 95.4011 76.9273 94.6789 77.4583C93.9312 77.9929 93.0702 78.3535 92.1603 78.513L76.913 81.319V87.275H94.6328C96.5697 87.3018 98.4948 86.9725 100.309 86.3044C101.879 85.7173 103.276 84.7558 104.375 83.5062C104.433 83.4393 104.513 83.394 104.601 83.3781C104.689 83.3621 104.78 83.3765 104.858 83.4187C104.936 83.4608 104.998 83.5282 105.032 83.6096C105.066 83.691 105.07 83.7814 105.044 83.8657L99.9752 100.157C102.29 101.474 104.81 102.406 107.432 102.918H107.431Z" fill="black"/>
<path d="M76.9544 87.6608C76.9546 87.716 76.9438 87.7706 76.9224 87.8217C76.901 87.8728 76.8695 87.9192 76.8298 87.9583C76.7902 87.9974 76.7431 88.0284 76.6912 88.0495C76.6393 88.0706 76.5836 88.0813 76.5274 88.0812C76.4143 88.0804 76.3059 88.0359 76.2257 87.9573C76.1456 87.8786 76.1002 87.7721 76.0991 87.6608V81.0015C76.1007 80.8987 76.1405 80.8 76.2109 80.724C76.2813 80.6479 76.3774 80.5999 76.4813 80.5887L92.0073 77.7291C92.7958 77.592 93.5426 77.281 94.1915 76.8196C94.8067 76.3664 95.2978 75.7701 95.6213 75.0843C96.6324 72.9893 97.8149 70.2978 98.9725 67.6753C100.372 64.4864 101.733 61.4139 102.628 59.7093C104.004 57.1096 106.336 55.0299 109.041 53.5623C111.942 51.988 115.192 51.14 118.504 51.093H128.005C128.518 51.093 129 51.1082 129.452 51.1463C133.587 51.4905 136.068 53.333 137.522 55.7184C138.952 58.0654 139.349 60.9326 139.357 63.3867C139.357 64.1364 139.318 64.8394 139.263 65.4664C138.657 72.5232 135.158 79.5491 135.15 79.5737C135.101 79.6743 135.012 79.7514 134.905 79.788C134.798 79.8246 134.68 79.8178 134.578 79.7691C134.476 79.7203 134.398 79.6338 134.361 79.5282C134.323 79.4227 134.33 79.3068 134.379 79.2063C134.395 79.1834 137.816 72.3027 138.416 65.3991C138.469 64.772 138.501 64.0917 138.501 63.3887C138.501 61.0567 138.128 58.3426 136.79 56.1485C135.468 53.9849 133.197 52.3031 129.381 51.989C128.93 51.9509 128.471 51.9277 128.005 51.9277L118.504 51.9354C115.335 51.981 112.226 52.795 109.454 54.3055C106.888 55.6892 104.68 57.6541 103.389 60.1006C102.48 61.8129 101.142 64.8559 99.75 68.0133C98.5832 70.659 97.3861 73.3883 96.3912 75.4451C96.0082 76.2539 95.4291 76.9575 94.7045 77.494C93.9511 78.0354 93.0809 78.3989 92.1618 78.5564L76.953 81.3547L76.9544 87.6608Z" fill="white"/>
<path fill-rule="evenodd" clip-rule="evenodd" d="M107.678 22.5198C108.856 25.1851 109.46 28.0617 109.451 30.968C109.372 34.6453 108.37 38.3 108.891 40.6931C110.057 46.0601 112.848 48.7665 117.132 48.0095C117.918 49.5845 117.35 52.2605 117.35 52.2605C117.35 52.2605 120.593 54.0417 123.532 53.8046C124.389 53.7408 125.222 53.4937 125.973 53.0807C126.724 52.6676 127.374 52.0985 127.878 51.413V45.656L123.166 23.4307L107.678 22.5198Z" fill="white"/>
<path d="M108.945 58.9037C108.842 58.9037 108.744 58.8635 108.671 58.792C108.598 58.7205 108.558 58.6236 108.558 58.5224C108.559 58.4218 108.6 58.3258 108.673 58.2547C108.745 58.1835 108.843 58.1427 108.945 58.1411C109.122 58.1445 109.299 58.1625 109.473 58.1946C110.546 58.3932 111.852 59.181 112.878 60.4424C114.039 61.869 114.665 63.6456 114.652 65.4733C114.649 66.0325 114.594 66.5902 114.488 67.1397C114.045 69.4943 112.832 72.3155 111.371 74.9994C109.551 78.3325 107.351 81.4673 105.741 83.2178C104.357 84.7882 102.626 86.0255 100.68 86.8344C98.7122 87.6365 96.3958 88.0423 93.5339 88.0423C93.4313 88.0416 93.3332 88.0011 93.2607 87.9298C93.1882 87.8584 93.1472 87.7619 93.1465 87.661C93.1462 87.6109 93.156 87.5612 93.1754 87.5148C93.1947 87.4684 93.2233 87.4262 93.2593 87.3907C93.2954 87.3553 93.3381 87.3272 93.3852 87.3081C93.4324 87.2891 93.4829 87.2794 93.5339 87.2797C96.2933 87.2797 98.5109 86.8986 100.377 86.1332C102.218 85.3657 103.857 84.1939 105.168 82.7075C106.738 80.9952 108.907 77.9217 110.688 74.6423C112.118 72.0194 113.3 69.275 113.728 67.0043C113.825 66.5002 113.874 65.9884 113.875 65.4753C113.888 63.8205 113.322 62.2117 112.273 60.9183C111.372 59.8025 110.244 59.1159 109.334 58.9461C109.206 58.9206 109.076 58.9064 108.945 58.9037Z" fill="black"/>
<path fill-rule="evenodd" clip-rule="evenodd" d="M57.2971 164.443H60.2283V92.5387H57.2971V164.443Z" fill="black"/>
<path d="M57.6863 164.062H59.8404V92.921H57.6863V164.062ZM60.229 164.826H57.2981C57.2471 164.827 57.1966 164.817 57.1495 164.798C57.1023 164.779 57.0594 164.751 57.0234 164.715C56.9873 164.68 56.9588 164.638 56.9394 164.591C56.9201 164.545 56.9102 164.495 56.9105 164.445V92.5375C56.9111 92.4366 56.9522 92.3401 57.0247 92.2688C57.0973 92.1974 57.1955 92.1569 57.2981 92.1564H60.229C60.3317 92.1568 60.43 92.197 60.5025 92.2684C60.5751 92.3398 60.6161 92.4365 60.6166 92.5375V164.443C60.6173 164.493 60.6077 164.543 60.5885 164.59C60.5693 164.637 60.5409 164.679 60.5048 164.715C60.4687 164.75 60.4257 164.778 60.3783 164.798C60.331 164.817 60.2802 164.827 60.229 164.826Z" fill="black"/>
<path fill-rule="evenodd" clip-rule="evenodd" d="M90.4434 155.94H80.0094L68.1597 160.88V164.443H90.4434V155.94Z" fill="white"/>
<path d="M90.0545 156.324H80.0849L68.5469 161.132V164.061H90.0535L90.0545 156.324ZM80.0085 155.559H90.4429C90.4939 155.559 90.5443 155.569 90.5915 155.588C90.6387 155.607 90.6817 155.635 90.7178 155.67C90.7538 155.706 90.782 155.748 90.8014 155.794C90.8207 155.84 90.8306 155.89 90.8303 155.94V164.443C90.8307 164.493 90.821 164.542 90.8017 164.589C90.7824 164.635 90.7538 164.678 90.7178 164.713C90.6817 164.749 90.6387 164.777 90.5915 164.796C90.5443 164.815 90.4939 164.824 90.4429 164.824H68.1578C68.1069 164.824 68.0566 164.814 68.0095 164.795C67.9625 164.775 67.92 164.747 67.884 164.712C67.848 164.677 67.8195 164.635 67.8 164.589C67.7806 164.543 67.7704 164.493 67.7704 164.443V160.879H67.7784C67.7778 160.804 67.7996 160.731 67.841 160.669C67.8824 160.607 67.9413 160.558 68.0109 160.528L79.83 155.602C79.8845 155.572 79.9461 155.557 80.0085 155.558V155.559Z" fill="black"/>
<path d="M99.9968 99.9953C99.9668 100.093 99.8985 100.174 99.8072 100.222C99.7159 100.27 99.6091 100.281 99.51 100.252C99.4109 100.222 99.328 100.155 99.2791 100.065C99.2303 99.9752 99.2195 99.8698 99.2496 99.7723L103.099 87.5326C103.133 87.4422 103.202 87.3681 103.29 87.3254C103.378 87.2828 103.48 87.2749 103.574 87.3031C103.668 87.3312 103.747 87.3933 103.796 87.4771C103.845 87.5608 103.86 87.6598 103.838 87.754L99.9968 99.9953Z" fill="white"/>
<path d="M80.3802 155.849C80.4051 155.946 80.3905 156.048 80.3396 156.133C80.2886 156.219 80.2056 156.282 80.108 156.308C80.0091 156.333 79.9037 156.32 79.8149 156.27C79.7261 156.22 79.6608 156.137 79.6333 156.04C79.6104 155.949 71.3064 124.465 69.7363 117.538C68.9736 114.167 69.5419 111.376 71.026 109.174C72.6818 106.728 75.4735 105.023 78.8248 104.052C85.0451 102.248 99.0396 99.5638 99.0787 99.5572C99.1287 99.5468 99.1803 99.5462 99.2305 99.5555C99.2806 99.5649 99.3282 99.5841 99.3708 99.6117C99.4134 99.6394 99.45 99.675 99.4785 99.7167C99.507 99.7584 99.5267 99.8055 99.5366 99.8548C99.555 99.9539 99.5337 100.056 99.4771 100.14C99.4206 100.224 99.3335 100.283 99.2336 100.305C99.1863 100.313 85.215 102.996 79.0412 104.785C75.8615 105.71 73.218 107.307 71.6701 109.603C70.294 111.636 69.7732 114.22 70.4887 117.378C72.0609 124.274 80.3565 155.758 80.3802 155.849Z" fill="white"/>
<path d="M102.439 155.88C102.453 155.981 102.427 156.083 102.366 156.164C102.305 156.246 102.214 156.3 102.112 156.316C102.062 156.325 102.011 156.323 101.962 156.312C101.913 156.3 101.866 156.28 101.825 156.251C101.784 156.222 101.749 156.185 101.722 156.143C101.696 156.1 101.678 156.053 101.67 156.004L96.5757 125.109C96.5609 125.009 96.5862 124.908 96.6459 124.827C96.7057 124.746 96.7952 124.691 96.8957 124.673C96.9982 124.659 97.1025 124.684 97.1864 124.744C97.2703 124.804 97.3272 124.893 97.3457 124.994L102.439 155.88Z" fill="white"/>
<path d="M127.488 45.6383C127.488 45.5372 127.529 45.4402 127.602 45.3687C127.674 45.2972 127.773 45.257 127.876 45.257C127.927 45.2566 127.977 45.2661 128.025 45.2851C128.072 45.3041 128.115 45.3322 128.151 45.3677C128.187 45.4031 128.215 45.4454 128.235 45.4919C128.254 45.5383 128.264 45.5881 128.263 45.6383V51.3949C128.264 51.4743 128.239 51.5519 128.193 51.6168C127.961 51.9912 125.449 55.7148 118.972 53.3827C118.876 53.3468 118.798 53.2757 118.755 53.1844C118.711 53.0931 118.706 52.9886 118.739 52.8933C118.756 52.8457 118.782 52.8021 118.816 52.7646C118.851 52.7272 118.892 52.6968 118.938 52.6755C118.985 52.6541 119.035 52.6421 119.086 52.6401C119.137 52.6381 119.188 52.6462 119.236 52.6639C124.865 54.6903 127.121 51.823 127.486 51.2878L127.488 45.6383Z" fill="black"/>
<path d="M39.8788 49.4771C39.7758 49.4771 39.6769 49.4369 39.6041 49.3652C39.5312 49.2936 39.4904 49.1963 39.4904 49.0949C39.4904 48.9936 39.5312 48.8963 39.6041 48.8246C39.6769 48.753 39.7758 48.7128 39.8788 48.7128H52.6843C52.7873 48.7128 52.886 48.753 52.9589 48.8246C53.0317 48.8963 53.0727 48.9936 53.0727 49.0949C53.0727 49.1963 53.0317 49.2936 52.9589 49.3652C52.886 49.4369 52.7873 49.4771 52.6843 49.4771H39.8788Z" fill="black"/>
<path d="M55.2986 49.4771C55.1956 49.4771 55.0968 49.4369 55.0239 49.3652C54.9511 49.2936 54.9102 49.1963 54.9102 49.0949C54.9102 48.9936 54.9511 48.8963 55.0239 48.8246C55.0968 48.753 55.1956 48.7128 55.2986 48.7128H57.5148C57.6179 48.7128 57.7165 48.753 57.7894 48.8246C57.8622 48.8963 57.9033 48.9936 57.9033 49.0949C57.9033 49.1963 57.8622 49.2936 57.7894 49.3652C57.7165 49.4369 57.6179 49.4771 57.5148 49.4771H55.2986Z" fill="#1BD9C4"/>
<path d="M60.8791 49.4771C60.7761 49.4771 60.6772 49.4369 60.6044 49.3652C60.5315 49.2936 60.4907 49.1963 60.4907 49.0949C60.4907 48.9936 60.5315 48.8963 60.6044 48.8246C60.6772 48.753 60.7761 48.7128 60.8791 48.7128H64.6188C64.7218 48.7128 64.8207 48.753 64.8935 48.8246C64.9664 48.8963 65.0072 48.9936 65.0072 49.0949C65.0072 49.1963 64.9664 49.2936 64.8935 49.3652C64.8207 49.4369 64.7218 49.4771 64.6188 49.4771H60.8791Z" fill="black"/>
<path d="M67.5564 49.4771C67.4534 49.4771 67.3543 49.4369 67.2815 49.3652C67.2087 49.2936 67.168 49.1963 67.168 49.0949C67.168 48.9936 67.2087 48.8963 67.2815 48.8246C67.3543 48.753 67.4534 48.7128 67.5564 48.7128H72.1196C72.2226 48.7128 72.3216 48.753 72.3944 48.8246C72.4673 48.8963 72.508 48.9936 72.508 49.0949C72.508 49.1963 72.4673 49.2936 72.3944 49.3652C72.3216 49.4369 72.2226 49.4771 72.1196 49.4771H67.5564Z" fill="#1BD9C4"/>
<path d="M39.8791 52.6871C39.7761 52.6871 39.6771 52.6468 39.6042 52.5751C39.5314 52.5034 39.4905 52.4062 39.4905 52.3048C39.4905 52.2034 39.5314 52.1062 39.6042 52.0345C39.6771 51.9628 39.7761 51.9225 39.8791 51.9225H45.7181C45.8212 51.9225 45.9201 51.9628 45.993 52.0345C46.0659 52.1062 46.1067 52.2034 46.1067 52.3048C46.1067 52.4062 46.0659 52.5034 45.993 52.5751C45.9201 52.6468 45.8212 52.6871 45.7181 52.6871H39.8791Z" fill="black"/>
<path d="M49.1213 52.6871C49.0183 52.6871 48.9193 52.6468 48.8464 52.5751C48.7736 52.5034 48.7327 52.4062 48.7327 52.3048C48.7327 52.2034 48.7736 52.1062 48.8464 52.0345C48.9193 51.9628 49.0183 51.9225 49.1213 51.9225H51.3372C51.4402 51.9225 51.539 51.9628 51.6119 52.0345C51.6848 52.1062 51.7258 52.2034 51.7258 52.3048C51.7258 52.4062 51.6848 52.5034 51.6119 52.5751C51.539 52.6468 51.4402 52.6871 51.3372 52.6871H49.1213Z" fill="#1BD9C4"/>
<path d="M54.5373 52.6871C54.4342 52.6871 54.3353 52.6468 54.2624 52.5751C54.1895 52.5034 54.1487 52.4062 54.1487 52.3048C54.1487 52.2034 54.1895 52.1062 54.2624 52.0345C54.3353 51.9628 54.4342 51.9225 54.5373 51.9225H58.2848C58.3878 51.9225 58.4868 51.9628 58.5596 52.0345C58.6325 52.1062 58.6733 52.2034 58.6733 52.3048C58.6733 52.4062 58.6325 52.5034 58.5596 52.5751C58.4868 52.6468 58.3878 52.6871 58.2848 52.6871H54.5373Z" fill="black"/>
<path d="M61.2519 52.6871C61.1488 52.6871 61.0499 52.6468 60.977 52.5751C60.9041 52.5034 60.8633 52.4062 60.8633 52.3048C60.8633 52.2034 60.9041 52.1062 60.977 52.0345C61.0499 51.9628 61.1488 51.9225 61.2519 51.9225H67.6743C67.7774 51.9225 67.8762 51.9628 67.949 52.0345C68.0219 52.1062 68.0629 52.2034 68.0629 52.3048C68.0629 52.4062 68.0219 52.5034 67.949 52.5751C67.8762 52.6468 67.7774 52.6871 67.6743 52.6871H61.2519Z" fill="black"/>
<path d="M39.8787 55.9422C39.7759 55.9422 39.6774 55.902 39.6047 55.8305C39.532 55.759 39.4911 55.662 39.4911 55.5609C39.4911 55.4598 39.532 55.3628 39.6047 55.2913C39.6774 55.2198 39.7759 55.1796 39.8787 55.1796H52.6843C52.787 55.1796 52.8856 55.2198 52.9583 55.2913C53.031 55.3628 53.0716 55.4598 53.0716 55.5609C53.0716 55.662 53.031 55.759 52.9583 55.8305C52.8856 55.902 52.787 55.9422 52.6843 55.9422H39.8787Z" fill="#1BD9C4"/>
<path d="M39.9725 62.4317C39.9215 62.4321 39.8709 62.4225 39.8237 62.4034C39.7765 62.3844 39.7336 62.3563 39.6976 62.3208C39.6615 62.2854 39.633 62.2432 39.6136 62.1968C39.5943 62.1504 39.5845 62.1006 39.5849 62.0504C39.5856 61.9495 39.6266 61.8528 39.6991 61.7814C39.7717 61.7101 39.8699 61.6697 39.9725 61.6691H49.1234C49.2256 61.671 49.323 61.7119 49.3952 61.783C49.4674 61.8541 49.5088 61.9499 49.5108 62.0504C49.5101 62.1513 49.4691 62.248 49.3966 62.3193C49.324 62.3907 49.226 62.4311 49.1234 62.4317H39.9725Z" fill="black"/>
<path d="M39.9728 65.8933C39.8697 65.8933 39.7708 65.853 39.6979 65.7813C39.625 65.7095 39.584 65.6122 39.584 65.5108C39.584 65.4094 39.625 65.3121 39.6979 65.2403C39.7708 65.1686 39.8697 65.1283 39.9728 65.1283H42.7949C42.898 65.1283 42.9968 65.1686 43.0697 65.2403C43.1426 65.3121 43.1836 65.4094 43.1836 65.5108C43.1836 65.6122 43.1426 65.7095 43.0697 65.7813C42.9968 65.853 42.898 65.8933 42.7949 65.8933H39.9728Z" fill="black"/>
<path d="M46.2927 65.8933C46.1896 65.8933 46.0908 65.853 46.0179 65.7813C45.945 65.7095 45.904 65.6122 45.904 65.5108C45.904 65.4094 45.945 65.3121 46.0179 65.2403C46.0908 65.1686 46.1896 65.1283 46.2927 65.1283H49.1231C49.2262 65.1283 49.325 65.1686 49.3979 65.2403C49.4708 65.3121 49.5118 65.4094 49.5118 65.5108C49.5118 65.6122 49.4708 65.7095 49.3979 65.7813C49.325 65.853 49.2262 65.8933 49.1231 65.8933H46.2927Z" fill="black"/>
<path d="M52.4771 65.8933C52.374 65.8933 52.2752 65.853 52.2023 65.7813C52.1293 65.7095 52.0884 65.6122 52.0884 65.5108C52.0884 65.4094 52.1293 65.3121 52.2023 65.2403C52.2752 65.1686 52.374 65.1283 52.4771 65.1283H62.7553C62.8584 65.1283 62.9573 65.1686 63.0302 65.2403C63.1031 65.3121 63.1441 65.4094 63.1441 65.5108C63.1441 65.6122 63.1031 65.7095 63.0302 65.7813C62.9573 65.853 62.8584 65.8933 62.7553 65.8933H52.4771Z" fill="#1BD9C4"/>
<path d="M51.4425 84.0348H76.5484V84.7974H51.4425V84.0348Z" fill="white"/>
<path fill-rule="evenodd" clip-rule="evenodd" d="M42.4387 87.6539H48.9852C49.6384 87.6529 50.2647 87.3972 50.7268 86.943C51.189 86.4888 51.4494 85.8729 51.4512 85.2302V72.5918H39.9727V85.2292C39.9754 85.8717 40.2362 86.4871 40.6981 86.9413C41.16 87.3955 41.7857 87.6517 42.4387 87.6539Z" fill="#1BD9C4"/>
<path d="M42.4384 87.2722H48.9853C49.5352 87.2703 50.062 87.0545 50.4508 86.672C50.8397 86.2895 51.0592 85.7712 51.0613 85.2302V72.9751H40.3631V85.2302C40.3651 85.7711 40.5845 86.2894 40.9732 86.6719C41.362 87.0544 41.8887 87.2702 42.4384 87.2722ZM48.9853 88.0365H42.4384C41.6827 88.0331 40.9589 87.7362 40.4245 87.2104C39.8901 86.6846 39.5883 85.9724 39.5849 85.2289V72.5918C39.5845 72.5416 39.5943 72.4918 39.6136 72.4454C39.633 72.3989 39.6615 72.3568 39.6976 72.3213C39.7336 72.2858 39.7765 72.2578 39.8237 72.2387C39.8708 72.2197 39.9215 72.2101 39.9725 72.2105H51.448C51.499 72.2101 51.5496 72.2197 51.5968 72.2387C51.644 72.2578 51.6868 72.2858 51.7229 72.3213C51.7589 72.3568 51.7875 72.3989 51.8068 72.4454C51.8262 72.4918 51.8359 72.5416 51.8356 72.5918V85.2295C51.8356 85.9742 51.5349 86.6883 50.9997 87.2148C50.4646 87.7413 49.7388 88.0372 48.982 88.0372L48.9853 88.0365Z" fill="black"/>
<path d="M39.4936 76.8805H37.5268C37.4167 76.8804 37.3077 76.902 37.2062 76.9442C37.1047 76.9863 37.0128 77.0481 36.9361 77.1259C36.8565 77.2009 36.7934 77.2911 36.7505 77.391C36.7077 77.4909 36.686 77.5984 36.687 77.7068V80.9652C36.6884 81.1839 36.778 81.393 36.9361 81.5467C37.013 81.6242 37.1049 81.6858 37.2064 81.7278C37.3078 81.7698 37.4167 81.7915 37.5268 81.7914H39.4936V76.8805ZM37.5268 76.1179H40.2711V82.5551H37.5268C37.0983 82.5543 36.6876 82.3864 36.3845 82.0883C36.0814 81.7902 35.9106 81.3862 35.9095 80.9645V77.7061C35.9108 77.2846 36.0816 76.8806 36.3846 76.5827C36.6877 76.2847 37.0984 76.117 37.5268 76.1162V76.1179Z" fill="black"/>
<path d="M42.772 75.3129C42.772 75.2115 42.8129 75.1142 42.8858 75.0425C42.9587 74.9707 43.0576 74.9304 43.1607 74.9304C43.2638 74.9304 43.3627 74.9707 43.4356 75.0425C43.5085 75.1142 43.5495 75.2115 43.5495 75.3129V84.5562C43.5495 84.6577 43.5085 84.755 43.4356 84.8267C43.3627 84.8984 43.2638 84.9387 43.1607 84.9387C43.0576 84.9387 42.9587 84.8984 42.8858 84.8267C42.8129 84.755 42.772 84.6577 42.772 84.5562V75.3129Z" fill="white"/>
<path d="M133.039 124.465C133.02 124.418 133.01 124.368 133.01 124.318C133.011 124.267 133.022 124.217 133.042 124.171C133.062 124.125 133.092 124.083 133.129 124.048C133.166 124.013 133.209 123.986 133.257 123.967C133.353 123.931 133.459 123.933 133.554 123.973C133.649 124.013 133.724 124.088 133.763 124.182L150.052 164.305C150.09 164.399 150.088 164.504 150.047 164.597C150.006 164.691 149.929 164.764 149.833 164.802C149.737 164.837 149.631 164.834 149.537 164.794C149.443 164.754 149.368 164.68 149.328 164.587L133.039 124.465Z" fill="#1BD9C4"/>
<path d="M68.1597 160.497H90.4434V161.262H68.1597V160.497Z" fill="black"/>
<path d="M89.0252 160.497H111.308V161.262H89.0252V160.497Z" fill="black"/>
<path d="M108.838 124.464C108.801 124.37 108.803 124.265 108.843 124.172C108.884 124.079 108.96 124.006 109.055 123.967C109.102 123.948 109.153 123.939 109.205 123.939C109.256 123.94 109.307 123.951 109.354 123.971C109.401 123.991 109.443 124.02 109.479 124.056C109.514 124.092 109.542 124.135 109.561 124.182L125.849 164.304C125.868 164.351 125.877 164.4 125.877 164.45C125.876 164.499 125.866 164.549 125.846 164.595C125.826 164.64 125.797 164.682 125.761 164.717C125.725 164.752 125.682 164.779 125.635 164.798C125.588 164.816 125.538 164.825 125.487 164.825C125.436 164.824 125.386 164.814 125.34 164.794C125.293 164.775 125.251 164.746 125.216 164.711C125.181 164.675 125.153 164.633 125.134 164.587L108.838 124.464Z" fill="black"/>
<path d="M93.0606 124.183C93.0792 124.136 93.1073 124.093 93.1428 124.057C93.1784 124.021 93.2207 123.992 93.2677 123.972C93.3147 123.952 93.3652 123.941 93.4163 123.941C93.4675 123.94 93.5185 123.949 93.566 123.968C93.6611 124.007 93.7372 124.08 93.7779 124.173C93.8186 124.266 93.8207 124.371 93.7837 124.465L77.4868 164.588C77.4491 164.681 77.3758 164.755 77.2828 164.796C77.1898 164.836 77.0847 164.839 76.9897 164.803C76.8943 164.765 76.8178 164.691 76.7771 164.598C76.7364 164.505 76.7348 164.4 76.7723 164.305L93.0606 124.183Z" fill="#1BD9C4"/>
<path d="M93.0601 124.2C93.0787 124.153 93.1065 124.11 93.142 124.074C93.1775 124.038 93.22 124.009 93.2669 123.989C93.3137 123.969 93.3644 123.958 93.4155 123.958C93.4666 123.957 93.517 123.966 93.5644 123.985C93.6596 124.023 93.7357 124.097 93.7764 124.19C93.8171 124.283 93.8192 124.388 93.7822 124.482L88.7446 136.883C88.7259 136.93 88.6979 136.972 88.6624 137.008C88.6268 137.044 88.5845 137.073 88.5375 137.093C88.4905 137.113 88.44 137.124 88.3889 137.125C88.3377 137.125 88.287 137.116 88.2396 137.097C88.1443 137.059 88.0681 136.985 88.0273 136.892C87.9865 136.799 87.9844 136.694 88.0215 136.6L93.0601 124.2Z" fill="black"/>
<path d="M117.262 124.183C117.28 124.137 117.307 124.094 117.342 124.058C117.377 124.022 117.418 123.993 117.465 123.973C117.511 123.953 117.561 123.942 117.611 123.942C117.662 123.941 117.712 123.95 117.759 123.968C117.807 123.987 117.85 124.014 117.887 124.049C117.924 124.084 117.953 124.126 117.973 124.172C117.994 124.218 118.004 124.268 118.005 124.319C118.006 124.369 117.996 124.419 117.977 124.466L101.688 164.588C101.649 164.682 101.574 164.757 101.48 164.797C101.386 164.837 101.279 164.839 101.182 164.803C101.088 164.764 101.013 164.69 100.973 164.597C100.932 164.504 100.929 164.4 100.965 164.306L117.262 124.183Z" fill="black"/>
<path d="M110.561 140.681C110.579 140.635 110.607 140.592 110.642 140.557C110.677 140.521 110.719 140.494 110.765 140.474C110.812 140.455 110.861 140.445 110.912 140.445C110.962 140.445 111.012 140.456 111.058 140.475C111.105 140.493 111.149 140.519 111.185 140.554C111.222 140.588 111.251 140.629 111.271 140.674C111.292 140.719 111.303 140.769 111.304 140.818C111.305 140.868 111.295 140.917 111.277 140.963L101.689 164.588C101.65 164.681 101.575 164.756 101.481 164.796C101.387 164.836 101.28 164.838 101.184 164.802C101.09 164.762 101.015 164.689 100.975 164.596C100.934 164.504 100.931 164.4 100.966 164.305L110.561 140.681Z" fill="#1BD9C4"/>
<path fill-rule="evenodd" clip-rule="evenodd" d="M151.029 69.8168H128.535C126.335 69.8168 124.048 71.5904 123.458 73.754L112.431 114.205H88.3981C87.0312 114.208 85.7212 114.743 84.7551 115.695C83.7891 116.646 83.2457 117.936 83.2438 119.281C83.2473 120.624 83.7916 121.912 84.7576 122.862C85.7235 123.812 87.0323 124.347 88.3981 124.35H136.168C138.369 124.35 140.655 122.577 141.245 120.413L153.957 73.753C154.55 71.5908 153.229 69.8168 151.029 69.8168Z" fill="#1BD9C4"/>
<path d="M151.027 70.199H128.534C127.472 70.2311 126.452 70.6105 125.634 71.2773C124.768 71.9239 124.135 72.827 123.83 73.8537L112.814 114.304C112.79 114.386 112.739 114.457 112.671 114.508C112.602 114.559 112.519 114.586 112.433 114.587H88.3996C87.1423 114.597 85.9402 115.096 85.0549 115.975C84.1697 116.853 83.673 118.04 83.673 119.277C83.673 120.514 84.1697 121.702 85.0549 122.58C85.9402 123.459 87.1423 123.957 88.3996 123.968H136.169C137.229 123.934 138.249 123.558 139.07 122.897C139.931 122.243 140.562 121.339 140.873 120.313L153.585 73.6613C153.667 73.3621 153.709 73.0537 153.71 72.7438C153.721 72.1844 153.547 71.6366 153.212 71.184C152.878 70.746 152.4 70.4356 151.86 70.3054C151.589 70.2336 151.308 70.1978 151.027 70.199ZM128.534 69.4364H151.027C151.376 69.4356 151.724 69.4793 152.062 69.5663C152.768 69.7472 153.393 70.1564 153.835 70.7282C154.27 71.3132 154.499 72.0221 154.488 72.747C154.488 73.122 154.436 73.4951 154.332 73.8561L141.62 120.516C141.267 121.699 140.543 122.743 139.552 123.497C138.595 124.267 137.405 124.702 136.17 124.735H88.3999C86.9296 124.735 85.5194 124.161 84.4797 123.138C83.4401 122.115 82.8563 120.727 82.8563 119.281C82.8563 117.834 83.4401 116.447 84.4797 115.424C85.5194 114.401 86.9296 113.826 88.3999 113.826H112.137L123.085 73.6645C123.429 72.4751 124.154 71.4267 125.152 70.6749C126.109 69.9046 127.298 69.4682 128.534 69.4343V69.4364Z" fill="black"/>
<path d="M113.789 124.45C113.761 124.547 113.696 124.63 113.607 124.68C113.518 124.73 113.413 124.743 113.314 124.718C113.265 124.706 113.218 124.685 113.177 124.656C113.136 124.626 113.102 124.589 113.076 124.546C113.049 124.503 113.032 124.456 113.025 124.407C113.018 124.357 113.021 124.307 113.034 124.258L125.962 75.5584C126.294 74.412 126.992 73.4014 127.954 72.6763C128.878 71.9288 130.03 71.5064 131.226 71.476H153.852C153.954 71.4777 154.052 71.5186 154.124 71.5897C154.196 71.6608 154.238 71.7567 154.24 71.8573C154.239 71.9582 154.198 72.0548 154.126 72.1262C154.053 72.1976 153.955 72.2379 153.852 72.2386H131.226C130.202 72.2706 129.217 72.6363 128.427 73.2784C127.6 73.8976 127 74.7645 126.718 75.7485L113.789 124.45Z" fill="black"/>
<path d="M128.544 69.397C128.657 69.3977 128.765 69.4421 128.846 69.5207C128.926 69.5993 128.972 69.7057 128.973 69.817C128.973 69.8724 128.962 69.9272 128.94 69.9783C128.919 70.0294 128.887 70.0759 128.847 70.1149C128.807 70.154 128.76 70.1848 128.708 70.2058C128.656 70.2268 128.6 70.2374 128.544 70.2371C127.491 70.2713 126.48 70.6479 125.667 71.3076C124.809 71.9519 124.183 72.8492 123.88 73.8687L112.853 114.313C112.83 114.403 112.776 114.482 112.701 114.539C112.627 114.595 112.535 114.626 112.441 114.625H88.4082C87.1554 114.631 85.9559 115.123 85.0705 115.996C84.1851 116.868 83.6855 118.049 83.681 119.281C83.6798 119.393 83.6343 119.499 83.5544 119.578C83.4744 119.656 83.3663 119.701 83.2533 119.702C83.1971 119.702 83.1416 119.691 83.0896 119.67C83.0376 119.649 82.9904 119.618 82.9506 119.579C82.9108 119.54 82.8789 119.494 82.8574 119.443C82.8358 119.392 82.825 119.337 82.825 119.281C82.8288 117.825 83.4181 116.43 84.4643 115.4C85.5105 114.37 86.9283 113.789 88.4082 113.784H112.114L123.054 73.6458C123.406 72.4516 124.136 71.3992 125.138 70.6413C126.103 69.868 127.3 69.4305 128.544 69.397Z" fill="white"/>
<path d="M145.971 88.9789C146.073 88.9789 146.172 89.0191 146.244 89.0906C146.317 89.1621 146.358 89.2589 146.358 89.36C146.358 89.4612 146.317 89.5583 146.244 89.6298C146.172 89.7013 146.073 89.7415 145.971 89.7415H126.634C126.532 89.7415 126.433 89.7013 126.36 89.6298C126.288 89.5583 126.247 89.4612 126.247 89.36C126.247 89.2589 126.288 89.1621 126.36 89.0906C126.433 89.0191 126.532 88.9789 126.634 88.9789H145.971Z" fill="black"/>
<path d="M141.673 106.473C141.776 106.473 141.875 106.513 141.948 106.585C142.021 106.656 142.062 106.753 142.063 106.854C142.061 106.955 142.019 107.051 141.946 107.122C141.873 107.193 141.776 107.234 141.673 107.235H122.33C122.227 107.235 122.129 107.194 122.056 107.123C121.984 107.052 121.943 106.955 121.942 106.854C121.942 106.804 121.951 106.754 121.971 106.708C121.99 106.661 122.019 106.619 122.055 106.584C122.091 106.548 122.133 106.52 122.181 106.501C122.228 106.482 122.279 106.472 122.33 106.473H141.673Z" fill="black"/>
<path fill-rule="evenodd" clip-rule="evenodd" d="M135.283 14.3239C135.283 14.3239 131.637 14.8515 130.09 16.4265C128.551 18.0015 127.378 16.9846 127.378 16.9846C127.269 14.4386 126.351 12.6421 125.231 10.7454C127.012 10.3326 129.073 12.2286 128.59 15.1475C128.589 15.1492 130.752 12.1908 135.283 14.3239Z" fill="black"/>
<path fill-rule="evenodd" clip-rule="evenodd" d="M106.573 28.581C110.243 25.1713 114.255 24.2309 116.992 26.4708C116.238 30.7904 115.103 40.0184 117.389 45.3013C118.345 47.5262 120.747 48.2982 123.343 48.2982C125.396 48.2982 127.269 47.312 128.871 45.3394C132.797 40.477 135.534 30.859 135.262 24.0316C135.083 19.2916 132.12 16.1568 128.202 16.4407C126.04 13.2833 118.733 12.9925 113.383 15.1103C108.252 17.145 104.348 21.5869 106.573 28.581Z" fill="black"/>
<path fill-rule="evenodd" clip-rule="evenodd" d="M114.235 20.7537C114.235 20.7537 110.122 24.6071 110.705 29.7312C111.073 32.818 112.502 35.6883 114.756 37.866C114.756 37.866 115.448 32.3079 118.838 29.502C122.22 26.7038 119.569 20.6487 119.569 20.6487L114.235 20.7537Z" fill="black"/>
<path d="M4.40262 164.825C4.29961 164.825 4.20081 164.785 4.12798 164.713C4.05514 164.641 4.01422 164.544 4.01422 164.443C4.01422 164.341 4.05514 164.244 4.12798 164.172C4.20081 164.1 4.29961 164.06 4.40262 164.06H192.506C192.609 164.06 192.708 164.1 192.78 164.172C192.853 164.244 192.894 164.341 192.894 164.443C192.894 164.544 192.853 164.641 192.78 164.713C192.708 164.785 192.609 164.825 192.506 164.825H4.40262Z" fill="black"/>
<path fill-rule="evenodd" clip-rule="evenodd" d="M28.2033 145.947C28.2033 145.947 31.1424 135.397 24.3159 127.346C17.4816 119.303 6.37085 120.886 6.37085 120.886C6.37085 120.886 12.4354 125.649 16.0118 131.406C19.5882 137.163 22.1387 147.278 22.1387 147.278L28.2033 145.947Z" fill="#1BD9C4"/>
<path d="M27.8844 145.627C28.2575 144.089 30.1468 134.816 24.0125 127.591C18.4767 121.077 10.087 121.009 7.32723 121.179C9.05343 122.631 13.4774 126.599 16.3387 131.209C19.5497 136.378 21.9291 144.978 22.4188 146.828L27.8844 145.627ZM24.611 127.102C31.5697 135.306 28.5841 146.016 28.5763 146.048C28.5578 146.116 28.5203 146.177 28.4681 146.226C28.4159 146.274 28.3511 146.308 28.2807 146.322L22.2472 147.644L22.2317 147.652C22.1309 147.675 22.0251 147.658 21.9366 147.605C21.8481 147.553 21.7839 147.468 21.7575 147.37C21.7498 147.338 19.2228 137.316 15.6774 131.605C12.1398 125.909 6.14533 121.2 6.13053 121.184C6.05136 121.124 5.99855 121.036 5.98292 120.939C5.97052 120.838 5.99844 120.737 6.06078 120.655C6.12313 120.574 6.21504 120.52 6.31723 120.504C6.34753 120.503 17.6442 118.898 24.6114 127.101L24.611 127.102Z" fill="black"/>
<path d="M15.0476 124.716C14.9981 124.704 14.9517 124.681 14.9109 124.651C14.8701 124.621 14.8357 124.583 14.8098 124.54C14.7838 124.497 14.7668 124.449 14.7597 124.399C14.7525 124.349 14.7555 124.299 14.7682 124.25C14.781 124.201 14.8034 124.155 14.8341 124.115C14.8648 124.075 14.9033 124.041 14.9473 124.016C14.9913 123.99 15.04 123.974 15.0905 123.967C15.1411 123.96 15.1926 123.963 15.242 123.975C15.273 123.982 25.5287 126.407 26.1738 144.266C26.1758 144.315 26.1678 144.365 26.1503 144.412C26.1328 144.459 26.1061 144.501 26.0718 144.538C26.0024 144.612 25.9061 144.655 25.8041 144.659C25.702 144.663 25.6025 144.627 25.5275 144.559C25.4524 144.491 25.4081 144.396 25.404 144.296C24.7749 127.011 15.0712 124.724 15.0476 124.716Z" fill="black"/>
<path fill-rule="evenodd" clip-rule="evenodd" d="M56.4346 134.018C50.4789 128.407 41.8018 129.316 35.2398 133.2C31.08 135.661 27.6826 139.431 26.5384 144.278C24.6801 152.207 34.1347 150.218 34.1347 150.218C33.4667 138.361 46.5214 134.018 56.4346 134.018Z" fill="#1BD9C4"/>
<path d="M55.4398 133.651C53.0001 131.656 49.9499 130.525 46.7786 130.44C42.8907 130.295 38.8711 131.496 35.4423 133.529C33.2974 134.778 31.4049 136.405 29.8597 138.329C28.4489 140.108 27.4463 142.166 26.9209 144.363C25.397 150.869 32.1538 150.158 33.7397 149.906C33.732 149.715 33.7239 149.531 33.7239 149.356C33.7239 143.965 36.5696 140.166 40.6128 137.65C44.6091 135.165 49.7797 133.949 54.507 133.69C54.8254 133.674 55.1287 133.658 55.4398 133.651ZM46.8014 129.684C50.49 129.778 54.0116 131.217 56.6837 133.72C56.7282 133.757 56.7639 133.802 56.7883 133.854C56.8127 133.906 56.8251 133.962 56.8246 134.019C56.8228 134.119 56.7814 134.215 56.7091 134.286C56.6368 134.358 56.5393 134.398 56.4371 134.4C55.8072 134.4 55.1777 134.416 54.5556 134.447C49.9452 134.7 44.9064 135.884 41.0278 138.292C37.2023 140.678 34.5046 144.263 34.5046 149.356C34.5046 149.646 34.5123 149.921 34.5278 150.196C34.5351 150.289 34.5074 150.381 34.4501 150.454C34.3927 150.528 34.3097 150.578 34.2171 150.595C34.1938 150.602 24.1714 152.711 26.1699 144.194C26.7193 141.89 27.7697 139.73 29.2489 137.864C30.8517 135.866 32.8154 134.176 35.0415 132.879C38.5911 130.776 42.7664 129.523 46.8014 129.684Z" fill="black"/>
<path d="M31.5029 145.732C31.4777 145.83 31.4149 145.914 31.3277 145.966C31.2405 146.019 31.1359 146.036 31.036 146.014C30.9861 146.003 30.9389 145.983 30.8972 145.954C30.8555 145.925 30.8202 145.888 30.7933 145.846C30.7665 145.803 30.7486 145.756 30.7409 145.706C30.7333 145.656 30.7359 145.606 30.7486 145.557C31.5807 142.116 33.1589 138.99 35.8416 136.657C38.5239 134.318 42.3028 132.781 47.5431 132.506C47.5937 132.503 47.6443 132.51 47.692 132.527C47.7398 132.543 47.7837 132.569 47.8213 132.603C47.8589 132.636 47.8893 132.676 47.9109 132.722C47.9325 132.767 47.9448 132.816 47.9471 132.865C47.9512 132.915 47.9447 132.966 47.9283 133.013C47.9119 133.061 47.8858 133.104 47.8516 133.142C47.8174 133.179 47.7758 133.209 47.7294 133.23C47.683 133.25 47.6328 133.261 47.5818 133.262C42.5357 133.53 38.9125 134.998 36.3545 137.223C33.8036 139.448 32.3033 142.437 31.5029 145.732Z" fill="black"/>
<path fill-rule="evenodd" clip-rule="evenodd" d="M0.586304 140.25C0.586304 140.25 6.37081 131.74 17.0151 133.185C27.6593 134.631 32.0365 144.279 32.0365 144.279L22.652 148.3C15.6933 138.958 11.3394 139.263 0.586304 140.25Z" fill="#1BD9C4"/>
<path d="M0.267471 140.028C0.282971 140.005 6.18585 131.327 17.0693 132.81C27.9232 134.286 32.3785 144.095 32.3863 144.118C32.4085 144.163 32.4213 144.212 32.4239 144.262C32.4265 144.312 32.4188 144.362 32.4014 144.409C32.384 144.456 32.3571 144.499 32.3225 144.536C32.2878 144.572 32.246 144.601 32.1996 144.622L22.8084 148.653C22.7278 148.686 22.6383 148.692 22.554 148.67C22.4696 148.648 22.3951 148.599 22.342 148.531C18.9209 143.936 16.153 141.712 12.9342 140.772C9.69988 139.823 5.95228 140.137 0.618346 140.626C0.516083 140.634 0.414659 140.603 0.336056 140.538C0.257452 140.473 0.208002 140.38 0.198423 140.279C0.189939 140.19 0.214448 140.101 0.267471 140.028ZM16.9605 133.56C8.3767 132.397 3.03537 137.834 1.42472 139.79C6.38524 139.339 9.96163 139.104 13.1494 140.036C16.4849 141.014 19.3306 143.254 22.7827 147.835L31.514 144.088C30.6217 142.368 26.2132 134.823 16.9605 133.562V133.56Z" fill="black"/>
<path d="M8.26013 137.42C8.20969 137.427 8.15818 137.425 8.10857 137.414C8.05895 137.402 8.01222 137.38 7.97104 137.351C7.92986 137.321 7.89505 137.283 7.86861 137.24C7.84217 137.197 7.82461 137.15 7.81696 137.1C7.80458 136.999 7.83252 136.897 7.89488 136.816C7.95725 136.735 8.04918 136.681 8.15129 136.665C8.19004 136.665 23.1184 134.523 27.8147 145.494C27.8351 145.541 27.8458 145.591 27.8462 145.642C27.8466 145.692 27.8367 145.743 27.817 145.79C27.7973 145.837 27.7683 145.879 27.7316 145.915C27.6949 145.951 27.6513 145.979 27.6034 145.998C27.5084 146.035 27.4027 146.034 27.3085 145.996C27.2143 145.957 27.1388 145.885 27.0978 145.793C22.6362 135.363 8.29888 137.42 8.26013 137.42Z" fill="black"/>
<path fill-rule="evenodd" clip-rule="evenodd" d="M39.4926 175.284L43.6911 144.266H12.9952L17.1937 175.284H39.4926Z" fill="white"/>
<path d="M39.1495 174.903L43.2469 144.651H13.4369L17.5343 174.903H39.1495ZM44.079 144.314L39.8259 175.667H16.8569C15.4196 165.07 13.9846 154.476 12.552 143.886H44.1346L44.079 144.314Z" fill="black"/>
<path fill-rule="evenodd" clip-rule="evenodd" d="M39.4926 175.284L43.6911 171.185H12.9952L17.1937 175.284H39.4926Z" fill="white"/>
<path d="M39.3295 174.903L42.7505 171.569H13.9358L17.3568 174.903H39.3295ZM43.9634 171.455L39.6483 175.668H17.0387L12.0468 170.803H44.6331L43.9634 171.455Z" fill="black"/>
<path d="M36.9044 148.768C36.9068 148.716 36.92 148.666 36.9431 148.619C36.9661 148.573 36.9988 148.531 37.0387 148.497C37.0787 148.464 37.1252 148.438 37.1755 148.422C37.2257 148.407 37.2787 148.401 37.3311 148.407C37.3836 148.412 37.4344 148.428 37.4804 148.453C37.5265 148.479 37.5667 148.513 37.5988 148.554C37.6309 148.595 37.6541 148.642 37.6671 148.692C37.68 148.743 37.6824 148.795 37.6741 148.847L35.7221 166.705C35.72 166.757 35.7071 166.808 35.6843 166.855C35.6614 166.902 35.629 166.944 35.5891 166.978C35.5493 167.012 35.5028 167.038 35.4524 167.054C35.402 167.07 35.3488 167.075 35.2962 167.07C35.2436 167.065 35.1926 167.049 35.1464 167.023C35.1002 166.998 35.0597 166.964 35.0275 166.922C34.9953 166.881 34.9722 166.834 34.9592 166.784C34.9463 166.733 34.9439 166.681 34.9523 166.629L36.9044 148.768Z" fill="black"/>
<path d="M68.1479 170.295C68.0457 170.294 67.9484 170.253 67.8762 170.182C67.8039 170.111 67.7624 170.015 67.7606 169.914C67.7606 169.864 67.7707 169.815 67.7901 169.769C67.8096 169.722 67.8381 169.68 67.8741 169.645C67.9101 169.609 67.9526 169.581 67.9997 169.562C68.0467 169.543 68.097 169.533 68.1479 169.533H131.881C131.932 169.533 131.983 169.543 132.03 169.562C132.077 169.581 132.12 169.609 132.156 169.644C132.192 169.68 132.221 169.722 132.24 169.768C132.259 169.814 132.269 169.864 132.269 169.914C132.268 170.015 132.227 170.112 132.155 170.184C132.082 170.255 131.984 170.295 131.881 170.295H68.1479Z" fill="black"/>
<path d="M139.573 175.68C139.47 175.68 139.372 175.64 139.299 175.568C139.227 175.497 139.186 175.4 139.186 175.299C139.186 175.198 139.227 175.101 139.299 175.029C139.372 174.958 139.47 174.918 139.573 174.918H184.032C184.134 174.919 184.231 174.96 184.304 175.031C184.376 175.102 184.418 175.198 184.419 175.299C184.419 175.4 184.378 175.496 184.305 175.568C184.233 175.639 184.135 175.679 184.032 175.68H139.573Z" fill="black"/>
<path d="M6.88266 175.668C6.77938 175.668 6.68033 175.627 6.60729 175.556C6.53426 175.484 6.49323 175.386 6.49323 175.285C6.49323 175.183 6.53426 175.086 6.60729 175.014C6.68033 174.942 6.77938 174.902 6.88266 174.902H51.4664C51.5696 174.902 51.6687 174.942 51.7417 175.014C51.8148 175.086 51.8558 175.183 51.8558 175.285C51.8558 175.386 51.8148 175.484 51.7417 175.556C51.6687 175.627 51.5696 175.668 51.4664 175.668H6.88266Z" fill="black"/>
<path fill-rule="evenodd" clip-rule="evenodd" d="M155.047 164.444H159.634V118.479H155.047V164.444Z" fill="#1BD9C4"/>
</svg>
