<svg width="250" height="249" viewBox="0 0 250 249" fill="none" xmlns="http://www.w3.org/2000/svg">
<path fill-rule="evenodd" clip-rule="evenodd" d="M166.361 204.732H206.155V147.506H166.361V204.732Z" fill="black"/>
<path fill-rule="evenodd" clip-rule="evenodd" d="M206.155 204.732H231.323V147.506H206.155V204.732Z" fill="black"/>
<path d="M206.64 147.506V204.732H205.672V147.506H206.64Z" fill="#1BD9C4"/>
<path d="M206.155 159.998H231.335V160.949H206.155V159.998Z" fill="#1BD9C4"/>
<path d="M206.155 172.025H231.335V172.974H206.155V172.025Z" fill="#1BD9C4"/>
<path fill-rule="evenodd" clip-rule="evenodd" d="M192.789 147.54H198.499V115.244H192.789V147.54Z" fill="black"/>
<path fill-rule="evenodd" clip-rule="evenodd" d="M33.3195 204.731H36.9787V115.21H33.3195V204.731Z" fill="black"/>
<path d="M33.8036 204.257H36.4944V115.687H33.8036V204.257ZM36.9786 205.209H33.3177C33.19 205.208 33.0677 205.158 32.9774 205.069C32.8871 204.98 32.836 204.86 32.8352 204.734V115.209C32.8375 115.084 32.889 114.965 32.979 114.876C33.069 114.788 33.1905 114.737 33.3177 114.735H36.9769C37.1041 114.737 37.2255 114.788 37.3155 114.876C37.4055 114.965 37.457 115.084 37.4593 115.209V204.731C37.4594 204.857 37.4089 204.978 37.3189 205.067C37.2289 205.157 37.1066 205.208 36.9786 205.209Z" fill="black"/>
<path d="M99.9386 104.828H96.474C94.5097 104.823 92.627 104.054 91.2374 102.688C89.8478 101.322 89.0641 99.4703 89.0577 97.5375V86.7996H90.0262V97.5371C90.0348 99.2165 90.7171 100.825 91.9244 102.012C93.1318 103.199 94.7667 103.869 96.4736 103.876H99.9382L99.9386 104.828Z" fill="black"/>
<path fill-rule="evenodd" clip-rule="evenodd" d="M63.8009 109.126H95.0578V104.348H63.8009V109.126Z" fill="black"/>
<path fill-rule="evenodd" clip-rule="evenodd" d="M146.783 112.745H163.017V93.4407H146.783V112.745Z" fill="black"/>
<path fill-rule="evenodd" clip-rule="evenodd" d="M119.257 50.3767H190.529C191.252 50.3788 191.945 50.6621 192.456 51.1649C192.968 51.6677 193.257 52.3491 193.259 53.0605V92.9621C193.257 93.6736 192.968 94.3552 192.457 94.8582C191.945 95.3611 191.252 95.6446 190.529 95.6468H119.257C118.534 95.6446 117.842 95.3611 117.33 94.8581C116.819 94.3551 116.531 93.6735 116.528 92.9621V53.0609C116.531 52.3495 116.819 51.6681 117.33 51.1652C117.842 50.6623 118.534 50.3789 119.257 50.3767Z" fill="black"/>
<path fill-rule="evenodd" clip-rule="evenodd" d="M120.361 91.8668H189.418V54.1448H120.361V91.8668Z" fill="#1BD9C4"/>
<path fill-rule="evenodd" clip-rule="evenodd" d="M67.7794 109.128H84.0127V93.4412H67.7794V109.128Z" fill="black"/>
<path fill-rule="evenodd" clip-rule="evenodd" d="M138.334 194.146H126.167L112.344 200.294V204.729H138.334V194.146Z" fill="white"/>
<path d="M137.852 194.623H126.265L112.829 200.601V204.256H137.852V194.623ZM126.168 193.671H138.336C138.4 193.671 138.462 193.683 138.521 193.706C138.58 193.73 138.633 193.765 138.678 193.809C138.723 193.853 138.759 193.906 138.783 193.963C138.807 194.021 138.819 194.083 138.818 194.145V204.731C138.819 204.793 138.807 204.855 138.783 204.913C138.759 204.971 138.723 205.024 138.678 205.068C138.633 205.112 138.58 205.147 138.521 205.171C138.462 205.195 138.4 205.206 138.336 205.205H112.346C112.218 205.205 112.095 205.154 112.005 205.066C111.915 204.977 111.863 204.857 111.863 204.731V200.294C111.863 200.202 111.89 200.113 111.942 200.036C111.993 199.96 112.067 199.9 112.153 199.865L125.938 193.725C126.009 193.687 126.088 193.668 126.168 193.669V193.671Z" fill="black"/>
<path fill-rule="evenodd" clip-rule="evenodd" d="M79.5748 109.126H95.0533V102.463L82.1105 104.462L79.5748 109.126Z" fill="white"/>
<path d="M182.756 60.647C182.885 60.647 183.007 60.697 183.098 60.7863C183.189 60.8755 183.239 60.9966 183.239 61.1228C183.239 61.2489 183.189 61.37 183.098 61.4593C183.007 61.5485 182.885 61.5986 182.756 61.5986H166.814C166.685 61.5986 166.562 61.5485 166.472 61.4593C166.381 61.37 166.33 61.2489 166.33 61.1228C166.33 60.9966 166.381 60.8755 166.472 60.7863C166.562 60.697 166.685 60.647 166.814 60.647H182.756Z" fill="white"/>
<path d="M156.618 60.647C156.746 60.647 156.869 60.697 156.959 60.7863C157.05 60.8755 157.101 60.9966 157.101 61.1228C157.101 61.2489 157.05 61.37 156.959 61.4593C156.869 61.5485 156.746 61.5986 156.618 61.5986H151.952C151.824 61.5986 151.701 61.5485 151.61 61.4593C151.519 61.37 151.469 61.2489 151.469 61.1228C151.469 60.9966 151.519 60.8755 151.61 60.7863C151.701 60.697 151.824 60.647 151.952 60.647H156.618Z" fill="white"/>
<path d="M136.262 60.647C136.39 60.647 136.513 60.697 136.604 60.7863C136.694 60.8755 136.745 60.9966 136.745 61.1228C136.745 61.2489 136.694 61.37 136.604 61.4593C136.513 61.5485 136.39 61.5986 136.262 61.5986H125.857C125.729 61.5986 125.605 61.5485 125.515 61.4593C125.424 61.37 125.373 61.2489 125.373 61.1228C125.373 60.9966 125.424 60.8755 125.515 60.7863C125.605 60.697 125.729 60.647 125.857 60.647H136.262Z" fill="white"/>
<path d="M182.757 64.6433C182.885 64.6433 183.008 64.6935 183.099 64.7828C183.19 64.8721 183.241 64.9931 183.241 65.1193C183.241 65.2456 183.19 65.3666 183.099 65.4558C183.008 65.5451 182.885 65.5953 182.757 65.5953H175.494C175.365 65.5953 175.243 65.5451 175.152 65.4558C175.061 65.3666 175.01 65.2456 175.01 65.1193C175.01 64.9931 175.061 64.8721 175.152 64.7828C175.243 64.6935 175.365 64.6433 175.494 64.6433H182.757Z" fill="white"/>
<path d="M128.619 64.6433C128.747 64.6433 128.87 64.6935 128.96 64.7828C129.051 64.8721 129.102 64.9931 129.102 65.1193C129.102 65.2456 129.051 65.3666 128.96 65.4558C128.87 65.5451 128.747 65.5953 128.619 65.5953H125.86C125.732 65.5953 125.609 65.5451 125.518 65.4558C125.427 65.3666 125.376 65.2456 125.376 65.1193C125.376 64.9931 125.427 64.8721 125.518 64.7828C125.609 64.6935 125.732 64.6433 125.86 64.6433H128.619Z" fill="white"/>
<path d="M164.516 64.6433C164.644 64.6433 164.767 64.6935 164.858 64.7828C164.949 64.8721 165 64.9931 165 65.1193C165 65.2456 164.949 65.3666 164.858 65.4558C164.767 65.5451 164.644 65.5953 164.516 65.5953H159.851C159.723 65.5953 159.6 65.5451 159.509 65.4558C159.418 65.3666 159.367 65.2456 159.367 65.1193C159.367 64.9931 159.418 64.8721 159.509 64.7828C159.6 64.6935 159.723 64.6433 159.851 64.6433H164.516Z" fill="white"/>
<path d="M156.145 64.6433C156.273 64.6433 156.396 64.6935 156.487 64.7828C156.578 64.8721 156.629 64.9931 156.629 65.1193C156.629 65.2456 156.578 65.3666 156.487 65.4558C156.396 65.5451 156.273 65.5953 156.145 65.5953H148.149C148.02 65.5953 147.897 65.5451 147.807 65.4558C147.716 65.3666 147.665 65.2456 147.665 65.1193C147.665 64.9931 147.716 64.8721 147.807 64.7828C147.897 64.6935 148.02 64.6433 148.149 64.6433H156.145Z" fill="white"/>
<path d="M182.756 68.6965C182.884 68.6965 183.007 68.7466 183.097 68.8356C183.188 68.9246 183.238 69.0454 183.238 69.1713C183.238 69.2972 183.188 69.4179 183.097 69.5069C183.007 69.596 182.884 69.646 182.756 69.646H166.813C166.75 69.646 166.687 69.6336 166.628 69.6098C166.57 69.5859 166.517 69.551 166.473 69.5069C166.428 69.4629 166.391 69.4105 166.367 69.3529C166.343 69.2953 166.331 69.2336 166.331 69.1713C166.331 69.1089 166.343 69.0472 166.367 68.9896C166.391 68.932 166.428 68.8797 166.473 68.8356C166.517 68.7915 166.57 68.7564 166.628 68.7326C166.687 68.7087 166.75 68.6965 166.813 68.6965H182.756Z" fill="white"/>
<path d="M182.637 76.7749C182.765 76.7752 182.888 76.8253 182.978 76.9142C183.069 77.0031 183.12 77.1237 183.121 77.2496C183.122 77.3123 183.11 77.3744 183.085 77.4323C183.061 77.4902 183.025 77.5428 182.98 77.587C182.935 77.6312 182.881 77.666 182.822 77.6896C182.763 77.7132 182.7 77.7251 182.637 77.7244H171.245C171.117 77.724 170.994 77.674 170.903 77.5851C170.813 77.4962 170.761 77.3756 170.76 77.2496C170.763 77.1242 170.815 77.0046 170.905 76.9161C170.995 76.8276 171.118 76.777 171.245 76.7749H182.637Z" fill="white"/>
<path d="M182.635 81.0847C182.763 81.0847 182.886 81.1349 182.977 81.2242C183.067 81.3135 183.119 81.4346 183.119 81.5609C183.119 81.6872 183.067 81.8083 182.977 81.8977C182.886 81.987 182.763 82.0371 182.635 82.0371H179.123C178.994 82.0371 178.871 81.987 178.78 81.8977C178.689 81.8083 178.639 81.6872 178.639 81.5609C178.639 81.4346 178.689 81.3135 178.78 81.2242C178.871 81.1349 178.994 81.0847 179.123 81.0847H182.635Z" fill="white"/>
<path d="M174.772 81.0847C174.9 81.0847 175.024 81.1349 175.114 81.2242C175.205 81.3135 175.256 81.4346 175.256 81.5609C175.256 81.6872 175.205 81.8083 175.114 81.8977C175.024 81.987 174.9 82.0371 174.772 82.0371H171.248C171.119 82.0371 170.997 81.987 170.906 81.8977C170.815 81.8083 170.764 81.6872 170.764 81.5609C170.764 81.4346 170.815 81.3135 170.906 81.2242C170.997 81.1349 171.119 81.0847 171.248 81.0847H174.772Z" fill="white"/>
<path d="M167.077 81.0847C167.206 81.0847 167.329 81.1349 167.42 81.2242C167.51 81.3135 167.561 81.4346 167.561 81.5609C167.561 81.6872 167.51 81.8083 167.42 81.8977C167.329 81.987 167.206 82.0371 167.077 82.0371H154.281C154.152 82.0371 154.029 81.987 153.939 81.8977C153.848 81.8083 153.797 81.6872 153.797 81.5609C153.797 81.4346 153.848 81.3135 153.939 81.2242C154.029 81.1349 154.152 81.0847 154.281 81.0847H167.077Z" fill="white"/>
<path fill-rule="evenodd" clip-rule="evenodd" d="M59.0092 115.255H212.921V109.125H59.0092V115.255Z" fill="white"/>
<path d="M59.4939 114.778H212.438V109.6H59.4939V114.778ZM212.922 115.73H58.5255V108.648H213.406V115.73L212.922 115.73Z" fill="black"/>
<path fill-rule="evenodd" clip-rule="evenodd" d="M17.87 115.255H59.107V109.125H17.87V115.255Z" fill="white"/>
<path d="M18.3542 114.778H58.6228V109.6H18.3542V114.778ZM59.107 115.73H17.3862V108.648H59.5912V115.73L59.107 115.73Z" fill="black"/>
<path fill-rule="evenodd" clip-rule="evenodd" d="M40.2668 50.3767H111.538C112.261 50.3788 112.954 50.6621 113.466 51.1649C113.977 51.6677 114.266 52.3491 114.269 53.0605V92.9621C114.266 93.6736 113.977 94.3552 113.466 94.8582C112.954 95.3611 112.261 95.6446 111.538 95.6468H40.2668C39.5438 95.6445 38.8509 95.3609 38.3395 94.858C37.8281 94.3551 37.5396 93.6735 37.537 92.9621V53.0609C37.5396 52.3495 37.8281 51.6681 38.3395 51.1652C38.851 50.6623 39.5438 50.3789 40.2668 50.3767Z" fill="black"/>
<path fill-rule="evenodd" clip-rule="evenodd" d="M41.369 91.8668H110.436V54.1448H41.369V91.8668Z" fill="white"/>
<path fill-rule="evenodd" clip-rule="evenodd" d="M156.055 204.731H159.704V115.21H156.055V204.731Z" fill="black"/>
<path d="M156.54 204.257H159.221V115.687H156.54V204.257ZM159.706 205.209H156.056C155.992 205.209 155.929 205.197 155.87 205.173C155.812 205.15 155.758 205.115 155.713 205.071C155.668 205.026 155.633 204.974 155.609 204.916C155.585 204.859 155.573 204.796 155.573 204.734V115.209C155.573 115.083 155.624 114.963 155.714 114.874C155.805 114.785 155.928 114.735 156.056 114.735H159.706C159.834 114.735 159.957 114.786 160.047 114.875C160.137 114.963 160.188 115.083 160.189 115.209V204.731C160.19 204.794 160.178 204.856 160.154 204.914C160.13 204.972 160.094 205.025 160.049 205.069C160.005 205.114 159.951 205.149 159.892 205.173C159.833 205.197 159.77 205.209 159.706 205.209Z" fill="black"/>
<path fill-rule="evenodd" clip-rule="evenodd" d="M127.472 194.148L120.463 152.303H135.999L138.331 194.147L127.472 194.148Z" fill="black"/>
<path d="M126.989 194.195L119.99 152.379C119.969 152.255 120 152.128 120.074 152.026C120.149 151.924 120.262 151.856 120.388 151.835C120.413 151.828 120.439 151.825 120.465 151.826H136.001C136.129 151.826 136.252 151.876 136.343 151.965C136.433 152.054 136.484 152.175 136.484 152.301L138.817 194.117C138.822 194.243 138.778 194.366 138.693 194.46C138.608 194.555 138.489 194.613 138.361 194.622H127.472C127.352 194.623 127.236 194.58 127.147 194.501C127.057 194.422 127.001 194.313 126.989 194.195ZM121.036 152.78L127.878 193.671H137.82L135.544 152.78H121.036Z" fill="black"/>
<path fill-rule="evenodd" clip-rule="evenodd" d="M126.559 123.776C126.559 123.776 102.544 129.763 95.7765 131.361C89.0006 132.96 86.1158 138.966 87.3066 145.64C88.4973 152.303 99.3576 194.145 99.3576 194.145H112.348L106.424 147.332L143.111 144.441L144.225 127.964L126.559 123.776Z" fill="black"/>
<path d="M126.569 124.263C124.814 124.701 102.503 130.262 95.8828 131.822C94.4781 132.115 93.1507 132.692 91.9843 133.516C90.8179 134.34 89.8384 135.393 89.1073 136.61C87.6367 139.083 87.1904 142.234 87.7821 145.556C88.904 151.857 98.6815 189.616 99.7364 193.673H111.807L105.941 147.394C105.926 147.268 105.963 147.141 106.043 147.041C106.123 146.941 106.24 146.876 106.368 146.86L142.658 143.995L143.723 128.338L126.569 124.263ZM95.6597 130.898C102.331 129.326 126.375 123.33 126.442 123.311C126.519 123.301 126.598 123.301 126.676 123.311L144.312 127.5C144.43 127.521 144.535 127.584 144.608 127.677C144.681 127.771 144.716 127.887 144.707 128.004L143.593 144.451C143.588 144.567 143.54 144.678 143.458 144.762C143.376 144.847 143.267 144.899 143.149 144.909L106.965 147.764L112.83 194.072V194.149C112.831 194.211 112.818 194.273 112.794 194.331C112.77 194.389 112.735 194.441 112.69 194.485C112.645 194.53 112.591 194.565 112.533 194.588C112.474 194.612 112.411 194.624 112.348 194.623H99.3565C99.2488 194.624 99.1444 194.588 99.0601 194.523C98.9758 194.457 98.9168 194.364 98.893 194.261C98.8535 194.147 88.0216 152.409 86.8317 145.717C86.1935 142.178 86.6868 138.797 88.2648 136.122C89.0649 134.797 90.1348 133.649 91.4074 132.75C92.6799 131.851 94.1277 131.22 95.6597 130.898Z" fill="black"/>
<path fill-rule="evenodd" clip-rule="evenodd" d="M151.775 129.694C151.775 129.694 139.598 129.893 133.401 128.598C127.217 127.294 123.665 124.905 123.665 124.905L130.073 104.268C126.928 107.886 122.193 109.133 117.577 109.133H95.03V100.844L114.399 97.2839C115.447 97.1247 116.44 96.7153 117.29 96.0915C118.141 95.4677 118.823 94.6486 119.277 93.7056C122.027 88.0032 125.938 78.4661 128 74.5728C131.485 67.9861 140.11 64.1294 147.293 64.1294L159.122 64.1199C172.198 64.1199 173.148 75.2373 172.605 81.4627C171.859 90.1531 167.543 98.8344 167.543 98.8344L151.775 129.694Z" fill="#FFBC00"/>
<path d="M151.783 130.17C151.755 130.17 139.546 130.369 133.304 129.066C127.021 127.743 123.401 125.306 123.392 125.297C123.301 125.237 123.234 125.15 123.2 125.048C123.167 124.946 123.17 124.836 123.209 124.736L129.046 105.957C127.843 106.968 126.475 107.773 124.999 108.336C122.627 109.212 120.108 109.645 117.574 109.612H95.0303C94.903 109.61 94.7819 109.559 94.6919 109.47C94.6019 109.382 94.5502 109.262 94.548 109.137V100.847C94.5508 100.73 94.5964 100.619 94.6765 100.533C94.7565 100.447 94.8655 100.393 94.9831 100.38L114.314 96.82C115.303 96.649 116.24 96.2585 117.053 95.6781C117.825 95.1097 118.441 94.3606 118.844 93.4985C120.102 90.8907 121.583 87.5398 123.016 84.2752C124.768 80.305 126.452 76.4792 127.577 74.3569C129.281 71.1298 132.174 68.5509 135.534 66.732C139.139 64.7732 143.177 63.7172 147.295 63.6572H159.124C159.764 63.6572 160.362 63.6768 160.924 63.7247C166.056 64.1527 169.133 66.4373 170.924 69.3878C172.704 72.3102 173.198 75.8696 173.208 78.9159C173.208 79.8489 173.16 80.724 173.091 81.5051C172.336 90.2809 167.99 99.0188 167.981 99.0378L152.212 129.906C152.173 129.986 152.112 130.053 152.036 130.099C151.96 130.146 151.872 130.17 151.783 130.17ZM133.507 128.133C139.093 129.303 149.603 129.247 151.483 129.228L167.105 98.6256C167.115 98.5967 171.384 90.0211 172.129 81.4257C172.189 80.6355 172.236 79.7883 172.236 78.9123C172.236 75.9998 171.762 72.6208 170.097 69.8693C168.451 67.1665 165.605 65.0723 160.843 64.6722C160.281 64.6248 159.71 64.5964 159.119 64.5964L147.291 64.6054C143.336 64.6635 139.457 65.6769 135.995 67.5567C132.8 69.2889 130.041 71.7427 128.424 74.8002C127.302 76.932 125.627 80.7199 123.903 84.6513C122.451 87.9448 120.951 91.343 119.723 93.9037C119.248 94.9047 118.529 95.7744 117.63 96.4355C116.699 97.101 115.627 97.55 114.495 97.7486L95.5117 101.242V108.657H117.573C119.984 108.691 122.381 108.281 124.64 107.449C126.594 106.718 128.334 105.521 129.702 103.965C129.775 103.882 129.874 103.825 129.983 103.806C130.093 103.786 130.206 103.804 130.303 103.856C130.401 103.909 130.477 103.993 130.52 104.094C130.562 104.195 130.567 104.308 130.535 104.413L124.224 124.695C127.106 126.334 130.243 127.496 133.508 128.133H133.507Z" fill="black"/>
<path d="M95.5632 109.138C95.5634 109.206 95.55 109.274 95.5234 109.338C95.4967 109.402 95.4576 109.459 95.4082 109.508C95.3588 109.557 95.3001 109.595 95.2355 109.622C95.1709 109.648 95.1016 109.661 95.0317 109.661C94.8908 109.66 94.7558 109.605 94.656 109.507C94.5563 109.409 94.4998 109.276 94.4984 109.138V100.847C94.5004 100.719 94.55 100.596 94.6376 100.501C94.7252 100.407 94.8449 100.347 94.9743 100.333L114.304 96.7728C115.286 96.602 116.215 96.2149 117.023 95.6404C117.789 95.0762 118.401 94.3338 118.804 93.48C120.062 90.8717 121.535 87.5208 122.976 84.2557C124.718 80.2856 126.413 76.4604 127.527 74.3381C129.24 71.1015 132.143 68.5123 135.512 66.6852C139.123 64.7251 143.169 63.6693 147.292 63.6108H159.122C159.76 63.6108 160.36 63.6297 160.922 63.6772C166.071 64.1057 169.16 66.3996 170.97 69.3694C172.751 72.2914 173.245 75.8611 173.254 78.9165C173.254 79.8499 173.206 80.7251 173.138 81.5057C172.383 90.2915 168.027 99.0387 168.017 99.0694C167.955 99.1945 167.845 99.2905 167.712 99.3361C167.578 99.3817 167.432 99.3732 167.305 99.3125C167.177 99.2519 167.08 99.1441 167.034 99.0127C166.988 98.8813 166.996 98.737 167.057 98.6119C167.077 98.5834 171.336 90.0169 172.082 81.4219C172.15 80.6412 172.189 79.7942 172.189 78.919C172.189 76.0156 171.724 72.6365 170.059 69.9049C168.413 67.2112 165.585 65.1173 160.834 64.7264C160.273 64.6789 159.702 64.6501 159.121 64.6501L147.292 64.6596C143.347 64.7163 139.477 65.7299 136.025 67.6104C132.83 69.3331 130.082 71.7794 128.474 74.8252C127.342 76.9571 125.676 80.7456 123.944 84.6765C122.491 87.9705 121.001 91.3684 119.762 93.9292C119.285 94.9361 118.564 95.8122 117.662 96.4801C116.724 97.1541 115.641 97.6067 114.496 97.8028L95.5615 101.287L95.5632 109.138Z" fill="white"/>
<path fill-rule="evenodd" clip-rule="evenodd" d="M133.814 28.0371C135.281 31.3555 136.032 34.9367 136.022 38.5551C135.924 43.1333 134.676 47.6835 135.324 50.6629C136.776 57.3449 140.251 60.7143 145.585 59.7718C146.563 61.7328 145.856 65.0643 145.856 65.0643C145.856 65.0643 149.893 67.282 153.552 66.9868C154.62 66.9073 155.657 66.5997 156.591 66.0854C157.526 65.5712 158.335 64.8627 158.963 64.0092V56.8417L153.096 29.1712L133.814 28.0371Z" fill="white"/>
<path d="M135.391 73.3352C135.264 73.3352 135.141 73.2852 135.051 73.1961C134.96 73.1071 134.909 72.9864 134.909 72.8605C134.911 72.7352 134.963 72.6157 135.053 72.5271C135.143 72.4385 135.264 72.3877 135.391 72.3857C135.612 72.39 135.832 72.4124 136.049 72.4523C137.385 72.6996 139.011 73.6804 140.288 75.2508C141.733 77.0269 142.514 79.2388 142.497 81.5143C142.493 82.2106 142.425 82.9049 142.292 83.589C141.742 86.5204 140.231 90.0329 138.412 93.3743C136.146 97.524 133.407 101.427 131.403 103.606C129.68 105.561 127.524 107.102 125.101 108.109C122.652 109.107 119.768 109.613 116.205 109.613C116.077 109.612 115.955 109.561 115.865 109.473C115.774 109.384 115.723 109.264 115.722 109.138C115.722 109.076 115.734 109.014 115.758 108.956C115.783 108.898 115.818 108.846 115.863 108.802C115.908 108.757 115.961 108.722 116.02 108.699C116.078 108.675 116.141 108.663 116.205 108.663C119.64 108.663 122.401 108.189 124.724 107.236C127.017 106.28 129.057 104.821 130.689 102.971C132.644 100.839 135.344 97.0125 137.561 92.9297C139.342 89.6642 140.813 86.2474 141.346 83.4204C141.467 82.7929 141.528 82.1556 141.53 81.5168C141.546 79.4566 140.842 77.4537 139.535 75.8433C138.413 74.4542 137.008 73.5994 135.876 73.3879C135.717 73.3562 135.554 73.3386 135.391 73.3352Z" fill="black"/>
<path fill-rule="evenodd" clip-rule="evenodd" d="M71.0898 204.731H74.7393V115.21H71.0898V204.731Z" fill="black"/>
<path d="M71.5745 204.257H74.2564V115.687H71.5745V204.257ZM74.7402 205.209H71.0911C71.0277 205.209 70.9648 205.197 70.9061 205.173C70.8474 205.15 70.794 205.115 70.7491 205.071C70.7043 205.026 70.6687 204.974 70.6446 204.916C70.6205 204.858 70.6082 204.796 70.6087 204.734V115.209C70.6093 115.083 70.6605 114.963 70.7509 114.875C70.8412 114.786 70.9634 114.735 71.0911 114.735H74.7402C74.8679 114.735 74.9903 114.785 75.0807 114.874C75.171 114.963 75.2221 115.083 75.2227 115.209V204.731C75.2235 204.794 75.2117 204.856 75.1878 204.914C75.1639 204.972 75.1284 205.025 75.0835 205.07C75.0385 205.114 74.985 205.149 74.9261 205.173C74.8671 205.197 74.8039 205.209 74.7402 205.209Z" fill="black"/>
<path fill-rule="evenodd" clip-rule="evenodd" d="M112.357 194.146H99.3668L84.6139 200.296V204.731H112.357V194.146Z" fill="white"/>
<path d="M111.873 194.623H99.4607L85.0959 200.609V204.255H111.872L111.873 194.623ZM99.3656 193.671H112.356C112.42 193.67 112.483 193.683 112.541 193.706C112.6 193.73 112.654 193.765 112.699 193.809C112.743 193.853 112.779 193.906 112.803 193.963C112.827 194.021 112.839 194.083 112.839 194.145V204.731C112.839 204.793 112.827 204.855 112.803 204.913C112.779 204.971 112.743 205.024 112.699 205.068C112.654 205.112 112.6 205.147 112.541 205.171C112.483 205.194 112.42 205.206 112.356 205.205H84.6114C84.5481 205.205 84.4854 205.193 84.4268 205.169C84.3683 205.145 84.3153 205.11 84.2705 205.066C84.2257 205.022 84.1902 204.971 84.166 204.913C84.1417 204.855 84.1292 204.793 84.1292 204.731V200.294H84.139C84.1383 200.201 84.1654 200.11 84.217 200.033C84.2685 199.955 84.3419 199.894 84.4285 199.857L99.1433 193.725C99.2112 193.688 99.2878 193.668 99.3656 193.669V193.671Z" fill="black"/>
<path d="M124.251 124.494C124.214 124.616 124.129 124.717 124.015 124.777C123.901 124.837 123.768 124.85 123.645 124.813C123.522 124.776 123.418 124.693 123.358 124.581C123.297 124.469 123.283 124.338 123.321 124.216L128.113 108.978C128.156 108.865 128.241 108.773 128.351 108.72C128.461 108.667 128.587 108.657 128.704 108.692C128.821 108.727 128.92 108.805 128.981 108.909C129.043 109.013 129.061 109.136 129.034 109.254L124.251 124.494Z" fill="white"/>
<path d="M99.8283 194.033C99.8594 194.153 99.8412 194.279 99.7777 194.386C99.7143 194.493 99.6109 194.571 99.4895 194.603C99.3663 194.635 99.2351 194.618 99.1246 194.556C99.014 194.494 98.9327 194.391 98.8984 194.27C98.8699 194.156 88.5315 154.959 86.5767 146.335C85.6271 142.138 86.3346 138.664 88.1824 135.922C90.2438 132.877 93.7195 130.754 97.8919 129.545C105.636 127.298 123.059 123.957 123.108 123.949C123.17 123.936 123.234 123.935 123.297 123.947C123.359 123.958 123.419 123.982 123.472 124.017C123.525 124.051 123.57 124.095 123.606 124.147C123.641 124.199 123.666 124.258 123.678 124.319C123.701 124.443 123.674 124.57 123.604 124.674C123.534 124.779 123.425 124.853 123.301 124.88C123.242 124.889 105.848 128.231 98.1613 130.457C94.2025 131.61 90.9114 133.597 88.9842 136.456C87.2711 138.986 86.6226 142.204 87.5134 146.136C89.4708 154.721 99.7989 193.919 99.8283 194.033Z" fill="white"/>
<path d="M127.291 194.071C127.309 194.196 127.277 194.323 127.201 194.424C127.125 194.526 127.011 194.594 126.884 194.614C126.822 194.624 126.759 194.622 126.697 194.608C126.636 194.594 126.578 194.568 126.527 194.532C126.476 194.496 126.432 194.45 126.399 194.398C126.366 194.345 126.344 194.286 126.334 194.225L119.992 155.76C119.973 155.637 120.005 155.511 120.079 155.41C120.153 155.309 120.265 155.24 120.39 155.218C120.518 155.201 120.648 155.232 120.752 155.306C120.856 155.381 120.927 155.492 120.95 155.617L127.291 194.071Z" fill="white"/>
<path d="M158.478 56.8197C158.478 56.6938 158.529 56.5731 158.619 56.4841C158.71 56.395 158.833 56.345 158.961 56.345C159.024 56.3445 159.087 56.3563 159.146 56.38C159.204 56.4036 159.258 56.4386 159.303 56.4828C159.348 56.527 159.383 56.5796 159.407 56.6375C159.431 56.6953 159.443 56.7572 159.443 56.8197V63.9867C159.444 64.0855 159.413 64.1821 159.355 64.263C159.066 64.729 155.939 69.365 147.875 66.4616C147.756 66.4168 147.659 66.3283 147.605 66.2146C147.551 66.1009 147.544 65.9709 147.585 65.8522C147.606 65.793 147.639 65.7386 147.681 65.692C147.724 65.6455 147.776 65.6076 147.833 65.581C147.891 65.5544 147.953 65.5394 148.017 65.537C148.081 65.5345 148.144 65.5446 148.204 65.5667C155.212 68.0895 158.021 64.5197 158.475 63.8534L158.478 56.8197Z" fill="black"/>
<path d="M49.4041 61.5988C49.2759 61.5988 49.1528 61.5487 49.0621 61.4595C48.9714 61.3703 48.9205 61.2492 48.9205 61.123C48.9205 60.9968 48.9714 60.8757 49.0621 60.7865C49.1528 60.6973 49.2759 60.6472 49.4041 60.6472H65.347C65.4753 60.6472 65.5981 60.6973 65.6888 60.7865C65.7795 60.8757 65.8306 60.9968 65.8306 61.123C65.8306 61.2492 65.7795 61.3703 65.6888 61.4595C65.5981 61.5487 65.4753 61.5988 65.347 61.5988H49.4041Z" fill="black"/>
<path d="M68.6017 61.5988C68.4735 61.5988 68.3504 61.5487 68.2597 61.4595C68.169 61.3703 68.1182 61.2492 68.1182 61.123C68.1182 60.9968 68.169 60.8757 68.2597 60.7865C68.3504 60.6973 68.4735 60.6472 68.6017 60.6472H71.3609C71.4892 60.6472 71.612 60.6973 71.7027 60.7865C71.7934 60.8757 71.8445 60.9968 71.8445 61.123C71.8445 61.2492 71.7934 61.3703 71.7027 61.4595C71.612 61.5487 71.4892 61.5988 71.3609 61.5988H68.6017Z" fill="#FFBC00"/>
<path d="M75.5495 61.5988C75.4212 61.5988 75.2982 61.5487 75.2075 61.4595C75.1168 61.3703 75.0659 61.2492 75.0659 61.123C75.0659 60.9968 75.1168 60.8757 75.2075 60.7865C75.2982 60.6973 75.4212 60.6472 75.5495 60.6472H80.2055C80.3337 60.6472 80.4568 60.6973 80.5475 60.7865C80.6382 60.8757 80.689 60.9968 80.689 61.123C80.689 61.2492 80.6382 61.3703 80.5475 61.4595C80.4568 61.5487 80.3337 61.5988 80.2055 61.5988H75.5495Z" fill="black"/>
<path d="M83.8627 61.5988C83.7345 61.5988 83.6112 61.5487 83.5205 61.4595C83.4298 61.3703 83.3792 61.2492 83.3792 61.123C83.3792 60.9968 83.4298 60.8757 83.5205 60.7865C83.6112 60.6973 83.7345 60.6472 83.8627 60.6472H89.5439C89.6721 60.6472 89.7954 60.6973 89.8861 60.7865C89.9768 60.8757 90.0274 60.9968 90.0274 61.123C90.0274 61.2492 89.9768 61.3703 89.8861 61.4595C89.7954 61.5487 89.6721 61.5988 89.5439 61.5988H83.8627Z" fill="#FFBC00"/>
<path d="M49.4046 65.5953C49.2763 65.5953 49.1531 65.5451 49.0623 65.4558C48.9716 65.3666 48.9208 65.2456 48.9208 65.1193C48.9208 64.9931 48.9716 64.8721 49.0623 64.7828C49.1531 64.6935 49.2763 64.6433 49.4046 64.6433H56.6741C56.8024 64.6433 56.9256 64.6935 57.0163 64.7828C57.1071 64.8721 57.1579 64.9931 57.1579 65.1193C57.1579 65.2456 57.1071 65.3666 57.0163 65.4558C56.9256 65.5451 56.8024 65.5953 56.6741 65.5953H49.4046Z" fill="black"/>
<path d="M60.911 65.5953C60.7827 65.5953 60.6595 65.5451 60.5688 65.4558C60.4781 65.3666 60.4272 65.2456 60.4272 65.1193C60.4272 64.9931 60.4781 64.8721 60.5688 64.7828C60.6595 64.6935 60.7827 64.6433 60.911 64.6433H63.6698C63.7981 64.6433 63.9211 64.6935 64.0118 64.7828C64.1025 64.8721 64.1536 64.9931 64.1536 65.1193C64.1536 65.2456 64.1025 65.3666 64.0118 65.4558C63.9211 65.5451 63.7981 65.5953 63.6698 65.5953H60.911Z" fill="#FFBC00"/>
<path d="M67.6539 65.5953C67.5256 65.5953 67.4024 65.5451 67.3117 65.4558C67.221 65.3666 67.1702 65.2456 67.1702 65.1193C67.1702 64.9931 67.221 64.8721 67.3117 64.7828C67.4024 64.6935 67.5256 64.6433 67.6539 64.6433H72.3196C72.4479 64.6433 72.5711 64.6935 72.6618 64.7828C72.7525 64.8721 72.8034 64.9931 72.8034 65.1193C72.8034 65.2456 72.7525 65.3666 72.6618 65.4558C72.5711 65.5451 72.4479 65.5953 72.3196 65.5953H67.6539Z" fill="black"/>
<path d="M76.0136 65.5953C75.8853 65.5953 75.7621 65.5451 75.6713 65.4558C75.5806 65.3666 75.5298 65.2456 75.5298 65.1193C75.5298 64.9931 75.5806 64.8721 75.6713 64.7828C75.7621 64.6935 75.8853 64.6433 76.0136 64.6433H84.0096C84.1379 64.6433 84.2608 64.6935 84.3516 64.7828C84.4423 64.8721 84.4933 64.9931 84.4933 65.1193C84.4933 65.2456 84.4423 65.3666 84.3516 65.4558C84.2608 65.5451 84.1379 65.5953 84.0096 65.5953H76.0136Z" fill="black"/>
<path d="M49.404 69.648C49.2761 69.648 49.1533 69.5979 49.0629 69.5089C48.9724 69.4199 48.9215 69.2991 48.9215 69.1732C48.9215 69.0473 48.9724 68.9266 49.0629 68.8376C49.1533 68.7485 49.2761 68.6985 49.404 68.6985H65.3469C65.4749 68.6985 65.5976 68.7485 65.6881 68.8376C65.7786 68.9266 65.8292 69.0473 65.8292 69.1732C65.8292 69.2991 65.7786 69.4199 65.6881 69.5089C65.5976 69.5979 65.4749 69.648 65.3469 69.648H49.404Z" fill="#FFBC00"/>
<path d="M49.5207 77.7273C49.4572 77.7278 49.3942 77.7158 49.3355 77.6921C49.2767 77.6684 49.2234 77.6335 49.1785 77.5893C49.1336 77.5451 49.0981 77.4926 49.074 77.4348C49.0499 77.377 49.0378 77.315 49.0382 77.2526C49.039 77.1269 49.0901 77.0066 49.1804 76.9177C49.2707 76.8289 49.393 76.7786 49.5207 76.7778H60.9137C61.0408 76.7803 61.1621 76.8311 61.252 76.9196C61.342 77.0081 61.3935 77.1274 61.3959 77.2526C61.3951 77.3782 61.3441 77.4985 61.2537 77.5874C61.1634 77.6762 61.0414 77.7265 60.9137 77.7273H49.5207Z" fill="black"/>
<path d="M49.5211 82.0371C49.3927 82.0371 49.2696 81.987 49.1789 81.8977C49.0881 81.8083 49.0371 81.6872 49.0371 81.5609C49.0371 81.4346 49.0881 81.3135 49.1789 81.2242C49.2696 81.1349 49.3927 81.0847 49.5211 81.0847H53.0346C53.1629 81.0847 53.286 81.1349 53.3768 81.2242C53.4676 81.3135 53.5186 81.4346 53.5186 81.5609C53.5186 81.6872 53.4676 81.8083 53.3768 81.8977C53.286 81.987 53.1629 82.0371 53.0346 82.0371H49.5211Z" fill="black"/>
<path d="M57.3895 82.0371C57.2612 82.0371 57.1381 81.987 57.0473 81.8977C56.9565 81.8083 56.9055 81.6872 56.9055 81.5609C56.9055 81.4346 56.9565 81.3135 57.0473 81.2242C57.1381 81.1349 57.2612 81.0847 57.3895 81.0847H60.9133C61.0416 81.0847 61.1647 81.1349 61.2555 81.2242C61.3462 81.3135 61.3973 81.4346 61.3973 81.5609C61.3973 81.6872 61.3462 81.8083 61.2555 81.8977C61.1647 81.987 61.0416 82.0371 60.9133 82.0371H57.3895Z" fill="black"/>
<path d="M65.089 82.0371C64.9606 82.0371 64.8375 81.987 64.7468 81.8977C64.656 81.8083 64.605 81.6872 64.605 81.5609C64.605 81.4346 64.656 81.3135 64.7468 81.2242C64.8375 81.1349 64.9606 81.0847 65.089 81.0847H77.8853C78.0137 81.0847 78.1368 81.1349 78.2275 81.2242C78.3183 81.3135 78.3693 81.4346 78.3693 81.5609C78.3693 81.6872 78.3183 81.8083 78.2275 81.8977C78.1368 81.987 78.0137 82.0371 77.8853 82.0371H65.089Z" fill="#FFBC00"/>
<path d="M63.8009 104.623H95.0578V105.573H63.8009V104.623Z" fill="white"/>
<path fill-rule="evenodd" clip-rule="evenodd" d="M52.5912 109.129H60.7415C61.5548 109.128 62.3345 108.809 62.9099 108.244C63.4853 107.678 63.8095 106.912 63.8117 106.112V90.3767H49.521V106.11C49.5243 106.91 49.849 107.676 50.4241 108.242C50.9992 108.807 51.7781 109.126 52.5912 109.129Z" fill="#FFBC00"/>
<path d="M52.5909 108.654H60.7417C61.4263 108.652 62.0822 108.383 62.5663 107.907C63.0505 107.431 63.3237 106.785 63.3264 106.112V90.8541H50.0071V106.112C50.0096 106.785 50.2827 107.43 50.7667 107.907C51.2507 108.383 51.9064 108.651 52.5909 108.654ZM60.7417 109.606H52.5909C51.65 109.601 50.7488 109.232 50.0835 108.577C49.4182 107.922 49.0425 107.036 49.0382 106.11V90.3769C49.0378 90.3144 49.0499 90.2524 49.074 90.1946C49.0981 90.1368 49.1336 90.0843 49.1785 90.0401C49.2234 89.996 49.2767 89.961 49.3355 89.9373C49.3942 89.9136 49.4572 89.9017 49.5207 89.9021H63.8078C63.8713 89.9017 63.9343 89.9136 63.993 89.9373C64.0518 89.961 64.1051 89.996 64.15 90.0401C64.1949 90.0843 64.2304 90.1368 64.2545 90.1946C64.2786 90.2524 64.2907 90.3144 64.2903 90.3769V106.111C64.2903 107.038 63.9159 107.927 63.2497 108.583C62.5834 109.238 61.6798 109.606 60.7376 109.606L60.7417 109.606Z" fill="black"/>
<path d="M48.9246 95.7162H46.4759C46.3387 95.716 46.2031 95.743 46.0767 95.7955C45.9504 95.848 45.836 95.9249 45.7405 96.0218C45.6413 96.1151 45.5627 96.2274 45.5094 96.3517C45.4561 96.4761 45.4291 96.6099 45.4304 96.7449V100.802C45.4321 101.074 45.5437 101.334 45.7405 101.526C45.8362 101.622 45.9506 101.699 46.0769 101.751C46.2033 101.803 46.3388 101.83 46.4759 101.83H48.9246V95.7162ZM46.4759 94.7668H49.8926V102.781H46.4759C45.9423 102.78 45.4311 102.571 45.0537 102.2C44.6763 101.829 44.4637 101.326 44.4624 100.801V96.7441C44.4639 96.2193 44.6766 95.7163 45.0539 95.3454C45.4312 94.9744 45.9425 94.7657 46.4759 94.7646V94.7668Z" fill="black"/>
<path d="M53.0061 93.7645C53.0061 93.6382 53.0571 93.5171 53.1479 93.4278C53.2386 93.3385 53.3617 93.2883 53.4901 93.2883C53.6185 93.2883 53.7416 93.3385 53.8323 93.4278C53.9231 93.5171 53.9741 93.6382 53.9741 93.7645V105.272C53.9741 105.399 53.9231 105.52 53.8323 105.609C53.7416 105.698 53.6185 105.749 53.4901 105.749C53.3617 105.749 53.2386 105.698 53.1479 105.609C53.0571 105.52 53.0061 105.399 53.0061 105.272V93.7645Z" fill="white"/>
<path d="M165.388 154.958C165.364 154.9 165.352 154.838 165.353 154.775C165.354 154.713 165.367 154.651 165.392 154.593C165.418 154.535 165.455 154.483 165.5 154.44C165.546 154.396 165.6 154.362 165.66 154.339C165.779 154.294 165.912 154.296 166.03 154.346C166.148 154.396 166.241 154.489 166.289 154.606L186.57 204.559C186.617 204.677 186.614 204.808 186.563 204.924C186.512 205.04 186.417 205.131 186.298 205.179C186.178 205.222 186.046 205.218 185.928 205.169C185.811 205.119 185.718 205.027 185.668 204.911L165.388 154.958Z" fill="#1BD9C4"/>
<path d="M84.6139 199.819H112.357V200.771H84.6139V199.819Z" fill="black"/>
<path d="M110.591 199.819H138.333V200.771H110.591V199.819Z" fill="black"/>
<path d="M135.258 154.958C135.212 154.841 135.214 154.71 135.265 154.594C135.316 154.479 135.41 154.387 135.528 154.339C135.588 154.316 135.651 154.304 135.715 154.305C135.779 154.305 135.842 154.319 135.9 154.343C135.959 154.368 136.012 154.405 136.056 154.45C136.1 154.495 136.135 154.548 136.159 154.606L156.437 204.559C156.461 204.617 156.472 204.678 156.472 204.74C156.471 204.802 156.458 204.863 156.433 204.92C156.408 204.977 156.372 205.029 156.327 205.072C156.282 205.116 156.229 205.15 156.171 205.173C156.112 205.196 156.049 205.208 155.986 205.207C155.923 205.206 155.861 205.193 155.803 205.169C155.745 205.145 155.693 205.109 155.649 205.065C155.605 205.021 155.57 204.968 155.547 204.911L135.258 154.958Z" fill="black"/>
<path d="M115.615 154.608C115.639 154.55 115.674 154.496 115.718 154.451C115.762 154.406 115.815 154.37 115.873 154.345C115.932 154.32 115.995 154.307 116.058 154.306C116.122 154.305 116.185 154.317 116.245 154.34C116.363 154.388 116.458 154.48 116.508 154.595C116.559 154.711 116.562 154.842 116.516 154.959L96.226 204.912C96.1791 205.028 96.0879 205.12 95.972 205.17C95.8562 205.22 95.7254 205.224 95.6071 205.18C95.4883 205.132 95.3931 205.04 95.3424 204.924C95.2918 204.808 95.2897 204.678 95.3364 204.56L115.615 154.608Z" fill="#1BD9C4"/>
<path d="M115.615 154.629C115.638 154.571 115.673 154.517 115.717 154.472C115.761 154.427 115.814 154.391 115.872 154.366C115.931 154.342 115.994 154.328 116.057 154.327C116.121 154.326 116.184 154.338 116.243 154.361C116.361 154.409 116.456 154.501 116.507 154.616C116.557 154.732 116.56 154.863 116.514 154.98L110.242 170.419C110.219 170.477 110.184 170.53 110.14 170.575C110.095 170.62 110.043 170.656 109.984 170.681C109.926 170.706 109.863 170.72 109.799 170.72C109.736 170.721 109.672 170.71 109.613 170.686C109.495 170.638 109.4 170.547 109.349 170.431C109.298 170.315 109.296 170.184 109.342 170.067L115.615 154.629Z" fill="black"/>
<path d="M145.746 154.608C145.768 154.55 145.802 154.497 145.846 154.452C145.889 154.407 145.941 154.371 145.998 154.346C146.056 154.321 146.118 154.308 146.181 154.307C146.244 154.306 146.307 154.317 146.366 154.34C146.425 154.363 146.479 154.398 146.524 154.441C146.57 154.485 146.607 154.537 146.632 154.594C146.657 154.652 146.671 154.714 146.671 154.777C146.672 154.839 146.66 154.901 146.637 154.96L126.357 204.912C126.308 205.029 126.215 205.122 126.098 205.172C125.98 205.222 125.847 205.225 125.727 205.18C125.61 205.13 125.516 205.039 125.466 204.923C125.415 204.808 125.412 204.678 125.457 204.56L145.746 154.608Z" fill="black"/>
<path d="M137.403 175.148C137.426 175.09 137.46 175.038 137.504 174.993C137.548 174.949 137.6 174.914 137.658 174.89C137.715 174.867 137.777 174.854 137.84 174.854C137.903 174.854 137.965 174.867 138.023 174.891C138.081 174.913 138.135 174.947 138.181 174.989C138.226 175.032 138.262 175.083 138.288 175.139C138.313 175.196 138.327 175.257 138.328 175.319C138.329 175.38 138.318 175.442 138.295 175.499L126.358 204.912C126.309 205.028 126.216 205.121 126.099 205.171C125.981 205.221 125.848 205.224 125.729 205.178C125.612 205.129 125.519 205.037 125.468 204.922C125.418 204.807 125.414 204.677 125.458 204.56L137.403 175.148Z" fill="#1BD9C4"/>
<path fill-rule="evenodd" clip-rule="evenodd" d="M187.786 86.9219H159.781C157.042 86.9219 154.195 89.13 153.46 91.8237L139.732 142.185H109.811C108.109 142.189 106.478 142.856 105.275 144.04C104.072 145.225 103.396 146.83 103.394 148.504C103.398 150.177 104.076 151.78 105.278 152.963C106.481 154.146 108.11 154.812 109.811 154.816H169.284C172.024 154.816 174.87 152.608 175.605 149.914L191.432 91.8224C192.17 89.1305 190.525 86.9219 187.786 86.9219Z" fill="#FFBC00"/>
<path d="M187.784 87.3978H159.78C158.458 87.4378 157.188 87.9101 156.169 88.7403C155.091 89.5453 154.304 90.6697 153.923 91.948L140.208 142.309C140.178 142.41 140.116 142.499 140.03 142.562C139.945 142.625 139.841 142.66 139.734 142.661H109.813C108.247 142.674 106.751 143.295 105.648 144.389C104.546 145.482 103.928 146.96 103.928 148.5C103.928 150.041 104.546 151.519 105.648 152.612C106.751 153.706 108.247 154.327 109.813 154.34H169.286C170.605 154.298 171.875 153.83 172.897 153.007C173.97 152.193 174.755 151.068 175.142 149.79L190.968 91.7084C191.071 91.3359 191.123 90.9519 191.124 90.5661C191.138 89.8697 190.921 89.1877 190.504 88.6242C190.089 88.0788 189.494 87.6924 188.821 87.5303C188.483 87.4409 188.134 87.3963 187.784 87.3978ZM159.78 86.4483H187.784C188.219 86.4474 188.652 86.5018 189.072 86.6102C189.951 86.8354 190.729 87.3448 191.279 88.0567C191.821 88.7849 192.107 89.6675 192.092 90.5701C192.092 91.0369 192.027 91.5015 191.899 91.9509L176.072 150.043C175.632 151.516 174.731 152.815 173.497 153.754C172.306 154.712 170.824 155.254 169.286 155.295H109.813C107.982 155.295 106.227 154.58 104.932 153.306C103.638 152.033 102.911 150.305 102.911 148.504C102.911 146.703 103.638 144.976 104.932 143.702C106.227 142.429 107.982 141.713 109.813 141.713H139.366L152.996 91.7124C153.425 90.2316 154.327 88.9263 155.57 87.9903C156.761 87.0312 158.241 86.488 159.78 86.4458V86.4483Z" fill="black"/>
<path d="M141.422 154.941C141.388 155.061 141.306 155.164 141.196 155.226C141.085 155.289 140.954 155.306 140.831 155.274C140.769 155.259 140.711 155.233 140.66 155.196C140.609 155.16 140.567 155.113 140.534 155.06C140.502 155.007 140.48 154.948 140.471 154.886C140.462 154.825 140.466 154.762 140.482 154.702L156.578 94.0702C156.991 92.643 157.86 91.3847 159.057 90.4819C160.209 89.5514 161.643 89.0255 163.132 88.9875H191.301C191.428 88.9898 191.55 89.0406 191.64 89.1291C191.73 89.2177 191.781 89.3371 191.784 89.4623C191.783 89.5879 191.732 89.7083 191.641 89.7971C191.551 89.886 191.429 89.9362 191.301 89.937H163.132C161.857 89.9768 160.631 90.4322 159.647 91.2317C158.617 92.0025 157.87 93.0818 157.519 94.3068L141.422 154.941Z" fill="black"/>
<path d="M159.792 86.3992C159.933 86.4001 160.068 86.4554 160.168 86.5532C160.268 86.651 160.325 86.7835 160.326 86.9222C160.326 86.9911 160.312 87.0593 160.285 87.123C160.259 87.1866 160.219 87.2444 160.169 87.293C160.12 87.3416 160.061 87.38 159.996 87.4062C159.931 87.4323 159.862 87.4455 159.792 87.4452C158.481 87.4878 157.222 87.9565 156.211 88.7779C155.142 89.58 154.362 90.6972 153.985 91.9664L140.257 142.32C140.228 142.431 140.161 142.53 140.068 142.601C139.975 142.671 139.861 142.709 139.744 142.708H109.823C108.263 142.715 106.77 143.329 105.668 144.414C104.565 145.5 103.943 146.971 103.938 148.505C103.936 148.644 103.88 148.776 103.78 148.874C103.681 148.972 103.546 149.027 103.405 149.028C103.335 149.029 103.266 149.015 103.201 148.989C103.137 148.963 103.078 148.925 103.028 148.876C102.979 148.827 102.939 148.77 102.912 148.706C102.886 148.642 102.872 148.574 102.872 148.505C102.877 146.692 103.611 144.955 104.913 143.673C106.215 142.39 107.981 141.667 109.823 141.662H139.337L152.957 91.6889C153.395 90.2022 154.304 88.8919 155.552 87.9483C156.753 86.9856 158.244 86.4409 159.792 86.3992Z" fill="white"/>
<path d="M181.488 110.779C181.616 110.779 181.739 110.829 181.829 110.918C181.92 111.007 181.971 111.127 181.971 111.253C181.971 111.379 181.92 111.5 181.829 111.589C181.739 111.678 181.616 111.728 181.488 111.728H157.415C157.287 111.728 157.164 111.678 157.074 111.589C156.983 111.5 156.932 111.379 156.932 111.253C156.932 111.127 156.983 111.007 157.074 110.918C157.164 110.829 157.287 110.779 157.415 110.779H181.488Z" fill="black"/>
<path d="M176.138 132.559C176.266 132.559 176.389 132.609 176.48 132.698C176.571 132.787 176.622 132.907 176.623 133.033C176.62 133.159 176.568 133.278 176.478 133.367C176.387 133.455 176.266 133.506 176.138 133.508H152.055C151.928 133.507 151.805 133.457 151.715 133.368C151.625 133.279 151.573 133.159 151.573 133.033C151.572 132.971 151.585 132.909 151.609 132.851C151.633 132.793 151.668 132.741 151.713 132.697C151.758 132.653 151.811 132.618 151.87 132.594C151.929 132.57 151.992 132.558 152.055 132.559H176.138Z" fill="black"/>
<path fill-rule="evenodd" clip-rule="evenodd" d="M168.182 17.8332C168.182 17.8332 163.643 18.49 161.717 20.4509C159.801 22.4119 158.34 21.1457 158.34 21.1457C158.204 17.9761 157.062 15.7394 155.668 13.378C157.885 12.864 160.451 15.2245 159.849 18.8586C159.848 18.8607 162.541 15.1775 168.182 17.8332Z" fill="black"/>
<path fill-rule="evenodd" clip-rule="evenodd" d="M132.438 35.5833C137.007 31.3382 142.003 30.1675 145.41 32.9561C144.471 38.334 143.058 49.8229 145.904 56.4C147.094 59.1701 150.086 60.1311 153.317 60.1311C155.873 60.1311 158.205 58.9034 160.199 56.4475C165.087 50.3938 168.495 38.4194 168.156 29.9193C167.933 24.018 164.245 20.1151 159.367 20.4685C156.675 16.5376 147.577 16.1756 140.917 18.8123C134.529 21.3454 129.668 26.8756 132.438 35.5833Z" fill="black"/>
<path fill-rule="evenodd" clip-rule="evenodd" d="M141.977 25.8383C141.977 25.8383 136.857 30.6357 137.583 37.0152C138.041 40.8583 139.82 44.4319 142.626 47.1431C142.626 47.1431 143.488 40.2233 147.709 36.73C151.919 33.2461 148.619 25.7075 148.619 25.7075L141.977 25.8383Z" fill="black"/>
<path d="M5.2363 205.206C5.10805 205.206 4.98505 205.157 4.89437 205.067C4.80369 204.978 4.75275 204.857 4.75275 204.731C4.75275 204.605 4.80369 204.483 4.89437 204.394C4.98505 204.305 5.10805 204.255 5.2363 204.255H239.425C239.553 204.255 239.676 204.305 239.767 204.394C239.857 204.483 239.908 204.605 239.908 204.731C239.908 204.857 239.857 204.978 239.767 205.067C239.676 205.157 239.553 205.206 239.425 205.206H5.2363Z" fill="black"/>
<path fill-rule="evenodd" clip-rule="evenodd" d="M34.8681 181.704C34.8681 181.704 38.5273 168.569 30.0283 158.546C21.5195 148.532 7.68671 150.503 7.68671 150.503C7.68671 150.503 15.2371 156.433 19.6897 163.6C24.1423 170.767 27.3177 183.361 27.3177 183.361L34.8681 181.704Z" fill="#1BD9C4"/>
<path d="M34.4712 181.305C34.9356 179.391 37.2878 167.846 29.6506 158.851C22.7585 150.741 12.3134 150.656 8.87745 150.867C11.0266 152.675 16.5344 157.616 20.0967 163.355C24.0945 169.79 27.0567 180.498 27.6664 182.801L34.4712 181.305ZM30.3957 158.241C39.0593 168.456 35.3422 181.79 35.3325 181.829C35.3095 181.914 35.2629 181.991 35.1979 182.051C35.1329 182.112 35.0521 182.153 34.9646 182.171L27.4528 183.817L27.4335 183.827C27.3081 183.855 27.1763 183.834 27.0661 183.769C26.9559 183.703 26.876 183.598 26.8431 183.476C26.8335 183.436 23.6874 170.959 19.2734 163.849C14.8691 156.757 7.40598 150.894 7.38756 150.874C7.28899 150.8 7.22324 150.69 7.20378 150.569C7.18835 150.443 7.2231 150.317 7.30072 150.216C7.37834 150.115 7.49277 150.047 7.62 150.027C7.65772 150.027 21.7221 148.029 30.3962 158.241L30.3957 158.241Z" fill="black"/>
<path d="M18.4892 155.272C18.4276 155.256 18.3698 155.228 18.319 155.191C18.2682 155.153 18.2254 155.106 18.1931 155.052C18.1608 154.998 18.1396 154.939 18.1308 154.877C18.1219 154.815 18.1255 154.752 18.1414 154.691C18.1573 154.631 18.1852 154.574 18.2234 154.524C18.2617 154.474 18.3096 154.432 18.3644 154.4C18.4191 154.368 18.4797 154.347 18.5427 154.339C18.6057 154.33 18.6698 154.334 18.7313 154.349C18.7699 154.358 31.5383 157.376 32.3413 179.611C32.3438 179.673 32.3339 179.735 32.3121 179.793C32.2903 179.851 32.2571 179.904 32.2143 179.95C32.128 180.042 32.0081 180.096 31.8811 180.101C31.754 180.106 31.6301 180.061 31.5367 179.976C31.4433 179.891 31.388 179.773 31.383 179.648C30.5997 158.128 18.5186 155.282 18.4892 155.272Z" fill="black"/>
<path fill-rule="evenodd" clip-rule="evenodd" d="M70.0161 166.853C62.6013 159.867 51.7982 160.998 43.6285 165.834C38.4496 168.898 34.2198 173.592 32.7953 179.626C30.4817 189.497 42.2527 187.021 42.2527 187.021C41.4211 172.26 57.6741 166.853 70.0161 166.853Z" fill="#1BD9C4"/>
<path d="M68.7777 166.396C65.7403 163.912 61.9427 162.504 57.9944 162.397C53.1541 162.217 48.1496 163.712 43.8808 166.244C41.2103 167.799 38.8542 169.824 36.9304 172.22C35.174 174.434 33.9258 176.997 33.2717 179.731C31.3743 187.832 39.7865 186.947 41.7611 186.633C41.7514 186.395 41.7414 186.166 41.7414 185.948C41.7414 179.236 45.2843 174.506 50.3181 171.374C55.2935 168.281 61.7308 166.766 67.6163 166.444C68.0128 166.425 68.3904 166.404 68.7777 166.396ZM58.0229 161.456C62.6152 161.574 66.9996 163.364 70.3263 166.481C70.3818 166.527 70.4262 166.584 70.4565 166.648C70.4869 166.712 70.5023 166.782 70.5017 166.853C70.4995 166.978 70.4479 167.098 70.3579 167.187C70.2679 167.275 70.1466 167.325 70.0193 167.328C69.2351 167.328 68.4513 167.347 67.6768 167.386C61.9369 167.701 55.6636 169.175 50.8347 172.174C46.072 175.144 42.7133 179.607 42.7133 185.948C42.7133 186.309 42.7229 186.651 42.7422 186.994C42.7514 187.109 42.7169 187.224 42.6454 187.315C42.574 187.407 42.4707 187.469 42.3554 187.49C42.3264 187.499 29.8485 190.125 32.3367 179.521C33.0206 176.653 34.3284 173.964 36.17 171.64C38.1655 169.153 40.6103 167.049 43.3817 165.434C47.801 162.816 52.9992 161.256 58.0229 161.456Z" fill="black"/>
<path d="M38.9761 181.436C38.9448 181.558 38.8665 181.662 38.7579 181.728C38.6494 181.794 38.5191 181.815 38.3948 181.787C38.3327 181.774 38.274 181.749 38.222 181.713C38.1701 181.677 38.1261 181.631 38.0927 181.578C38.0592 181.525 38.037 181.466 38.0275 181.404C38.0179 181.342 38.0212 181.279 38.037 181.218C39.0729 176.934 41.0379 173.042 44.3778 170.137C47.7172 167.226 52.422 165.312 58.9461 164.969C59.0091 164.966 59.0721 164.975 59.1316 164.996C59.191 165.016 59.2457 165.049 59.2925 165.09C59.3393 165.132 59.3772 165.182 59.4041 165.238C59.431 165.294 59.4463 165.355 59.4492 165.417C59.4542 165.48 59.4462 165.542 59.4257 165.602C59.4053 165.661 59.3728 165.715 59.3302 165.761C59.2876 165.808 59.2358 165.845 59.178 165.871C59.1203 165.897 59.0578 165.91 58.9943 165.912C52.7119 166.245 48.201 168.072 45.0164 170.843C41.8405 173.613 39.9726 177.335 38.9761 181.436Z" fill="black"/>
<path fill-rule="evenodd" clip-rule="evenodd" d="M0.484924 174.611C0.484924 174.611 7.68664 164.017 20.9388 165.816C34.1909 167.615 39.6404 179.628 39.6404 179.628L27.9567 184.633C19.2931 173.002 13.8726 173.383 0.484924 174.611Z" fill="#1BD9C4"/>
<path d="M0.0880135 174.334C0.107312 174.307 7.45639 163.502 21.0063 165.348C34.5194 167.186 40.0663 179.398 40.0759 179.427C40.1036 179.483 40.1195 179.544 40.1227 179.606C40.126 179.668 40.1164 179.731 40.0948 179.789C40.0731 179.848 40.0396 179.901 39.9965 179.947C39.9533 179.992 39.9013 180.029 39.8435 180.054L28.1514 185.073C28.0511 185.114 27.9397 185.122 27.8347 185.094C27.7297 185.066 27.6369 185.006 27.5707 184.921C23.3116 179.2 19.8655 176.431 15.8581 175.261C11.8314 174.08 7.1656 174.47 0.524853 175.079C0.397536 175.09 0.271263 175.05 0.173401 174.969C0.0755399 174.889 0.0139747 174.773 0.0020491 174.648C-0.00851353 174.536 0.0220005 174.425 0.0880135 174.334ZM20.8708 166.282C10.184 164.835 3.53405 171.603 1.52879 174.038C7.70463 173.477 12.1572 173.184 16.1261 174.344C20.2787 175.562 23.8216 178.351 28.1194 184.054L38.99 179.389C37.879 177.248 32.3905 167.854 20.8708 166.284V166.282Z" fill="black"/>
<path d="M10.0389 171.087C9.97611 171.097 9.91198 171.094 9.85021 171.08C9.78844 171.065 9.73026 171.038 9.67899 171.001C9.62772 170.964 9.58438 170.917 9.55146 170.864C9.51854 170.81 9.49668 170.751 9.48716 170.689C9.47175 170.564 9.50653 170.437 9.58417 170.336C9.66182 170.235 9.77628 170.168 9.9034 170.148C9.95164 170.148 28.5375 167.481 34.3844 181.14C34.4098 181.198 34.4231 181.26 34.4236 181.324C34.4241 181.387 34.4117 181.45 34.3872 181.508C34.3627 181.567 34.3265 181.62 34.2809 181.664C34.2352 181.709 34.1809 181.744 34.1213 181.768C34.003 181.813 33.8714 181.812 33.7541 181.765C33.6368 181.717 33.5428 181.626 33.4918 181.512C27.9371 168.527 10.0872 171.087 10.0389 171.087Z" fill="black"/>
<path fill-rule="evenodd" clip-rule="evenodd" d="M48.9233 218.228L54.1505 179.611H15.934L21.1612 218.228H48.9233Z" fill="white"/>
<path d="M48.4961 217.754L53.5974 180.09H16.484L21.5853 217.754H48.4961ZM54.6334 179.671L49.3382 218.705H20.7419C18.9524 205.512 17.1659 192.323 15.3823 179.137H54.7026L54.6334 179.671Z" fill="black"/>
<path fill-rule="evenodd" clip-rule="evenodd" d="M48.9233 218.228L54.1505 213.126H15.934L21.1612 218.228H48.9233Z" fill="white"/>
<path d="M48.7202 217.754L52.9794 213.603H17.1051L21.3642 217.754H48.7202ZM54.4895 213.462L49.1171 218.707H20.9682L14.7533 212.65H55.3232L54.4895 213.462Z" fill="black"/>
<path d="M45.701 185.216C45.704 185.152 45.7204 185.089 45.7491 185.031C45.7779 184.973 45.8185 184.921 45.8682 184.879C45.918 184.837 45.9758 184.805 46.0385 184.786C46.1011 184.766 46.167 184.76 46.2323 184.766C46.2976 184.773 46.3609 184.793 46.4182 184.824C46.4755 184.856 46.5255 184.899 46.5655 184.95C46.6055 185.001 46.6344 185.059 46.6505 185.122C46.6666 185.184 46.6697 185.25 46.6593 185.314L44.2291 207.548C44.2265 207.612 44.2104 207.676 44.1819 207.735C44.1535 207.793 44.1132 207.845 44.0635 207.887C44.0138 207.93 43.956 207.962 43.8933 207.982C43.8305 208.001 43.7643 208.008 43.6988 208.002C43.6333 207.996 43.5698 207.975 43.5123 207.944C43.4548 207.912 43.4044 207.87 43.3643 207.818C43.3242 207.767 43.2954 207.708 43.2793 207.645C43.2632 207.583 43.2602 207.517 43.2707 207.453L45.701 185.216Z" fill="black"/>
<path d="M84.5992 212.018C84.472 212.015 84.3509 211.965 84.2609 211.877C84.1709 211.788 84.1192 211.668 84.1169 211.543C84.1169 211.481 84.1295 211.42 84.1538 211.362C84.178 211.304 84.2135 211.252 84.2583 211.208C84.3031 211.164 84.3561 211.129 84.4146 211.105C84.4732 211.081 84.5359 211.069 84.5992 211.069H163.947C164.011 211.068 164.074 211.08 164.132 211.104C164.191 211.128 164.245 211.163 164.29 211.207C164.335 211.251 164.37 211.303 164.394 211.361C164.418 211.419 164.43 211.481 164.43 211.543C164.429 211.669 164.378 211.79 164.288 211.879C164.197 211.968 164.075 212.017 163.947 212.018H84.5992Z" fill="black"/>
<path d="M173.524 218.722C173.396 218.722 173.273 218.671 173.183 218.582C173.092 218.493 173.041 218.373 173.041 218.247C173.041 218.121 173.092 218.001 173.183 217.912C173.273 217.823 173.396 217.772 173.524 217.772H228.875C229.002 217.774 229.123 217.825 229.213 217.913C229.303 218.002 229.355 218.122 229.357 218.247C229.356 218.373 229.305 218.493 229.215 218.582C229.124 218.67 229.002 218.721 228.875 218.722H173.524Z" fill="black"/>
<path d="M8.32396 218.707C8.19537 218.707 8.07205 218.656 7.98112 218.567C7.89019 218.477 7.83911 218.356 7.83911 218.229C7.83911 218.103 7.89019 217.982 7.98112 217.892C8.07205 217.803 8.19537 217.752 8.32396 217.752H63.8307C63.9592 217.752 64.0826 217.803 64.1735 217.892C64.2644 217.982 64.3155 218.103 64.3155 218.229C64.3155 218.356 64.2644 218.477 64.1735 218.567C64.0826 218.656 63.9592 218.707 63.8307 218.707H8.32396Z" fill="black"/>
<path fill-rule="evenodd" clip-rule="evenodd" d="M192.789 204.732H198.499V147.506H192.789V204.732Z" fill="#1BD9C4"/>
</svg>
