<svg width="16" height="16" viewBox="0 0 16 16" fill="none" xmlns="http://www.w3.org/2000/svg">
<path fill-rule="evenodd" clip-rule="evenodd" d="M10.2326 0.5H11.7209C13.1245 0.5 13.8255 0.5 14.2616 0.923614C14.6977 1.34723 14.6977 2.02819 14.6977 3.39157V14.4157H15.4419C15.5899 14.4157 15.7319 14.4728 15.8365 14.5745C15.9412 14.6761 16 14.814 16 14.9578C16 15.1016 15.9412 15.2395 15.8365 15.3412C15.7319 15.4429 15.5899 15.5 15.4419 15.5H0.55814C0.410112 15.5 0.268147 15.4429 0.163475 15.3412C0.0588038 15.2395 0 15.1016 0 14.9578C0 14.814 0.0588038 14.6761 0.163475 14.5745C0.268147 14.4728 0.410112 14.4157 0.55814 14.4157H1.30233V5.56024C1.30233 4.19687 1.30233 3.5159 1.73842 3.09229C2.17451 2.66867 2.87553 2.66867 4.27907 2.66867H7.25581C8.65935 2.66867 9.36037 2.66867 9.79646 3.09229C10.2326 3.5159 10.2326 4.19687 10.2326 5.56024V14.4157H11.3488V5.49518C11.3488 4.86988 11.3488 4.2959 11.2841 3.82964C11.2134 3.31566 11.046 2.77205 10.586 2.32602C10.1261 1.87855 9.56651 1.7159 9.03814 1.64651C8.56409 1.58506 7.98288 1.58434 7.34958 1.58434C7.41209 1.30458 7.51702 1.09277 7.69191 0.923614C8.128 0.5 8.82902 0.5 10.2326 0.5ZM2.97674 4.83735C2.97674 4.69356 3.03555 4.55565 3.14022 4.45398C3.24489 4.3523 3.38686 4.29518 3.53488 4.29518H8C8.14803 4.29518 8.28999 4.3523 8.39466 4.45398C8.49934 4.55565 8.55814 4.69356 8.55814 4.83735C8.55814 4.98114 8.49934 5.11904 8.39466 5.22072C8.28999 5.3224 8.14803 5.37952 8 5.37952H3.53488C3.38686 5.37952 3.24489 5.3224 3.14022 5.22072C3.03555 5.11904 2.97674 4.98114 2.97674 4.83735ZM2.97674 7.00602C2.97674 6.86223 3.03555 6.72433 3.14022 6.62265C3.24489 6.52098 3.38686 6.46386 3.53488 6.46386H8C8.14803 6.46386 8.28999 6.52098 8.39466 6.62265C8.49934 6.72433 8.55814 6.86223 8.55814 7.00602C8.55814 7.14982 8.49934 7.28772 8.39466 7.38939C8.28999 7.49107 8.14803 7.54819 8 7.54819H3.53488C3.38686 7.54819 3.24489 7.49107 3.14022 7.38939C3.03555 7.28772 2.97674 7.14982 2.97674 7.00602ZM2.97674 9.1747C2.97674 9.03091 3.03555 8.893 3.14022 8.79133C3.24489 8.68965 3.38686 8.63253 3.53488 8.63253H8C8.14803 8.63253 8.28999 8.68965 8.39466 8.79133C8.49934 8.893 8.55814 9.03091 8.55814 9.1747C8.55814 9.31849 8.49934 9.45639 8.39466 9.55807C8.28999 9.65975 8.14803 9.71687 8 9.71687H3.53488C3.38686 9.71687 3.24489 9.65975 3.14022 9.55807C3.03555 9.45639 2.97674 9.31849 2.97674 9.1747ZM5.76744 12.247C5.91547 12.247 6.05743 12.3041 6.16211 12.4058C6.26678 12.5075 6.32558 12.6454 6.32558 12.7892V14.4157H5.2093V12.7892C5.2093 12.6454 5.26811 12.5075 5.37278 12.4058C5.47745 12.3041 5.61941 12.247 5.76744 12.247Z" fill="black" fill-opacity="0.2"/>
</svg>
