<svg width="16" height="16" viewBox="0 0 16 16" fill="none" xmlns="http://www.w3.org/2000/svg">
<path d="M12.3257 3.67489C11.386 2.73142 10.3611 1.87679 9.26418 1.12187C10.455 0.516485 11.5836 0.151522 12.5618 0.0382272C13.7959 -0.104472 14.7083 0.15844 15.2747 0.724912C15.842 1.29225 16.105 2.20379 15.9614 3.43792C15.849 4.41692 15.484 5.54468 14.8778 6.73643C14.1231 5.63951 13.2688 4.61465 12.3257 3.67489Z" fill="black" fill-opacity="0.2"/>
<path fill-rule="evenodd" clip-rule="evenodd" d="M11.4081 4.59249C12.4471 5.62368 13.3691 6.76643 14.1574 7.99997C13.3692 9.2338 12.4472 10.3768 11.4081 11.4083C10.3769 12.4473 9.23418 13.3694 8.00067 14.1576C6.76656 13.3695 5.62325 12.4474 4.59153 11.4083C3.55281 10.3771 2.63109 9.23432 1.84311 8.00083C2.63121 6.76639 3.55322 5.62277 4.59239 4.59076C5.62366 3.55232 6.76638 2.63088 7.99981 1.84315C9.23362 2.63137 10.3766 3.5534 11.4081 4.59249ZM7.99981 10.1629C8.57322 10.1629 9.12315 9.93514 9.52862 9.52967C9.93408 9.1242 10.1619 8.57426 10.1619 8.00083C10.1619 7.4274 9.93408 6.87746 9.52862 6.47199C9.12315 6.06652 8.57322 5.83872 7.99981 5.83872C7.42639 5.83872 6.87646 6.06652 6.471 6.47199C6.06553 6.87746 5.83774 7.4274 5.83774 8.00083C5.83774 8.57426 6.06553 9.1242 6.471 9.52967C6.87646 9.93514 7.42639 10.1629 7.99981 10.1629Z" fill="black" fill-opacity="0.2"/>
<path d="M9.26418 14.8789C10.3612 14.1237 11.386 13.2688 12.3257 12.325C13.2688 11.3853 14.1231 10.3604 14.8778 9.2635C15.484 10.4553 15.849 11.583 15.9614 12.5611C16.1041 13.7953 15.842 14.7077 15.2747 15.2742C14.7083 15.8415 13.7959 16.1044 12.5618 15.9608C11.5836 15.8484 10.455 15.4852 9.26418 14.8789ZM3.67481 12.325C4.61447 13.2688 5.63932 14.1237 6.7363 14.8789C5.54457 15.4843 4.41683 15.8493 3.43785 15.9617C2.20374 16.1044 1.29308 15.8424 0.725758 15.275C0.158432 14.7085 -0.104475 13.7961 0.0382214 12.562C0.150649 11.5839 0.515605 10.4561 1.12185 9.26436C1.87702 10.3614 2.73193 11.3862 3.67568 12.3259M1.12185 6.73643C1.87702 5.63944 2.73193 4.61457 3.67568 3.67489C4.61538 2.73142 5.64023 1.87679 6.73716 1.12187C5.54543 0.516485 4.4177 0.151522 3.43872 0.0382273C2.20461 -0.103607 1.29308 0.15844 0.725758 0.724912C0.159297 1.29225 -0.10361 2.20379 0.0390864 3.43879C0.151514 4.41692 0.515605 5.54468 1.12185 6.73643Z" fill="black" fill-opacity="0.2"/>
</svg>
