<svg width="16" height="16" viewBox="0 0 16 16" fill="none" xmlns="http://www.w3.org/2000/svg">
<path d="M10.8 4.34375C10.8 4.7172 10.7276 5.08699 10.5869 5.43201C10.4461 5.77703 10.2399 6.09052 9.9799 6.35458C9.71989 6.61865 9.41123 6.82812 9.07151 6.97103C8.7318 7.11394 8.3677 7.1875 8 7.1875C7.6323 7.1875 7.2682 7.11394 6.92849 6.97103C6.58878 6.82812 6.28011 6.61865 6.0201 6.35458C5.7601 6.09052 5.55385 5.77703 5.41314 5.43201C5.27242 5.08699 5.2 4.7172 5.2 4.34375C5.2 3.58954 5.495 2.86622 6.0201 2.33292C6.5452 1.79961 7.25739 1.5 8 1.5C8.74261 1.5 9.4548 1.79961 9.9799 2.33292C10.505 2.86622 10.8 3.58954 10.8 4.34375ZM12.8 11.6562C12.8 13.2268 10.6512 14.5 8 14.5C5.3488 14.5 3.2 13.2268 3.2 11.6562C3.2 10.0857 5.3488 8.8125 8 8.8125C10.6512 8.8125 12.8 10.0857 12.8 11.6562ZM4.0976 2.3125C4.24 2.3125 4.37813 2.32604 4.512 2.35313C4.17598 2.96106 3.99966 3.64658 4 4.34375C4 5.049 4.1768 5.71281 4.488 6.2905C4.3616 6.31487 4.23147 6.32706 4.0976 6.32706C2.9664 6.32706 2.0488 5.42844 2.0488 4.32019C2.0488 3.21194 2.9664 2.3125 4.0976 2.3125ZM2.7576 13.6761C2.304 13.1244 2 12.4476 2 11.6562C2 10.8892 2.2856 10.2295 2.7168 9.68756C1.192 9.80781 0 10.6544 0 11.6798C0 12.7157 1.2136 13.5689 2.7576 13.6761ZM12 4.34375C12 5.049 11.8232 5.71281 11.512 6.2905C11.6379 6.31487 11.768 6.32706 11.9024 6.32706C13.0336 6.32706 13.9504 5.42844 13.9504 4.32019C13.9504 3.21194 13.0344 2.3125 11.9032 2.3125C11.7608 2.3125 11.6227 2.32604 11.4888 2.35313C11.8144 2.94138 12 3.62063 12 4.34375ZM13.2424 13.6761C14.7864 13.5689 16 12.7157 16 11.6798C16 10.6536 14.8072 9.80781 13.2832 9.68756C13.7152 10.2295 14 10.8892 14 11.6562C14 12.4476 13.696 13.1244 13.2424 13.6761Z" fill="black" fill-opacity="0.2"/>
</svg>
