<svg width="16" height="16" viewBox="0 0 16 16" fill="none" xmlns="http://www.w3.org/2000/svg">
<path fill-rule="evenodd" clip-rule="evenodd" d="M15.0698 5.1988C15.0698 4.18386 15.0698 3.67566 14.819 3.31133C14.7104 3.15339 14.5708 3.0178 14.4082 2.91229C14.08 2.69904 13.6387 2.67229 12.8342 2.6694C12.8367 2.88048 12.8377 3.09976 12.8372 3.32723V4.29518H13.5814C13.7294 4.29518 13.8714 4.3523 13.9761 4.45398C14.0807 4.55565 14.1395 4.69356 14.1395 4.83735C14.1395 4.98114 14.0807 5.11904 13.9761 5.22072C13.8714 5.3224 13.7294 5.37952 13.5814 5.37952H12.8372V6.46386H13.5814C13.7294 6.46386 13.8714 6.52098 13.9761 6.62265C14.0807 6.72433 14.1395 6.86223 14.1395 7.00602C14.1395 7.14982 14.0807 7.28772 13.9761 7.38939C13.8714 7.49107 13.7294 7.54819 13.5814 7.54819H12.8372V8.63253H13.5814C13.7294 8.63253 13.8714 8.68965 13.9761 8.79133C14.0807 8.893 14.1395 9.03091 14.1395 9.1747C14.1395 9.31849 14.0807 9.45639 13.9761 9.55807C13.8714 9.65975 13.7294 9.71687 13.5814 9.71687H12.8372V14.4157H11.7209V3.39157C11.7209 2.02819 11.7209 1.34723 11.2848 0.923614C10.8487 0.5 10.1477 0.5 8.74419 0.5H7.25581C5.85228 0.5 5.15126 0.5 4.71516 0.923614C4.27907 1.34723 4.27907 2.02819 4.27907 3.39157V14.4157H3.16279V9.71687H2.4186C2.27058 9.71687 2.12861 9.65975 2.02394 9.55807C1.91927 9.45639 1.86047 9.31849 1.86047 9.1747C1.86047 9.03091 1.91927 8.893 2.02394 8.79133C2.12861 8.68965 2.27058 8.63253 2.4186 8.63253H3.16279V7.54819H2.4186C2.27058 7.54819 2.12861 7.49107 2.02394 7.38939C1.91927 7.28772 1.86047 7.14982 1.86047 7.00602C1.86047 6.86223 1.91927 6.72433 2.02394 6.62265C2.12861 6.52098 2.27058 6.46386 2.4186 6.46386H3.16279V5.37952H2.4186C2.27058 5.37952 2.12861 5.3224 2.02394 5.22072C1.91927 5.11904 1.86047 4.98114 1.86047 4.83735C1.86047 4.69356 1.91927 4.55565 2.02394 4.45398C2.12861 4.3523 2.27058 4.29518 2.4186 4.29518H3.16279V3.32651C3.16229 3.1 3.16329 2.88072 3.16577 2.66867C2.3613 2.67229 1.92 2.69904 1.59181 2.91229C1.42923 3.0178 1.28964 3.15339 1.18102 3.31133C0.930232 3.67566 0.930233 4.18386 0.930233 5.1988V14.4157H0.55814C0.410112 14.4157 0.268147 14.4728 0.163475 14.5745C0.0588038 14.6761 0 14.814 0 14.9578C0 15.1016 0.0588038 15.2395 0.163475 15.3412C0.268147 15.4429 0.410112 15.5 0.55814 15.5H15.4419C15.5899 15.5 15.7319 15.4429 15.8365 15.3412C15.9412 15.2395 16 15.1016 16 14.9578C16 14.814 15.9412 14.6761 15.8365 14.5745C15.7319 14.4728 15.5899 14.4157 15.4419 14.4157H15.0698V5.1988ZM5.95349 7.54819C5.95349 7.4044 6.01229 7.2665 6.11696 7.16482C6.22164 7.06315 6.3636 7.00602 6.51163 7.00602H9.48837C9.6364 7.00602 9.77836 7.06315 9.88304 7.16482C9.98771 7.2665 10.0465 7.4044 10.0465 7.54819C10.0465 7.69198 9.98771 7.82989 9.88304 7.93156C9.77836 8.03324 9.6364 8.09036 9.48837 8.09036H6.51163C6.3636 8.09036 6.22164 8.03324 6.11696 7.93156C6.01229 7.82989 5.95349 7.69198 5.95349 7.54819ZM5.95349 9.71687C5.95349 9.57308 6.01229 9.43517 6.11696 9.3335C6.22164 9.23182 6.3636 9.1747 6.51163 9.1747H9.48837C9.6364 9.1747 9.77836 9.23182 9.88304 9.3335C9.98771 9.43517 10.0465 9.57308 10.0465 9.71687C10.0465 9.86066 9.98771 9.99856 9.88304 10.1002C9.77836 10.2019 9.6364 10.259 9.48837 10.259H6.51163C6.3636 10.259 6.22164 10.2019 6.11696 10.1002C6.01229 9.99856 5.95349 9.86066 5.95349 9.71687ZM8 12.247C8.14803 12.247 8.28999 12.3041 8.39466 12.4058C8.49934 12.5075 8.55814 12.6454 8.55814 12.7892V14.4157H7.44186V12.7892C7.44186 12.6454 7.50066 12.5075 7.60534 12.4058C7.71001 12.3041 7.85197 12.247 8 12.247ZM5.95349 3.57229C5.95349 3.4285 6.01229 3.29059 6.11696 3.18892C6.22164 3.08724 6.3636 3.03012 6.51163 3.03012H9.48837C9.6364 3.03012 9.77836 3.08724 9.88304 3.18892C9.98771 3.29059 10.0465 3.4285 10.0465 3.57229C10.0465 3.71608 9.98771 3.85398 9.88304 3.95566C9.77836 4.05734 9.6364 4.11446 9.48837 4.11446H6.51163C6.3636 4.11446 6.22164 4.05734 6.11696 3.95566C6.01229 3.85398 5.95349 3.71608 5.95349 3.57229ZM5.95349 5.74096C5.95349 5.59717 6.01229 5.45927 6.11696 5.35759C6.22164 5.25592 6.3636 5.1988 6.51163 5.1988H9.48837C9.6364 5.1988 9.77836 5.25592 9.88304 5.35759C9.98771 5.45927 10.0465 5.59717 10.0465 5.74096C10.0465 5.88476 9.98771 6.02266 9.88304 6.12433C9.77836 6.22601 9.6364 6.28313 9.48837 6.28313H6.51163C6.3636 6.28313 6.22164 6.22601 6.11696 6.12433C6.01229 6.02266 5.95349 5.88476 5.95349 5.74096Z" fill="black" fill-opacity="0.2"/>
</svg>
