<svg width="16" height="16" viewBox="0 0 16 16" fill="none" xmlns="http://www.w3.org/2000/svg">
<g clip-path="url(#clip0_169_6)">
<path d="M4.6 0.592593C4.6 0.435427 4.53679 0.284699 4.42426 0.173566C4.31174 0.0624337 4.15913 0 4 0C3.84087 0 3.68826 0.0624337 3.57574 0.173566C3.46321 0.284699 3.4 0.435427 3.4 0.592593V1.84099C2.248 1.93185 1.4928 2.15467 0.9376 2.7038C0.3816 3.25215 0.156 3.99882 0.0632 5.1358H15.9368C15.844 3.99802 15.6184 3.25215 15.0624 2.7038C14.5072 2.15467 13.7512 1.93185 12.6 1.8402V0.592593C12.6 0.435427 12.5368 0.284699 12.4243 0.173566C12.3117 0.0624337 12.1591 0 12 0C11.8409 0 11.6883 0.0624337 11.5757 0.173566C11.4632 0.284699 11.4 0.435427 11.4 0.592593V1.78805C10.868 1.77778 10.2712 1.77778 9.6 1.77778H6.4C5.7288 1.77778 5.132 1.77778 4.6 1.78805V0.592593Z" fill="black" fill-opacity="0.2"/>
<path fill-rule="evenodd" clip-rule="evenodd" d="M16 8.09877V9.67901C16 12.6586 16 14.1487 15.0624 15.074C14.1248 15.9992 12.6168 16 9.6 16H6.4C3.3832 16 1.8744 16 0.9376 15.074C0.000799942 14.1479 0 12.6586 0 9.67901V8.09877C0 7.43585 8.9407e-09 6.84642 0.0104 6.32099H15.9896C16 6.84642 16 7.43585 16 8.09877ZM11.2 9.08642C11.3591 9.08642 11.5117 9.14885 11.6243 9.25999C11.7368 9.37112 11.8 9.52185 11.8 9.67901V10.6667H12.8C12.9591 10.6667 13.1117 10.7291 13.2243 10.8402C13.3368 10.9514 13.4 11.1021 13.4 11.2593C13.4 11.4164 13.3368 11.5672 13.2243 11.6783C13.1117 11.7894 12.9591 11.8519 12.8 11.8519H11.8V12.8395C11.8 12.9967 11.7368 13.1474 11.6243 13.2585C11.5117 13.3697 11.3591 13.4321 11.2 13.4321C11.0409 13.4321 10.8883 13.3697 10.7757 13.2585C10.6632 13.1474 10.6 12.9967 10.6 12.8395V11.8519H9.6C9.44087 11.8519 9.28826 11.7894 9.17574 11.6783C9.06321 11.5672 9 11.4164 9 11.2593C9 11.1021 9.06321 10.9514 9.17574 10.8402C9.28826 10.7291 9.44087 10.6667 9.6 10.6667H10.6V9.67901C10.6 9.52185 10.6632 9.37112 10.7757 9.25999C10.8883 9.14885 11.0409 9.08642 11.2 9.08642Z" fill="black" fill-opacity="0.2"/>
</g>
<defs>
<clipPath id="clip0_169_6">
<rect width="16" height="16" fill="white"/>
</clipPath>
</defs>
</svg>
