<svg width="16" height="16" viewBox="0 0 16 16" fill="none" xmlns="http://www.w3.org/2000/svg">
<path fill-rule="evenodd" clip-rule="evenodd" d="M0 7.99879V4.79928C0 2.53722 -5.96046e-08 1.40539 0.7032 0.703094C1.4056 -5.96046e-08 2.5376 0 4.8 0H11.2C13.4624 0 14.5944 -5.96046e-08 15.2968 0.703094C16 1.40539 16 2.53722 16 4.79928V7.99879C16 10.2609 16 11.3927 15.2968 12.095C14.916 12.4765 14.4088 12.6509 13.6648 12.7309C13.616 12.6659 13.5639 12.6034 13.5088 12.5437C13.4035 12.4305 13.2952 12.3201 13.184 12.2126L11.9896 11.0351L11.5488 10.5888C11.405 9.75193 10.97 8.9928 10.3206 8.44557C9.6712 7.89833 8.84927 7.59819 8 7.59819C7.15073 7.59819 6.3288 7.89833 5.67942 8.44557C5.03004 8.9928 4.59501 9.75193 4.4512 10.5888L4.0112 11.0351L2.816 12.2126C2.7016 12.3253 2.584 12.4413 2.4912 12.5437C2.4512 12.5877 2.3952 12.6509 2.336 12.7309C1.5912 12.6509 1.084 12.4765 0.7032 12.095C-5.96046e-08 11.3927 0 10.2609 0 7.99879ZM5.6 2.59961C5.44087 2.59961 5.28826 2.66281 5.17574 2.77532C5.06321 2.88782 5 3.04041 5 3.19952C5 3.35862 5.06321 3.51121 5.17574 3.62372C5.28826 3.73622 5.44087 3.79943 5.6 3.79943H10.4C10.5591 3.79943 10.7117 3.73622 10.8243 3.62372C10.9368 3.51121 11 3.35862 11 3.19952C11 3.04041 10.9368 2.88782 10.8243 2.77532C10.7117 2.66281 10.5591 2.59961 10.4 2.59961H5.6ZM3.4 5.99909C3.4 5.83999 3.46321 5.6874 3.57574 5.57489C3.68826 5.46239 3.84087 5.39919 4 5.39919H12C12.1591 5.39919 12.3117 5.46239 12.4243 5.57489C12.5368 5.6874 12.6 5.83999 12.6 5.99909C12.6 6.1582 12.5368 6.31079 12.4243 6.42329C12.3117 6.5358 12.1591 6.599 12 6.599H4C3.84087 6.599 3.68826 6.5358 3.57574 6.42329C3.46321 6.31079 3.4 6.1582 3.4 5.99909Z" fill="#CCCCCC"/>
<path d="M10.4 11.1983C10.4 11.8347 10.1471 12.4451 9.69706 12.8951C9.24697 13.3451 8.63652 13.5979 8 13.5979C7.36348 13.5979 6.75303 13.3451 6.30294 12.8951C5.85286 12.4451 5.6 11.8347 5.6 11.1983C5.6 10.5619 5.85286 9.95153 6.30294 9.50151C6.75303 9.05149 7.36348 8.79867 8 8.79867C8.63652 8.79867 9.24697 9.05149 9.69706 9.50151C10.1471 9.95153 10.4 10.5619 10.4 11.1983Z" fill="#CCCCCC"/>
<path d="M5.6008 11.1319L5.6 11.1983C5.60113 11.8319 5.8528 12.4392 6.30011 12.888C6.74741 13.3367 7.35405 13.5904 7.98768 13.5936C8.62132 13.5969 9.23053 13.3495 9.68241 12.9053C10.1343 12.4612 10.3922 11.8564 10.3998 11.2229C10.4075 10.5894 10.1642 9.97861 9.72316 9.52374C9.28211 9.06886 8.67904 8.80683 8.04551 8.79482C7.41198 8.7828 6.79941 9.02177 6.34142 9.4596C5.88343 9.89743 5.6172 10.4986 5.6008 11.1319ZM4.5408 12.1982L3.6768 13.05C3.4168 13.306 3.2872 13.434 3.2424 13.5412C3.19152 13.6562 3.18459 13.786 3.22292 13.9058C3.26125 14.0256 3.34218 14.1273 3.4504 14.1915C3.548 14.2483 3.724 14.2658 4.0768 14.3018C4.2752 14.3218 4.3752 14.3314 4.4584 14.3618C4.54966 14.3949 4.63267 14.4473 4.70172 14.5156C4.77077 14.5838 4.82423 14.6661 4.8584 14.757C4.8896 14.8394 4.9 14.9369 4.92 15.1329C4.956 15.4809 4.9744 15.6544 5.032 15.7512C5.09901 15.8588 5.20247 15.9386 5.3235 15.9762C5.44452 16.0138 5.57503 16.0066 5.6912 15.956C5.8008 15.9112 5.9312 15.784 6.1896 15.5281L7.0536 14.6722C6.45794 14.5092 5.91409 14.196 5.47412 13.7627C5.03415 13.3294 4.71279 12.7912 4.5408 12.1982ZM8.9464 14.6722L9.8104 15.5281C10.0696 15.784 10.1992 15.912 10.3088 15.956C10.5592 16.0568 10.8368 15.9704 10.968 15.7512C11.0256 15.6552 11.044 15.4809 11.08 15.1337C11.1 14.9369 11.1104 14.8394 11.1416 14.7578C11.1757 14.6668 11.2291 14.5843 11.2981 14.5159C11.3672 14.4476 11.4503 14.395 11.5416 14.3618C11.6256 14.3314 11.7248 14.3218 11.9232 14.3018C12.2752 14.2658 12.452 14.2483 12.5496 14.1915C12.6576 14.1273 12.7384 14.0258 12.7767 13.9061C12.8151 13.7865 12.8083 13.6569 12.7576 13.542C12.7128 13.4332 12.5832 13.3052 12.324 13.05L11.46 12.1974C11.2879 12.7905 10.9665 13.3295 10.5263 13.7629C10.0862 14.1962 9.54221 14.5093 8.9464 14.6722Z" fill="#CCCCCC"/>
</svg>
