<svg width="16" height="16" viewBox="0 0 16 16" fill="none" xmlns="http://www.w3.org/2000/svg">
<path fill-rule="evenodd" clip-rule="evenodd" d="M0.9376 2.45225C-9.53674e-08 3.40369 0 4.93606 0 8C0 11.0639 -9.53674e-08 12.5963 0.9376 13.5477C1.8752 14.4992 3.3832 14.5 6.4 14.5H9.6C12.6168 14.5 14.1256 14.5 15.0624 13.5477C15.9992 12.5955 16 11.0639 16 8C16 4.93606 16 3.40369 15.0624 2.45225C14.1248 1.50081 12.6168 1.5 9.6 1.5H6.4C3.3832 1.5 1.8744 1.5 0.9376 2.45225ZM13.2608 4.36C13.3626 4.48414 13.4117 4.64426 13.3973 4.80515C13.3829 4.96604 13.3062 5.11454 13.184 5.218L11.4272 6.70487C10.7176 7.30613 10.1432 7.792 9.6352 8.1235C9.1072 8.46881 8.5928 8.68656 8 8.68656C7.4072 8.68656 6.8928 8.468 6.364 8.1235C5.8568 7.792 5.2824 7.30531 4.5728 6.70569L2.816 5.21881C2.69368 5.11538 2.61683 4.96683 2.60235 4.80585C2.58788 4.64487 2.63696 4.48464 2.7388 4.36041C2.84064 4.23618 2.98691 4.15813 3.14541 4.14342C3.30392 4.12872 3.46168 4.17857 3.584 4.282L5.312 5.74369C6.0584 6.375 6.576 6.81213 7.0144 7.09813C7.4376 7.37438 7.7248 7.46781 8.0008 7.46781C8.2768 7.46781 8.564 7.37519 8.9872 7.09813C9.4248 6.81213 9.9432 6.375 10.6896 5.74369L12.4168 4.28119C12.5391 4.17789 12.6968 4.12817 12.8553 4.14295C13.0137 4.15773 13.159 4.2358 13.2608 4.36Z" fill="black" fill-opacity="0.2"/>
</svg>
