<svg width="16" height="16" viewBox="0 0 16 16" fill="none" xmlns="http://www.w3.org/2000/svg">
<path fill-rule="evenodd" clip-rule="evenodd" d="M3.33822 3.02888V2.98008C3.33822 2.70887 3.34678 2.35446 3.46656 2.00246C3.66755 1.41613 4.04066 0.908508 4.53432 0.549782C5.02798 0.191057 5.6178 -0.00105602 6.22222 5.85119e-06H7.77778C8.38233 -0.00122197 8.97232 0.190814 9.46614 0.549551C9.95995 0.908288 10.3332 1.416 10.5342 2.00246C10.6532 2.35446 10.6626 2.70887 10.6626 2.98008V3.02808C11.6132 3.31468 12.4497 3.90646 13.0501 4.71696C13.6504 5.52747 13.983 6.51421 13.9992 7.53299L14 7.677V9.53544C13.9187 9.53645 13.8384 9.55385 13.7636 9.58664C11.6328 10.5537 9.32937 11.0532 7.00039 11.0532C4.6714 11.0532 2.368 10.5537 0.237222 9.58664C0.162448 9.55295 0.0816316 9.53578 0 9.53624V7.53379C0.0164726 6.51504 0.349248 5.52841 0.949704 4.71805C1.55016 3.9077 2.38682 3.31609 3.33744 3.02968M4.56789 2.39446C4.68838 2.04233 4.91233 1.73745 5.20872 1.52201C5.50512 1.30658 5.8593 1.19127 6.22222 1.19204H7.77778C8.54233 1.19204 9.19333 1.69285 9.43133 2.39367C9.46711 2.49767 9.48422 2.61767 9.49122 2.76967C7.84233 2.48167 6.15767 2.48167 4.50878 2.76967C4.51578 2.61767 4.53289 2.49767 4.56867 2.39367M4.86111 9.33704C4.86111 9.00743 5.12244 8.74102 5.44444 8.74102H8.55556C8.87756 8.74102 9.13889 9.00743 9.13889 9.33704C9.13869 9.41558 9.12343 9.49332 9.09399 9.5658C9.06456 9.63828 9.02152 9.70407 8.96734 9.75943C8.91317 9.81479 8.84891 9.85861 8.77825 9.8884C8.70759 9.9182 8.63192 9.93337 8.55556 9.93305H5.44444C5.36808 9.93337 5.29241 9.9182 5.22175 9.8884C5.15109 9.85861 5.08683 9.81479 5.03266 9.75943C4.97848 9.70407 4.93544 9.63828 4.90601 9.5658C4.87657 9.49332 4.86132 9.41558 4.86111 9.33704Z" fill="black" fill-opacity="0.2"/>
<path d="M14 10.7819C13.299 11.0875 12.586 11.3451 11.8611 11.5547V12.5155C11.8609 12.5941 11.8457 12.6718 11.8162 12.7443C11.7868 12.8168 11.7437 12.8826 11.6896 12.9379C11.6354 12.9933 11.5711 13.0371 11.5005 13.0669C11.4298 13.0967 11.3541 13.1118 11.2778 13.1115C11.2014 13.1118 11.1257 13.0967 11.0551 13.0669C10.9844 13.0371 10.9202 12.9933 10.866 12.9379C10.8118 12.8826 10.7688 12.8168 10.7393 12.7443C10.7099 12.6718 10.6946 12.5941 10.6944 12.5155V11.8499C7.10728 12.6264 3.37494 12.2537 0 10.7819V12.0187C0.00197863 12.8381 0.275923 13.6321 0.776483 14.2695C1.27704 14.9069 1.9742 15.3493 2.75256 15.5236C5.55022 16.1588 8.44978 16.1588 11.2482 15.5236C12.0262 15.3492 12.723 14.907 13.2233 14.2699C13.7237 13.6329 13.9977 12.8393 14 12.0203V10.7819Z" fill="black" fill-opacity="0.2"/>
</svg>
