<svg width="16" height="16" viewBox="0 0 16 16" fill="none" xmlns="http://www.w3.org/2000/svg">
<path fill-rule="evenodd" clip-rule="evenodd" d="M16 5.03435C16 7.81513 13.736 10.0695 10.9441 10.0695C10.4353 10.0695 9.27535 9.95271 8.71136 9.48391L8.00578 10.1863C7.59059 10.5999 7.70258 10.7215 7.88738 10.9215C7.96418 11.0055 8.05378 11.1023 8.12337 11.2407C8.12337 11.2407 8.71136 12.0599 8.12337 12.8799C7.77058 13.3479 6.7826 14.0031 5.65463 12.8799L5.41944 13.1135C5.41944 13.1135 6.12422 13.9335 5.53703 14.7535C5.18424 15.2215 4.24346 15.6895 3.42028 14.8703L2.5979 15.6895C2.03311 16.2518 1.34353 15.9239 1.06993 15.6895L0.363548 14.9871C-0.294837 14.3311 0.0891544 13.6207 0.363548 13.3471L6.47701 7.25913C6.47701 7.25913 5.88902 6.32314 5.88902 5.03515C5.88902 2.25438 8.15297 0 10.9449 0C13.7368 0 16 2.25438 16 5.03435ZM10.9449 6.79114C11.4115 6.79199 11.8594 6.60748 12.19 6.2782C12.5207 5.94891 12.707 5.50179 12.7081 5.03515C12.7077 4.80403 12.6617 4.57525 12.5729 4.36188C12.484 4.14851 12.3541 3.95473 12.1903 3.79159C12.0266 3.62846 11.8324 3.49917 11.6187 3.41111C11.405 3.32306 11.176 3.27795 10.9449 3.27837C10.7138 3.27795 10.4848 3.32306 10.2712 3.41111C10.0575 3.49917 9.86322 3.62846 9.69949 3.79159C9.53577 3.95473 9.40578 4.14851 9.31694 4.36188C9.22811 4.57525 9.18217 4.80403 9.18175 5.03515C9.18281 5.50179 9.36914 5.94891 9.69978 6.2782C10.0304 6.60748 10.4783 6.79199 10.9449 6.79114Z" fill="#13B2A4"/>
</svg>
