<svg width="24" height="24" viewBox="0 0 24 24" fill="none" xmlns="http://www.w3.org/2000/svg">
<path fill-rule="evenodd" clip-rule="evenodd" d="M19.8308 19.8308C19.9391 19.7223 20 19.5753 20 19.422C20 19.2687 19.9391 19.1217 19.8308 19.0132L16.898 16.0804C18.1266 14.6406 18.7502 12.7811 18.6381 10.8917C18.526 9.00227 17.687 7.22955 16.2968 5.94507C14.9066 4.66059 13.0732 3.96405 11.1808 4.00143C9.28843 4.03881 7.48397 4.80721 6.14559 6.14559C4.80721 7.48397 4.03881 9.28843 4.00143 11.1808C3.96405 13.0732 4.66059 14.9066 5.94507 16.2968C7.22955 17.687 9.00227 18.526 10.8917 18.6381C12.7811 18.7502 14.6406 18.1266 16.0804 16.898L19.0132 19.8308C19.1217 19.9391 19.2687 20 19.422 20C19.5753 20 19.7223 19.9391 19.8308 19.8308Z" fill="#13B2A4"/>
</svg>
