<svg width="24" height="24" viewBox="0 0 24 24" fill="none" xmlns="http://www.w3.org/2000/svg">
<path d="M18.1395 13.4C18.1395 13.2409 18.0807 13.0883 17.9761 12.9757C17.8714 12.8632 17.7294 12.8 17.5814 12.8H15.3488C15.2008 12.8 15.0588 12.8632 14.9542 12.9757C14.8495 13.0883 14.7907 13.2409 14.7907 13.4V18.8H13.6744V5.8C13.6744 5.2176 13.6729 4.84 13.6387 4.5632C13.606 4.3032 13.5531 4.2216 13.5107 4.176C13.4683 4.1304 13.3924 4.0736 13.1505 4.0384C12.8923 4.0016 12.5418 4 12 4C11.4582 4 11.107 4.0016 10.8495 4.0384C10.6076 4.0736 10.5317 4.1304 10.4893 4.176C10.4469 4.2216 10.394 4.3032 10.3613 4.5632C10.3271 4.8408 10.3256 5.2176 10.3256 5.8V18.8H9.2093V9.4C9.2093 9.24087 9.1505 9.08826 9.04583 8.97574C8.94116 8.86321 8.79919 8.8 8.65116 8.8H6.4186C6.27058 8.8 6.12861 8.86321 6.02394 8.97574C5.91927 9.08826 5.86047 9.24087 5.86047 9.4V18.8H4.55814C4.41011 18.8 4.26815 18.8632 4.16348 18.9757C4.0588 19.0883 4 19.2409 4 19.4C4 19.5591 4.0588 19.7117 4.16348 19.8243C4.26815 19.9368 4.41011 20 4.55814 20H19.4419C19.5899 20 19.7319 19.9368 19.8365 19.8243C19.9412 19.7117 20 19.5591 20 19.4C20 19.2409 19.9412 19.0883 19.8365 18.9757C19.7319 18.8632 19.5899 18.8 19.4419 18.8H18.1395V13.4Z" fill="#13B2A4"/>
</svg>
