<svg width="24" height="24" viewBox="0 0 24 24" fill="none" xmlns="http://www.w3.org/2000/svg">
<path d="M15.928 4C9.05076 4.82345 5.9234 5.40684 0 8.76039L0.0549677 8.9127L0.525726 8.91738C0.482564 9.3804 0.407323 10.5249 0.503419 12.2458C-0.153823 14.1035 0.486726 15.3655 1.08827 16.7383C1.1836 15.3104 1.17382 13.7465 0.72479 12.19C0.630774 10.4806 0.708 9.35668 0.750435 8.9195L4.67715 8.95613C4.66656 9.70713 4.7054 10.458 4.79342 11.2041L4.79371 11.2042C4.73881 11.5188 4.71134 11.8521 4.71131 12.2042V20H8.55164V12.6388C8.55102 12.2275 8.59737 11.8717 8.68993 11.5702C9.67969 11.4117 10.6133 11.0559 11.446 10.5219C12.0955 10.8373 12.4205 11.5426 12.4205 12.6388V20H16.2601V12.6388C16.2629 11.0994 16.9141 10.3299 18.2137 10.3304C19.5133 10.3309 20.163 11.1003 20.163 12.6388V20H24V12.2042C23.9995 10.5978 23.4283 9.38228 22.2865 8.5577C21.2821 7.82112 19.9236 7.45283 18.2109 7.45283C16.3376 7.4528 15.0468 7.88773 14.3385 8.7576C14.1509 8.55903 13.9393 8.38347 13.704 8.23021C13.1837 7.66124 12.1657 6.88575 12.1657 6.88575L15.9768 4.16587L15.928 4Z" fill="#13B2A4"/>
</svg>
