<svg width="32" height="33" viewBox="0 0 32 33" fill="none" xmlns="http://www.w3.org/2000/svg">
<path d="M16.0718 0.581329C20.3519 0.581329 24.2278 2.37374 27.0326 5.26783C29.8373 8.16397 31.5718 12.1628 31.5718 16.5808V28.5066C31.5718 30.8361 29.9286 32.5506 27.6779 32.5803C23.8724 32.5803 19.8783 32.5803 16.0718 32.5813C11.7927 32.5813 7.9177 30.7899 5.11197 27.8948C2.30823 24.9997 0.571777 20.9988 0.571777 16.5808C0.571777 12.1638 2.30823 8.16397 5.11197 5.26783C7.9177 2.37374 11.7927 0.581329 16.0718 0.581329ZM15.8851 25.7939H16.037C18.4555 25.7612 20.6427 24.7363 22.2323 23.0956C23.8476 21.4292 24.8464 19.1254 24.8464 16.5808C24.8464 14.0372 23.8476 11.7334 22.2323 10.0671C20.6179 8.39968 18.3861 7.36871 15.9219 7.36871C13.4567 7.36871 11.2248 8.39968 9.61046 10.0671C7.99514 11.7334 6.99635 14.0372 6.99635 16.5808C6.99635 19.1254 7.99514 21.4292 9.61046 23.0956C11.2169 24.7548 13.4348 25.7837 15.8851 25.7939Z" fill="#526ED3"/>
</svg>
